<svg xmlns="http://www.w3.org/2000/svg" xml:space="preserve" viewBox="0 0 106.73 80.09"><g stroke="#800" stroke-width="2.2"><path fill="#188f00" d="M93.1 51.22c-1.98-10.3-.68-21.16 1.92-31.27-14.5-7.01-35.04-8.67-49.98-1.71 2.27 10.76 3.54 24.92-.7 35.14 7.88-5.54 47.58 3.62 48.76-2.16z" paint-order="markers fill stroke"/><path fill="#fc0" d="M63.82 23.08c-3.65 1.55-7 4.14-8.57 7.96-5.8 14.2 12.8 27.04 24.85 18.16 16.43-12.13.24-32.02-16.28-26.12z"/><path fill="none" d="M12.92 29.96C6.75 20.16 26.08.17 33.82 8.54c7.02 7.6-4 17.9-11.83 12.29m48.82-18.9a51.55 51.55 0 0 0-1.84 11.16m-24.62 5.58c7.93-5.97 19.18-11.51 26.7-17.39 7.88 3.64 19 13.45 24.48 18.86" paint-order="stroke fill markers"/></g><path d="M61.5 102.73v18.4h2.23v2.51a8.89 8.89 0 0 0-2.86 6.58 9.03 9.03 0 0 0 2.86 6.74c1.85 1.7 4.46 2.61 7.32 2.61 2.72 0 4.74-.94 5.92-1.82l.83-.62h5.91l4.42.02v1.98h10.1l-.57 2h19.77l-.57-2h6.58V129v.85c0 1.99.72 3.95 2.24 5.35 1.52 1.4 3.72 2.12 6.18 2.12 2.23 0 4.19-.67 5.69-1.82v3.63h9.34l3.68.02v1.98h3.03c-1.45.04-2.8.6-3.88 1.48l-.03-.04a6.1 6.1 0 0 0-4.1-1.48c-.58 0-1.19.08-1.8.25h-5.4v4.04c-.22-.03-.4-.11-.63-.11-2.37 0-4.26 1.78-4.26 4 0 2.22 1.89 3.98 4.26 3.98.32 0 .6-.1.9-.16H151.38v-.43c.88.36 1.8.6 2.77.6 1.31 0 2.7-.38 3.99-1.09 1 .7 2.2 1.05 3.38 1.05a7.8 7.8 0 0 0 4.5-1.46l1.58-1.16-1.7-3.08v-6.18h-1.56v-.21h.38v-8.26h-1.1V131h1.1v-8.27h-13.58c-.08-.07-.11-.19-.2-.25-1.66-1.26-3.78-1.75-6-1.75h-4.63v-2h-16.86v2h-12.7v2h-7.86l-.48 1.69-.13.47v-3.76h6.33v-8.26h-1.1v-1.88h1.1v-8.26H70.42Zm83.07 24.2.09.1h-.2a.71.71 0 0 1 .1-.1zm9.38 14.2h2.18v.44a6.39 6.39 0 0 0-2.18-.44z" color="#000" style="-inkscape-font-specification:'Yellow Peas Demo';-inkscape-stroke:none" transform="translate(-60.87 -73.17)"/><path fill="#e60500" d="M63.92 105v13.86h4.73v-4.47l.53-.63 2.41 5.1h5.29L72.27 110l4.08-4.99H71.7l-3.04 4.1V105zm14.45 0v13.86h4.74V105Zm6.36 0v3.73h3.09v10.13h4.73v-10.13h3.1V105zm12.16 0v13.86h9.3v-3.73h-4.57v-1.46h3.47v-3.5h-3.47v-1.44h4.56V105zm-26.12 18c-4.36 0-7.48 2.89-7.48 7.22 0 4.22 3.12 7.08 7.75 7.08 2.17 0 3.57-.7 4.42-1.32l-1.87-3.06c-.68.45-1.4.66-2 .66a3.3 3.3 0 0 1-3.31-3.36c0-2.07 1.32-3.47 3.14-3.47.82 0 1.54.33 2.24.86l2.04-3.05a7.9 7.9 0 0 0-4.93-1.56zm69.2 0v13.86h4.5v-4.03a13.93 13.93 0 0 1 2.38 4.03l4.99.02a14.17 14.17 0 0 0-3.52-5.1c1.7-.7 2.82-1.93 2.82-3.82 0-3.3-2.54-4.96-6.2-4.96zm-35.21 2-3.94 13.86h4.88l.33-1.75h3.04l.3 1.75h4.9L110.35 125Zm39.7 1.73h.35c.85 0 1.6.35 1.6 1.12 0 .97-.85 1.25-1.8 1.25h-.15zm-36.81 1.9.8 4.76h-1.7zM161.9 141l-3.35.55v6.85c0 1.66 1.34 2.55 2.96 2.55 1.28 0 2-.24 3-.98l-1.03-1.86c-.23.16-.49.24-.8.24-.7 0-.78-.61-.78-1.18v-.98h1.56v-2.59h-1.56zm-16.33 2.36c-.7 0-1.54.19-2.25.67l-.3-.43h-2.22v7.22h3.35v-4.47c.22-.22.42-.33.71-.33.62 0 .73.54.73 1.16v3.64h3.36v-4.2c0-2.11-1.44-3.26-3.38-3.26zm8.2 0c-2.21 0-3.97 1.46-3.97 3.82 0 2.31 1.94 3.8 4.34 3.8 1.11 0 2.4-.3 3.34-1l-1.03-1.98c-.41.25-1.18.5-1.7.5-.59 0-1.02-.13-1.3-.4l4.15-.73V147c0-1.92-1.4-3.64-3.83-3.64zm-.02 2.4c.24 0 .5.15.61.56l-1.32.24c.06-.6.35-.8.7-.8zm-16 1.77c-.98 0-1.83.8-1.83 1.74 0 .92.85 1.72 1.83 1.72 1.01 0 1.86-.8 1.86-1.72 0-.94-.85-1.74-1.86-1.74z" font-family="Yellow Peas Demo" font-size="25.68" font-weight="400" style="-inkscape-font-specification:'Yellow Peas Demo'" transform="translate(-60.87 -73.17)"/><path fill="#188f00" d="M77.08 121v13.86h4.48v-4.03a13.93 13.93 0 0 1 2.4 4.03l4.98.02a14.17 14.17 0 0 0-3.52-5.1c1.7-.7 2.82-1.93 2.82-3.82 0-3.3-2.54-4.96-6.2-4.96zm36.1 2v3.73h3.1v10.13H121v-10.13h3.1V123zm-31.62 1.73h.35c.85 0 1.6.35 1.6 1.12 0 .97-.85 1.25-1.8 1.25h-.15zM153 125v13.86h9.3v-3.73h-4.57v-1.46h3.47v-3.5h-3.47v-1.44h4.56V125z" font-family="Yellow Peas Demo" font-size="25.68" style="-inkscape-font-specification:'Yellow Peas Demo'" transform="translate(-60.87 -73.17)"/><path fill="#fc0" d="M125.87 121v8.85c0 3.03 2.02 5.2 5.99 5.2 3.96 0 6.03-2.17 6.03-5.2V121h-4.74v8.85c0 .86-.42 1.47-1.32 1.47-.85 0-1.22-.6-1.22-1.47V121zm-35.31 2v13.86h9.3v-3.73h-4.57v-1.46h3.47v-3.5h-3.47v-1.44h4.56V123z" font-family="Yellow Peas Demo" font-size="25.68" style="-inkscape-font-specification:'Yellow Peas Demo'" transform="translate(-60.87 -73.17)"/><g transform="translate(-60.87 -73.17)"><path fill="red" stroke="#800" stroke-width="2.9" d="M134.83 116.6c.43 1.24.72 2.53.06 4.16l-3.38-2.34-3.32 2.4c-.33-.77-.72-1.42.03-4.15l3.15-3.53" paint-order="stroke markers fill"/><path fill="none" stroke="#800" stroke-width="2.2" d="M118.07 110.14c1.94 1.17 4.13 2.25 6.49 2.37l3.12 4.32 3.65-4.2 4.37 4.45 3.88-5.3c1.98-.66 3.54-1.4 4.76-2.22" paint-order="stroke fill markers"/><ellipse cx="124.04" cy="106.1" fill="#800" paint-order="stroke markers fill" rx="1.25" ry="1.19"/><ellipse cx="138.59" cy="106.1" fill="#800" paint-order="stroke markers fill" rx="1.25" ry="1.19"/></g></svg>