<?xml version="1.0" encoding="UTF-8"?>
<!-- Created with Inkscape (http://www.inkscape.org/) -->
<svg width="129.23mm" height="64.648mm" version="1.1" viewBox="0 0 129.23 64.648" xmlns="http://www.w3.org/2000/svg">
 <g transform="translate(-11.737 -136.74)"></g>
 <g transform="translate(2.6603 -.33972)">
  <path d="m47.767 0.68771c-0.126 4.774e-4 -0.25211 0.00204-0.37818 4e-3 -0.60167 0.061408-1.2205 0.22089-1.6213 0.65182-0.7568 0.22448-1.4421 0.61292-2.0857 1.0923-1.002 0.79524-1.5521 1.8991-1.936 3.09-0.30234 1.1928-0.25609 2.4379 0.13768 3.6059 0.08494 0.25194 0.20145 0.49204 0.3022 0.73808 0.60719 1.217 1.5221 2.2329 2.7804 2.7929 0.26118 0.11624 0.53814 0.1936 0.80721 0.2902 1.7731 0.48277 3.5896 0.29961 5.3317-0.19366 1.378-0.45543 2.4497-1.2683 3.3893-2.3508 0.67186-0.82452 1.0469-1.7816 1.2397-2.8158 0.16567-1.1449-0.065079-2.2389-0.53642-3.2791-0.50009-0.97708-1.3288-1.6506-2.236-2.2274-0.82133-0.44932-1.6898-0.81122-2.5804-1.0974-0.85317-0.25929-1.7321-0.3044-2.6141-0.30106zm-0.17595 2.0332c0.66696-0.010447 1.298 0.17946 1.8903 0.47644 1.0929 0.63059 2.1547 1.394 2.8758 2.4468 0.58528 1.0893 0.70936 1.7511 0.06398 2.8632-0.29236 0.39385-0.38276 0.5638-0.76893 0.88433-0.74281 0.61655-1.6672 0.96049-2.5844 1.2157-0.24336 0.0372-0.48703 0.07283-0.73008 0.11197-0.08803 0.01417-0.1742 0.04747-0.26336 0.04799-0.9185 0.0053-1.8032-0.2406-2.5199-0.82663-0.15716-0.16385-0.33105-0.31332-0.4713-0.49186-0.76217-0.97029-0.9781-2.2091-0.9106-3.4122 0.04125-0.21412 0.06902-0.43094 0.1234-0.64211 0.17592-0.68324 0.49601-1.3008 0.76893-1.9446 0.60612-0.39319 1.2456-0.6476 1.9949-0.67239 0.15916-0.00913 0.31906-0.01048 0.47758-0.027421 0.02038-0.00218 0.03321-0.028813 0.05369-0.029135zm1.8595 0.88433c-0.1495 0.00688-1.0596 0.54814-1.0191 0.61697 0.13851 0.33421 0.29999 0.7353 0.61983 0.94145 0.2272 0.14644 0.4945 0.22007 0.7398 0.33362 0.0072 0.012036 0.17684-0.08965 0.16966-0.10169 0.0036-0.42593-0.01993-0.20358 0.08855-0.66553 0.01424-0.43793-0.3067-0.81703-0.57927-1.1191-0.0026-0.00459-0.0095-0.00616-0.01942-0.00571zm-19.292 0.17881c-0.10667-9.435e-4 -0.21271 0.00687-0.31763 0.029135-0.69109 0.14668-1.504 1.1015-1.8778 1.5596-1.0862 1.3309-1.9577 2.8462-2.8392 4.3199-0.86128 1.0478-1.7153 2.1071-2.4308 3.2614 0.11815-1.0596 0.24789-2.1185 0.30849-3.1837 0.06638-0.69497 0.14491-1.3924 0.19595-2.0909 1.4e-5 -1.901e-4 -1.3e-5 -3.822e-4 0-5.713e-4 0.22624-1.0049 0.51119-2.2677-0.1988-2.8649-0.18262-0.15363-0.44105-0.18232-0.66153-0.27364-0.36286 0.029047-0.7289 0.032486-1.0888 0.086833-0.2044 0.030863-1.3239 0.36226-1.4864 0.41189-0.84216 0.25707-1.679 0.53483-2.5176 0.80321-1.8167 0.48915-3.5709 1.183-5.2785 1.9675-0.20226 0.081546-0.38478 0.17411-0.54899 0.28049-0.28136-0.049382-0.56308-0.078635-0.57013-0.038847-0.10835 0.32766-0.20249 0.65872-0.28963 0.99116-0.06417 0.12313-0.12217 0.25438-0.17367 0.39532-0.12086 0.56428-0.20048 1.1334-0.25079 1.7052-0.36652 2.4924-0.31594 5.0602-0.27364 7.5562 0.28494 6.0328 1.4344 11.878 3.3334 17.597 0.46823 1.0734 1.0107 2.0444 1.7121 2.8421 0.07866 0.17192 0.15828 0.34342 0.23822 0.51471 0.19732 0.42021 0.43415 0.8172 0.70266 1.1951 0.29272 0.43289 0.71943 0.6885 1.2042 0.85462 0.89097 0.2578 1.8265 0.15774 2.7318 0.03885 1.1375-0.11635 2.2702-0.25712 3.3979-0.44845 1.1582-0.16908 2.3115-0.36452 3.4585-0.59755 0.812-0.18238 1.6263-0.38294 2.3708-0.76322 0.43987-0.22798 0.65636-0.61277 0.74437-1.0848 0.07893-0.66932-0.16941-1.3037-0.41703-1.9138 0.40662 0.29927 0.83155 0.57324 1.2659 0.83348 0.49091 0.27757 0.9985 0.52476 1.5047 0.77293 0.31395 0.15136 0.64018 0.27228 0.97744 0.35933 0.66076 0.1708 1.3307 0.0068 1.9835-0.1114 1.4194-0.29654 2.8034-0.73457 4.1794-1.1865 1.1495-0.36771 2.3007-0.72645 3.435-1.1391 0.31699-0.11016 0.63898-0.20234 0.9643-0.28164 0.53852 0.51861 1.1516 0.95241 1.7767 1.3613 1.0859 0.70066 2.2707 1.1916 3.5082 1.5459 0.63044 0.18092 1.2802 0.25618 1.9286 0.33533 0.26575 0.01898 0.52628 0.06455 0.78321 0.13311 0.43164 0.13905 0.77712 0.2341 1.2637 0.15424 0.12915-0.02121 0.23615-0.11313 0.35419-0.16967 0.72825-0.49985 1.1865-1.2717 1.6675-1.9926 0.45538-0.64558 0.8957-1.3006 1.3156-1.9697 0.35848-0.58828 0.71799-1.1774 1.0363-1.7886 0.01873-0.08441 0.1167-0.25499 0.21937-0.43417 0.02661 0.03655 0.0546 0.07215 0.08055 0.10911 0.49396 0.41732 0.94995 0.88452 1.4819 1.2522 2.5869 1.7883 5.8595 2.6599 8.9267 3.1323 0.73426 0.11308 1.4753 0.17491 2.2131 0.26222 1.6404 0.14317 3.2902 0.21064 4.9358 0.12282 0.58766-0.03136 1.7492-0.14021 2.2725-0.30734 0.23722-0.07577 0.427-0.25668 0.64039-0.38504 0.17701-0.19416 0.37783-0.36902 0.53071-0.58269 0.04003-0.05595 0.07826-0.1151 0.11654-0.17424 0.27995 0.31766 0.6252 0.58156 0.98716 0.81692 1.2545 0.70827 2.4667 0.71017 3.8658 0.67067 1.2934-0.11946 2.5273-0.54051 3.7544-0.94088 1.0009-0.33394 1.9704-0.74496 2.8826-1.2751 0.73408-0.42163 1.3436-0.99964 1.904-1.6258 0.41644-0.48347 0.80562-0.98933 1.2379-1.459 0.28971-0.35441 0.64456-0.74429 0.68038-1.2271 0.0078-0.10837-0.01009-0.21707-0.0149-0.32562-0.05116-0.12011-0.08242-0.25073-0.1531-0.36047-0.26446-0.41061-0.85089-0.63311-1.2642-0.8472-0.72736-0.34762-1.5019-0.57786-2.2468-0.88262-0.42116-0.17531-0.82906-0.37972-1.2117-0.6284-0.2636-0.19425-0.51103-0.41035-0.76264-0.61983-0.18486-0.13808-0.37691-0.21351-0.57241-0.2445 1.1341-0.08963 2.2733-0.08545 3.4019-0.23936 0.75324-0.1388 1.6057-0.34368 1.6881-1.2591 0.01986-0.42843 0.0032-0.85818-0.05827-1.2831-0.07812-0.46944-0.19966-0.9289-0.37932-1.3699-0.12459-0.7644-0.42463-1.4699-0.84148-2.1268-0.39072-0.54922-0.83256-1.061-1.3179-1.5281-0.40907-0.39028-0.87323-0.70719-1.3568-0.99401-0.31316-0.25758-0.64316-0.49357-1.0009-0.68952-0.7391-0.40706-1.4864-0.82358-2.3079-1.0391-1.2362-0.26467-2.4913-0.37658-3.755-0.23993-0.63812 0.0573-1.2751 0.13047-1.9069 0.23708 0.0058-0.03969 0.01083-0.07938 0.01771-0.11882-0.03308-0.2093-5e-3 -0.43813-0.0994-0.62783-0.48542-0.97518-1.6277-1.1044-2.5907-1.1425-1.2529-0.04957-1.9127 0.01673-3.1043 0.09083-0.7634 0.06476-1.5221 0.16877-2.2742 0.30734 1.4996-1.8184 2.6598-3.8895 3.763-5.9663 0.48316-1.008 0.99651-2.0211 1.2779-3.11 0.084251-0.32598 0.21508-0.99163 0.10568-1.3465-0.084221-0.27323-0.26896-0.50452-0.40331-0.75693-0.26891-0.15811-0.51414-0.36552-0.8066-0.47416-0.87709-0.32579-2.3462-0.30986-3.1454-0.32505-1.7503-0.033268-3.5071 0.076214-5.2551 0.14796-0.49203 0.025778-0.98446 0.045655-1.4762 0.077121-1.8267 0.1169 0.77104 0.014231-1.711 0.095402-0.33215 0.010866-1.1148 0.026635-1.4779 0.065696-0.33691 0.036248-0.67146 0.092545-1.0072 0.13882-0.17633 0.091264-0.36424 0.16341-0.529 0.27421-0.87002 0.58506-1.6194 1.9399-2.1508 2.8198-1.0186 1.7339-1.7526 3.6066-2.3371 5.5248-0.3084 1.0312-0.5057 2.0868-0.58441 3.1591-0.01829 0.37179-0.01539 0.74454 0.02571 1.1145 0.03721 0.22336 0.08301 0.4451 0.12397 0.66782 0.02117 0.03841 0.02191 0.1192 0.02914 0.19537-0.01656-0.0049-0.03522-0.01006-0.05026-0.01486-0.07827-0.01466-0.15642-0.02897-0.23479-0.04285-0.28125-0.09361-0.56377-0.18324-0.84777-0.26964-0.58759-0.1972-1.1791-0.38187-1.7744-0.5547-0.08735-0.02409-0.17521-0.04696-0.26278-0.07027-0.55672-0.24744-1.1186-0.48331-1.6875-0.70152-1.2276-0.45845-2.4649-0.89932-3.7241-1.2625-1.3441-0.32585-2.7032-0.63201-4.0972-0.52557-0.32065 0.06856-0.54898 0.15773-0.72266 0.3022-0.03646-0.1408-0.09911-0.27349-0.17995-0.40103 0.11249-0.33891 0.14006-0.72827 0.03542-1.2654-0.42265-2.1693-3.3436-3.728-5.0152-4.8192-1.4056-0.91964-2.7654-1.9054-4.104-2.9192-0.93974-0.71171-1.4883-1.1746-2.5496-1.6824-0.32121-0.018901-0.64717-0.10171-0.96716-0.10454zm16.4 0.87347c-0.18982 0.010181-1.2009 0.5015-1.1637 0.57927 0.18962 0.52873 0.55837 1.5161 1.0711 1.7789 0.20867 0.10695 0.4522 0.12568 0.6781 0.18852 0.01006 0.018718 0.27459-0.1241 0.2645-0.14282 0.06414-0.17939 0.17192-0.34874 0.19252-0.53814 0.07161-0.65867-0.58613-1.4133-1.0134-1.8572-0.0032-0.00659-0.01304-0.00943-0.02913-0.00857zm28.845 0.6741c0.0035 7.854e-4 0.0074 0.00444 0.01083 0.011996 0.04689 0.10373-0.25534 0.68944-0.29135 0.75979-0.21674 0.42347-0.71954 1.2967-0.93346 1.6664-0.21486 0.37133-0.433 0.74076-0.64953 1.1111-0.7581 1.2953-1.5274 2.587-2.2331 3.9121-0.76687 1.4399-0.44464 0.91588-1.1145 2.2034-0.11403 0.21916-0.23811 0.43299-0.35705 0.64953-0.08833 0.14266-0.67191 1.0063-0.64039 1.1728 0.1909 1.009 0.46001 0.85532 1.1922 0.89804 1.4892 0.03255 2.979 0.01128 4.4645-0.11082 2.3598-0.20025 0.37658 0.0018 1.9189-0.21708 0.28415-0.04032 1.1287-0.06713 1.4824-0.3022-0.23615 0.45096-0.51196 0.87741-0.76664 1.3202-0.55193 0.95957-1.0611 1.9443-1.4339 2.9895-0.31425 1.0038-0.28297 0.83552-0.49929 1.7447-0.03762 0.15809-0.07502 0.31653-0.10397 0.47644-0.0051 0.02809-0.02228 0.07059-0.02685 0.10283-1.1629-0.31624-2.3273-0.6337-3.4682-1.0214-0.34796-0.1325-0.63971-0.2664-0.94374-0.47987-0.15269-0.10721-0.50017-0.39876-0.63297-0.41417-0.24793-0.02877-0.4922 0.08565-0.73808 0.12854-0.86417 0.57687-1.3914 1.4989-1.7966 2.4353-0.24093 0.74869-0.43392 1.1638-0.4433 1.9743-0.01357 1.1715 0.43381 2.2422 1.3973 2.9478 0.3249 0.23792 0.71675 0.36762 1.0751 0.55128 0.44517 0.12665 0.88192 0.28846 1.3356 0.3799 1.3181 0.26564 2.394 0.24364 3.7641 0.20566 0.84529-0.02342 2.2269-0.1446 3.0734-0.3182 0.20345-0.04172 0.39079-0.1414 0.58612-0.21194 0.81784-0.37092 0.29824 0.02089 0.56156-0.55984 0.02349-0.05181 0.01324 0.11532 5.7e-4 0.17081-0.03823 0.16914-0.09808 0.33275-0.15196 0.49758-0.03739 0.11438-0.56588 1.651-0.56784 1.6567-0.3175 1.0125-0.63744 2.0239-0.91918 3.0472-0.11795 0.42837-0.17247 0.87846-0.34962 1.2859-0.03187 0.0733-0.10169 0.12341-0.15253 0.18509-0.51705 0.12773-0.59528 0.04238-1.2779-0.04628-1.5209-0.19752-3.0376-0.42808-4.5559-0.64382-4.0426-0.67856-8.2139-1.2728-11.82-3.3528-0.30258-0.21544-0.64503-0.3841-0.90775-0.64668-0.2353-0.23518-0.37022-0.54694-0.46159-0.8729 0.05575-0.09715 0.11082-0.19503 0.1651-0.29306 0.67463-1.2439 1.2516-2.55 1.5967-3.9263 0.36628-1.0669 0.74784-2.1294 1.0306-3.2225 0.18718-0.70648 0.39643-1.4243 0.41017-2.1594-0.07881-0.56874-0.26751-0.9077-0.77236-1.1842-0.41296-0.23114-0.85393-0.40251-1.2796-0.6084-0.05494-0.02503-0.10995-0.04972-0.1651-0.07427 0.04143-0.31185 0.04493-0.63378 0.04741-0.95174 0.05477-0.33752 0.08909-0.68229 0.0657-1.0214 0.13842-1.0893 0.42302-2.1598 0.6901-3.2231 0.42151-1.5134 0.92333-3.0059 1.4402-4.4896 0.25238-0.77392 0.50868-1.5592 1.0289-2.1971 0.30865-0.3485 0.68991-0.6234 0.9963-0.97345 0.07295-0.091118 0.06111-0.17053 0.01028-0.24279 0.122 0.020603 0.24372 0.04124 0.36618 0.058841 1.4777 0.21239 2.9686 0.25492 4.4593 0.29306 1.7442-0.030236 3.4997-0.066923 5.2271-0.3439 0.28335-0.045433 0.55404-0.14972 0.83405-0.21251 0.28232-0.063306 0.57407-0.08641 0.85234-0.16567 0.1065-0.030335 0.19371-0.10665 0.29078-0.15996 0.02638-0.051664 0.05495-0.19459 0.07998-0.18909zm-53.521 0.14225c0.0055 5.417e-4 0.01268 0.00775 0.02114 0.023422 0.03548 0.065734 0.0115 0.23755-0.04341 0.4633-0.0057-0.013599-0.01201-0.027827-0.01371-0.039418 0.02341-0.12244-0.0025-0.4511 0.03599-0.4473zm30.027 0.14053c-0.0015-2.635e-4 -0.0024-4.58e-5 -0.0034 5.713e-4 -0.63408 0.041104-1.2292 0.32249-1.8172 0.54442-0.85618 0.32559-1.7027 0.67664-2.5404 1.0471-0.42102 0.19266-0.84016 0.39144-1.2522 0.60269-0.10919 0.058908-0.21094 0.12432-0.29192 0.21937-0.07448 0.10012-0.1208 0.18814-0.1451 0.3222-0.0031 0.39085 0.16882 0.7518 0.36104 1.082 0.40187 0.58059 1.0096 0.81832 1.6835 0.91689 0.88353 0.08195 1.6823-0.20646 2.4633-0.58269 0.55137-0.28414 1.0348-0.67109 1.459-1.1203 0.28472-0.34671 0.48287-0.74613 0.60098-1.1768 0.0857-0.33382 0.07143-0.65697-0.04971-0.97744-0.17003-0.35412-0.28518-0.24293-0.58441-0.052557-0.0024 8.777e-4 0.01028 0.03458 0.01257 0.033705-0.02794 0.026035-0.2882 0.18548-0.23251 0.27021 0.06323 0.1683 0.04048 0.34899-0.0052 0.51929-0.09603 0.30829-0.27422 0.5781-0.48958 0.81749-0.3691 0.36395-0.81978 0.63617-1.2814 0.86719-0.48896 0.20464-1.0247 0.3837-1.5561 0.39875-0.43501-0.00333-0.85676-0.015298-1.1568-0.3759-0.12048-0.1505-0.20136-0.32858-0.30734-0.48558h5.7e-4c0.45786-0.092591 0.89794-0.26099 1.3351-0.4216 0.85534-0.33335 1.7082-0.67582 2.5336-1.0791 0.53366-0.26065 1.1094-0.5049 1.5396-0.92432 0.03049-0.01913-0.23096-0.43742-0.27592-0.44559zm-21.082 0.00571c-0.09877 0.17194-0.05066 0.10922-0.10054 0.08969 0.03227-0.031306 0.06554-0.061502 0.10054-0.08969zm-0.2565 0.25193c0.05823 0.018825 0.12555 0.04372 0.21251 0.085119 0.20698 0.098523 0.57746 0.32059 0.75979 0.42674 0.2062 0.12288 0.4069 0.25322 0.60554 0.38675 0.04092 0.037162 0.08089 0.074333 0.12282 0.1114 0.99626 0.88057 2.0322 1.7151 3.1237 2.4736 0.61253 0.53402 1.2091 1.0858 1.7915 1.6527 0.52482 0.52571 1.053 1.0483 1.5858 1.5659 0.33251 0.31685 0.66399 0.63585 0.97801 0.97116 0.25732 0.29649 0.51872 0.58868 0.78664 0.87462-0.1102 0.10031-0.22099 0.20003-0.32162 0.30734-1.8864 1.4709-3.7618 2.9525-5.5545 4.5382-0.92571 0.81884-3.0405 2.7342-3.8481 3.7487-0.44572 0.55989-0.76248 1.2116-1.1437 1.8172 0.03818 0.34987-0.01561 0.72231 0.11426 1.0494 0.20949 0.52774 1.0514 0.95949 1.4722 1.1768 1.68 0.8678 3.487 1.4722 5.246 2.1497 2.6045 0.89742 5.2092 1.7467 7.871 2.4622 0.98044 0.26353 2.7018 0.704 3.964 0.96316-1.0783 0.21533-2.1558 0.43602-3.2208 0.71238-2.6012 0.68252-1.9388 0.47881-4.5148 1.2745-1.6 0.49424-3.1874 1.0899-4.8112 1.5047-0.30496 0.0779-0.61741 0.12326-0.92603 0.18509-0.58864 0.18066-1.1269-0.1175-1.6441-0.39989-1.1651-0.63609-2.2239-1.4519-3.3436-2.1594-2.9675-2.0847-5.9095-4.2011-8.6936-6.5291-0.87518-0.68886-0.66679-0.80822-2.0743-0.01657-0.09299 0.0523-0.0077 0.21824 0.02627 0.31934 0.13322 0.39514 0.64025 1.1716 0.81349 1.4367 0.25629 0.39232 0.52665 0.77496 0.79007 1.1625 1.9303 2.5954 4.1026 4.9017 6.2691 7.2934 0.09712 0.0802 0.27813 0.11524 0.29135 0.24051 0.0258 0.24466-0.67149 0.5137-0.98944 0.62268-1.4359 0.49216-2.9605 0.67645-4.4462 0.94317-1.3179 0.19432-2.7032 0.45624-3.9823-0.09997-0.01872-0.0081-0.03583-0.01787-0.05427-0.02627-0.0708-0.15844-0.1417-0.31692-0.20166-0.47872-0.34961-0.94349-0.68278-1.8927-1.0443-2.8318-0.62388-1.9299-1.1711-3.8822-1.7944-5.8121-0.51094-1.8336-1.0471-3.6614-1.4128-5.5316-0.09436-0.45259-0.18319-0.9058-0.26907-1.3596-0.06646-0.51223-0.13063-1.0248-0.19138-1.5379-0.02159-0.17353-0.16417-1.298-0.18452-1.5339-0.03998-0.46334 0.03116-0.99842-0.23022-1.4065 2e-3 -0.0083-0.01083-0.01948-0.03484-0.03199-0.13363-1.696-0.34713-4.1478-0.40846-5.8852-0.0385-1.0907 0.01452-2.1854-0.0097-3.2774 0.19207-0.13648 0.45586-0.18031 0.75008-0.2902 1.767-0.57689 3.5428-1.1311 5.2723-1.8155 0.83312-0.27091 1.6626-0.55059 2.4907-0.83634 0.24008-0.082842 0.47904-0.16823 0.72037-0.24736 0.18411-0.06037 0.3829-0.084776 0.55699-0.16852-0.0023 0.00861-0.0057 0.018686-0.0079 0.027421-0.07789 0.23032-0.14618 0.46334-0.20966 0.69752-0.20234 0.62426-0.42953 1.2731-0.41817 1.4527-0.39006 1.542-0.77941 3.0849-1.0111 4.661-0.11488 0.78133-0.35213 2.6981-0.21251 3.5259 0.09653 0.5723 0.37815 1.0977 0.56727 1.6464 0.4731 0.0403 0.95296 0.21122 1.419 0.12054 0.53577-0.10424 1.4746-1.3212 1.6761-1.5967 1.2729-1.7409 2.1827-3.7126 3.182-5.6122 0.35861-0.63778 0.71242-1.2807 1.0688-1.9218 0.26528-0.30655 0.53366-0.61085 0.79521-0.92032 0.3734-0.44347 0.74391-0.88867 1.09-1.3539 0.17647-0.22833 0.34523-0.46598 0.55128-0.66896 0.08944-0.070492 0.16759-0.15403 0.24507-0.23765zm11.765 10.481c-0.10027 0.42556-0.17112 0.85749-0.20794 1.2945-0.11422 1.3936-0.1967 2.7907-0.24793 4.188-0.01881 1.632-0.0345 3.2637-0.03485 4.8958 0.0025 0.2501 0.0037 0.50257 0.01028 0.75465-0.0042-9.8e-4 -0.0083-0.0024-0.01257-0.0034-0.64386-0.18723-1.2965-0.3307-1.9509-0.47587-0.73853-0.20549-1.4499-0.49607-2.1868-0.70838-0.85314-0.28513-1.7205-0.50829-2.6147-0.62383-1.0333-0.16468-2.0662-0.3365-3.1031-0.47644 0.38204-0.38649 0.76331-0.77392 1.1545-1.1511 1.0188-0.96698 2.0037-1.9728 3.1083-2.8449 1.2454-1.0077 2.5403-1.9494 3.7755-2.9695 0.77374-0.6189 1.5883-1.1999 2.3102-1.8795zm36.017 0.46159c0.0048 3.61e-4 0.01468 0.0023 0.03256 0.0045-0.0024 0.0052-5e-3 0.01028-0.0074 0.01543-0.01888-0.01444-0.03601-0.02081-0.02513-0.02zm-32.931 0.37018c0.02687-0.0053 0.06063 0.11081 0.09883 0.14396 0.16794 0.1458 0.42589 0.30829 0.63525 0.3759 0.88037 0.28428 1.7818 0.49869 2.669 0.76093 3.0264 1.0094 6.2021 1.4522 9.262 2.3279 0.15555 0.10479 0.33568 0.18059 0.46673 0.31477 0.83072 0.8506-0.38307 3.0556-0.7238 3.8418-1.8257 3.4032-3.4803 6.8939-5.0883 10.404-0.43322 0.65933-0.55167 1.6783-1.1922 2.216-0.06502 0.05459-0.20372 0.14124-0.24564 0.06741-0.04098-0.07218 0.13216-0.10058 0.19823-0.15082-0.10774-0.05604-0.2156-0.11249-0.32334-0.16852-1.1108-0.87057-2.2532-1.6987-3.4585-2.4319 1.0242-0.27902 2.052-0.55629 3.0197-0.98773 0.27406-0.12218 1.0402-0.48505 1.0186-0.94546-0.01875-0.39884-0.29248-0.74302-0.43874-1.1145-0.4756-0.24314-0.93492-0.52181-1.427-0.72951-1.0113-0.42683-3.4706-1.1936-4.4291-1.5019-0.25063-0.08061-0.50159-0.15988-0.75236-0.23993 0.23628-1.2485 0.30787-2.5224 0.37647-3.7892 0.24066-2.6434 0.29078-5.3019 0.26792-7.9549 0.01825-0.14276-0.01551-0.30233 0.05484-0.42788 0.0035-0.0063 0.0076-0.0095 0.01143-0.01028zm37.856 1.9829c0.07338 0.01713 0.1538 0.03573 0.25307 0.05713 0.87123 0.18783 1.2235 0.20343 2.0434 0.58155 0.33286 0.1535 0.63806 0.36184 0.95688 0.54271 0.87037 0.58064 1.6953 1.2411 2.3759 2.0412 0.50076 0.58862 0.8973 1.2574 1.2785 1.9258 0.09262 0.18257 0.16731 0.3237 0.23822 0.47244-0.14321-0.07044-0.37541-0.02361-0.64097-0.02857-2.0879 0.02718-4.1493 0.3447-6.196 0.73066-0.97231 0.1992-1.9554 0.33782-2.9363 0.48729-0.42872 0.02652-0.84367 0.20299-1.2734 0.1988-0.33666-0.02075-0.64671-0.04323-1.4122-0.02285-0.5665 0.02948-1.1292 0.10723-1.691 0.18338-0.5073 0.05139-0.95143 0.18982-1.122 0.74779-0.04193 0.1372-0.01299 0.28627-0.01942 0.4296 0.04464 0.21272 0.12253 0.40487 0.22622 0.57755-0.66807 0.01431-1.3361 0.02514-2.0029 5.71e-4 -0.11565-0.0043-0.17002-0.0076-0.26621-0.01143 0.06733-0.14739 0.34017-0.01374 0.37418-0.32848 0.0525-0.64285 0.08547-1.2875 0.2805-1.9098 0.06032-0.23217 0.12406-0.46312 0.18966-0.69352 0.33296 0.07174 0.66836 0.13123 1.0049 0.17938 0.32853-0.01315 0.66782 0.04556 0.98544-0.03942 0.71206-0.1905 1.0441-1.0627 1.2991-1.651 0.74184-1.7116-0.1778 0.29108 0.72323-1.6355 0.28817-0.6152 0.5839-1.2269 0.87519-1.8406 0.05293-0.02436 0.10575-0.04923 0.15881-0.07313 0.01763 0.0031 0.03186 0.0052 0.03257 0.0024 0.06526-0.02978 0.12489-0.0758 0.19538-0.08911 0.23159-0.04371 0.46633 0.10009 0.69238-0.0028 0.37428-0.14636 0.73766-0.32044 1.1248-0.43474 0.46593-0.14226 0.94459-0.22663 1.4265-0.29706 0.28388-0.04077 0.5642-0.07643 0.82549-0.09997zm-0.50044 1.5013c-0.32022-0.0015-0.59538 0.02687-0.89118 0.11768-0.32568 0.04009-0.65228 0.14014-0.99001 0.28906-0.58453 0.29016-1.0118 0.73702-1.3459 1.2876-0.21875 0.41762-0.33208 0.88031-0.35705 1.3493-8.83e-4 0.40714 0.02896 0.46406 0.28849 0.44902-0.10828 0.27964-0.20265 0.58538-0.16281 0.6004 1.019 0.32413 2.1263 0.24259 3.1774 0.1491 0.7281-0.10284 1.4664-0.2423 2.1463-0.53242 0.70631-0.40732 0.4195-1.1437 0.16167-1.7321-0.18781-0.40755-0.43466-0.76288-0.7398-1.0626-0.01738-0.0273-0.03544-0.05454-0.05427-0.08113-0.222-0.35298-0.48745-0.67823-0.89346-0.82377-0.11973-0.0059-0.23211-0.0098-0.33934-0.01028zm-0.47358 1.3448c0.06773 0.01007 0.1327 0.02367 0.1868 0.03713 0.23404 0.11587 0.42324 0.25849 0.5867 0.42617 0.03596 0.07263 0.06952 0.14666 0.09768 0.2228 0.05075 0.12173 0.07622 0.24966 0.09197 0.37932-0.49642-0.0053-0.99255 0.03569-1.4864 0.08341-0.14881 0.0288-0.30342 0.0501-0.46045 0.07083 4.75e-4 -0.01523 5.88e-4 -0.0305 0.0011-0.0457 0.0246-0.2129-0.12781-0.55084 0.06741-0.69581 0.26475-0.19212 0.55564-0.33952 0.85862-0.46044 0.01884-0.0057 0.03761-0.01168 0.05656-0.01771zm-11.743 1.0123c-0.02875 0.08245-0.05788 0.14836-0.08684 0.19652-0.0081-0.0047-0.01644-9e-3 -0.02456-0.01371 0.04402-0.07371 0.08419-0.13826 0.1114-0.18281zm1.5864 1.5893c4e-3 0.0016 8e-3 0.0029 0.01199 0.0045-0.0048 0.01153-0.0096 0.02271-0.01428 0.03428-0.0068-0.0034-0.01358-0.0066-0.02-0.0097 0.0076-0.0097 0.0153-0.01976 0.02228-0.02914zm-1.515 0.09197c0.22485 0.16676 0.43947 0.30188 0.533 0.30106 0.20393-0.0018 0.39732-0.07848 0.59126-0.15082-0.38234 0.53442-0.50649 1.2384-0.62268 1.8721 0.0055 0.18464 0.0027 0.29535 0.0028 0.3679-0.04297-0.02048-0.08512-0.0426-0.12225-0.07198-0.46122-0.36482-0.62105-1.0357-0.59698-1.591 0.07194-0.34655 0.05451-0.34383 0.19309-0.67696 7e-3 -0.01685 0.01436-0.03358 0.02171-0.05026zm16.34 3.2088c-0.33621 0.09908-0.66819 0.2569-0.97859 0.39018-0.97256 0.38741-1.8454 0.97499-2.7867 1.4248-0.59516 0.251-1.2138 0.50338-1.8618 0.55585 9.33e-4 -2e-3 0.0017-0.0038 0.0024-0.0063 0.01556-0.05604-0.11543-0.01555-0.17138-0.03142-0.11332-0.03214-0.25454-0.12726-0.3719-0.18966 0.03183-0.52982-0.06913-1.0293-0.46559-1.4093 0.69197-0.04631 1.3823-0.11735 2.072-0.19138 1.5208-0.17914 3.0388-0.381 4.5616-0.54271zm0.34219 2.7998c0.01581-2.93e-4 0.0361 0.0033 0.02627 0.0028-0.01241-4.23e-4 -0.02473-6.66e-4 -0.03713-0.0011 0.0029-9.8e-4 0.0063-0.0017 0.01083-0.0017zm-0.05827 0.02743c0.77372 0.25828 1.5166 0.62021 2.3279 0.7615 0.01028 0.0021 0.02062 0.0042 0.03085 0.0063 0.26751 0.1468 0.53735 0.28864 0.81235 0.41988-0.42001 0.38586-0.84185 0.77025-1.3122 1.0957-0.75941 0.53117-1.5985 0.93158-2.4382 1.3191-1.013 0.4275-2.0853 0.73576-3.1843 0.82892-0.2203 0.07327-0.08442 0.03606-0.55585 0.02913-0.59305-0.0087-1.1751-0.10904-1.7492-0.25479-0.50201-0.15232-0.99446-0.33796-1.4956-0.49072 0.25077-0.81197 0.45441-1.6385 0.64954-2.3325 0.0057-0.02372 0.01284-0.04893 0.01884-0.07313 0.15812 0.06006 0.31331 0.12789 0.46958 0.19195 0.56808 0.21832 1.1526 0.32678 1.7658 0.2982 0.70875-0.02673 1.4087-0.15738 2.0874-0.36333 0.74403-0.27249 1.477-0.58119 2.1006-1.0826 0.03209-0.0244 0.35564-0.27143 0.4136-0.31248 0.01937-0.01373 0.03888-0.02817 0.05885-0.04112zm7.1609 9.5065c-0.56985 0.0016-1.1382 0.02443-1.707 0.07426-0.8078 0.07562-1.5712 0.32555-2.2908 0.69009-0.10545 0.06325-0.20939 0.12927-0.31191 0.19766-0.29405-0.01161-0.58789-0.02218-0.88033-0.05712-0.41019-0.02513-0.82039-0.05225-1.2317-0.04628-0.55438-0.0494-1.1054-0.14359-1.6647-0.12282-0.48295 0.01673-0.95588 0.0931-1.4099 0.26564-0.0885 0.03689-0.17593 0.07574-0.26221 0.11654-0.0757-0.0457-0.15856-0.08375-0.24564-0.09427-0.1885-0.02279-0.3797 0.0053-0.56956 0.0079-0.47114 0.0353-0.9435 0.06047-1.4139 0.10568-0.63044 0.05534-1.2619 0.08151-1.892 0.14339-0.64546 0.06803-1.2932 0.16117-1.8801 0.45759-0.03219 0.02093-0.06333 0.04129-0.09312 0.06227-0.20048-0.27274-0.44068-0.50722-0.7615-0.65867-0.32116-0.12463-0.65696-0.19883-1.002-0.21651-0.4203-0.04962-0.84094-0.09807-1.2631-0.12796-0.75507-0.04473-1.514-0.02366-2.2697-4e-3 -0.76025 0.01308-1.5203 0.04413-2.2805 0.04171-0.93736-0.0076-1.8746-0.0015-2.8118-0.02514-0.85805-0.02138-1.7807-0.20661-2.5267 0.3222-0.14683 0.14739-0.27912 0.3031-0.38961 0.47073-0.36898-0.30859-0.82308-0.40541-1.2934-0.46787-0.93394-0.10792-1.8722-0.04964-2.8021 0.06055-0.92638 0.08081-1.8487 0.19694-2.7729 0.29763-0.56829 0.05948-1.1357 0.12746-1.695 0.24622-0.30423 0.06529-0.59208 0.17601-0.87633 0.29934-0.35428 0.18494-0.58384 0.49684-0.78835 0.82892-0.04132 0.06786-0.08376 0.13498-0.12568 0.20223-0.0113-0.03612-0.02194-0.07254-0.0337-0.10854-0.13114-0.40304-0.34368-0.69818-0.70324-0.9226-0.69878-0.2011-1.4796-0.14941-2.2085-0.17824-1.0226 0.0071-2.0452 0.0015-3.0677 0.0024-1.0418-0.01553-2.0727 0.07841-3.0946 0.27592-0.48458 0.10943-0.97301 0.20136-1.4596 0.30106-0.07384 0.01512-0.20816-0.02639-0.22051 0.04799-0.01785 0.10738 0.0024 0.21445 0.03085 0.32162-0.1948 0.02253-0.3895 0.0449-0.58441 0.06626-0.05198 0.0057-0.10399 0.01183-0.15596 0.01771-0.12226-0.12437-0.25457-0.23997-0.3976-0.34619-0.53085-0.37788-1.0995-0.69894-1.7252-0.8929-0.67734-0.21303-1.37-0.36249-2.0754-0.44902-1.2864-0.16407-2.5804-0.24668-3.8766-0.14282-1.5376 0.1142-3.0701 0.3236-4.5422 0.80206-0.46756 0.12841-0.93152 0.26355-1.3962 0.4016-0.17284 0.05135-0.46161 0.11625-0.61812 0.21023-0.12258 0.0736-0.22475 0.17658-0.33705 0.26507-0.06824 0.11735-0.14686 0.22957-0.20452 0.35247-0.13833 0.29488-0.17478 0.62651-0.1948 0.95916-0.15399-0.07073-0.31008-0.13728-0.4633-0.2028-0.68712-0.27254-1.3892-0.50268-2.0943-0.72437-0.08026-0.04854-0.16091-0.09585-0.24165-0.14053-0.28395-0.15712-0.58604-0.2784-0.87918-0.4176-1.65-0.64793-3.3927-0.81597-5.1414-0.48215-0.98624 0.18827-1.4504 0.51633-2.3194 0.9763-0.32456 0.25418-0.67462 0.47865-0.97344 0.76264-1.2519 1.1897-2.0167 2.815-2.4707 4.4582-0.1173 0.42456-0.19375 0.85913-0.29078 1.2888-0.22404 1.6554-0.19644 3.3767 0.47244 4.9381 0.47031 1.0978 0.70158 1.2624 1.4362 2.1868 1.5028 1.5278 3.4358 2.4589 5.5402 2.8198 0.38691 0.06637 0.78004 0.09109 1.17 0.13654 0.24952 0.0011 0.49873 0.0087 0.74836 0.01428 0.12192 0.01305 0.24424 0.02515 0.36676 0.03542 1.3349 0.08115 2.6425-0.16319 3.9195-0.52614 0.77385-0.22165 1.4945-0.55603 2.1383-1.0323 0.11952 0.02374 0.22633 0.04089 0.28164 0.05769 0.85714 0.17898 1.7279 0.27694 2.5987 0.36276 1.0011 0.08607 2.3992 0.34832 2.7484-0.88718 0.05984-0.3392 0.12795-0.67765 0.18452-1.0174 0.0088-0.02472 0.01735-0.04992 0.02685-0.07426 0.01634-0.12255 0.0282-0.24509 0.03885-0.3679 0.0036-0.02902 0.0064-0.05834 0.0097-0.0874 0.08753 0.35816 0.16952 0.71778 0.24564 1.0786 0.10073 0.46005 0.01452 0.90108 0.07598 1.3648 0.12367 0.26004 0.20172 0.55303 0.517 0.66724 0.44646 0.16174 0.93607 0.07149 1.3865 0 0.38966-0.07185 0.77864-0.14618 1.1711-0.20109 0.77624-0.10322 1.5517-0.2135 2.3302-0.29877 0.57353-0.0744 1.4497-0.09987 1.9686-0.34733 0.13513-0.06444 0.25348-0.15893 0.38047-0.23822 0.09093-0.15644 0.21568-0.2974 0.27306-0.46901 0.05267-0.15748 0.05148-0.31678 0.02057-0.4753 0.02229 0.01548 0.04401 0.03076 0.06742 0.04628 0.80543 0.41864 1.722 0.4697 2.6107 0.52328 1.1604 0.06951 2.3229 0.02116 3.4842 0.0079 0.883-0.0054 1.7656-0.0305 2.6473-0.07883 0.59016-0.03836 1.1794-0.07077 1.7681-0.12796 0.31824-0.01331 0.54227-0.07285 0.70837-0.18624 0.06925 0.03672 0.13931 0.0703 0.21594 0.07883 0.86856 0.09676 1.7367-0.2825 2.5387-0.55413 0.65204-0.24024 1.3048-0.47763 1.9435-0.75179 0.59484-0.21483 0.8255-0.60825 0.98544-1.198 0.13325-0.5896 0.09947-1.1961 0.09255-1.7955 2.01e-4 -0.02515-5.2e-5 -0.05024 0-0.0754 0.3132 0.02728 0.72072 0.03523 0.83748 0.03827 0.0252 0.01426 0.04677 0.02532 0.06628 0.03485 0.01738 0.16647 0.03663 0.32211 0.04056 0.36733 0.01125 0.11186 0.02351 0.22368 0.03655 0.33533 0.01462 0.57627 0.06862 1.1489 0.15481 1.719 0.05951 0.44906 0.19969 0.83364 0.49186 1.1797 0.666 0.51662 1.5603 0.29022 2.3176 0.13882 0.64026-0.13305 1.259-0.34749 1.8892-0.51757 0.31946-0.09248 0.65176-0.12756 0.95574-0.26564 0.07852-0.06448 0.17605-0.111 0.23593-0.19309 0.38646-0.5297 0.25499-1.2374 0.21365-1.8446-0.06558-1.1846-0.23024-2.3611-0.36733-3.539-0.07279-0.56003-0.14635-1.1197-0.22108-1.6795 0.39035-0.07236 0.7738-0.20186 1.1625-0.27649 0.22805-0.04072 0.45699-0.08019 0.6861-0.1154-0.06618 0.39228-0.11721 0.78702-0.16795 1.1751-0.15289 1.4378-0.17341 2.8855-0.08111 4.3274 0.04653 0.66289 0.14232 1.3202 0.32448 1.9595 0.05908 0.18527 0.12961 0.3663 0.18966 0.55128 0.15241 0.43836 0.48745 0.58699 0.86833 0.6244 0.44014 0.7668 1.4853 0.55791 2.3199 0.41817 0.75385-0.13917 1.5048-0.28626 2.2434-0.49243 0.43376-0.12463 0.82382-0.27601 1.1397-0.60212 0.05039-0.10045 0.11681-0.19451 0.15082-0.30163 0.12362-0.38936-0.01632-1.1222-0.05713-1.5299-0.11316-1.0269-0.16803-2.0588-0.27307-3.0866-0.06355-0.78229-0.15611-1.5619-0.25421-2.3405-0.02872-0.30809-0.0994-0.61326-0.10797-0.92317 0.04991-0.1443 0.09774-0.29027 0.13368-0.43988 0.0016 0.01039 0.0037 0.02087 0.0069 0.03085 0.38406 0.04607-0.02913 0.0658-0.0058 0.07255 0.25135 0.07244 1.3297 0.03533 1.5367 0.0337 0.05837 0.10498 0.10576 0.17033 0.12739 0.1611 0.17312-0.0032 0.34545-0.01453 0.51643-0.03428 0.04781 0.60286 0.13014 1.2036 0.21994 1.8012 0.12629 0.85268 0.34487 1.6868 0.58213 2.5142 0.17808 0.73012 0.5051 1.3844 0.94831 1.9863 0.5305 0.69118 1.2797 1.0619 2.084 1.3379 0.69995 0.20949 1.424 0.3193 2.1486 0.39932 0.85369 0.11939 1.7108 0.06461 2.545-0.13825 0.60622-0.16107 1.1766-0.40536 1.7172-0.72037 0.45636-0.28208 0.88011-0.60879 1.2728-0.97345 0.37544-0.34342 0.70858-0.72655 1.002-1.1408-0.02762 0.64568-0.04817 1.294 0.02685 1.9372 0.10134 0.81958 0.58736 1.0618 1.3299 1.2197 1.086 0.06377 2.16-0.12156 3.2288-0.28506 0.57749-0.0885 1.1594-0.14068 1.7384-0.21765 0.16882-0.01375 0.31226-0.04973 0.43474-0.10454 0.0078 0.0098 0.01617 0.01997 0.0246 0.0297 0.47186 0.40248 1.0811 0.23711 1.6464 0.26735 0.51746 0.02259 0.9601 0.03166 1.2922 0.02799 0.55828 0.01746 1.1063-0.02817 1.6544-0.12339 3e-3 -0.01331 0.0103-0.02156 0.0206-0.02685 0.023 0.05831 0.0487 0.11509 0.0852 0.16567 0.50097 0.69652 1.5293 0.49894 2.2616 0.50272 1.3957-0.0827 2.791-0.15068 4.1886-0.19823 1.1745-0.01699 2.3454-0.0791 3.5065-0.25993 0.38221-0.11902 0.90853-0.08192 1.2351-0.35704 0.0906-0.07625 0.16065-0.17367 0.24107-0.2605 0.0362-0.07461 0.0669-0.15056 0.0937-0.22737 0.0447-0.05244 0.085-0.11091 0.11996-0.17595 0.0606-0.11286 0.0826-0.2421 0.12397-0.36333 0.0712-0.62368-0.0111-1.2518-0.12225-1.8658-0.10535-0.5106-0.26201-1.04-0.71352-1.3556-0.1059-0.07408-0.22992-0.11769-0.34504-0.17652-0.35936-0.09538-0.72441-0.17051-1.0917-0.23479 0.59712-0.43681 0.61976-1.1019 0.59755-1.7835-0.033-0.54599-0.0692-1.0934-0.16052-1.6333-0.01-0.05361-0.0222-0.10393-0.0354-0.15253 0.32367 0.0087 0.64609 0.04697 0.96715 0.09255 0.37844 0.05486 0.78689 0.15452 1.1608-0.0097 0.31264-0.13728 0.38213-0.41947 0.49644-0.68895 0.18057-0.72689 0.15145-1.4814 0.12281-2.2234-0.0122-0.72394-0.10005-1.4422-0.20394-2.1577-0.0512-0.3596-0.11692-0.71658-0.23194-1.0614-0.20999-0.5256-0.67873-0.71524-1.1951-0.83348-1.0882-0.17785-2.1955-0.16787-3.2945-0.16453-0.92623 0.01276-1.8505 0.0739-2.7769 0.06684-0.66386-0.0041-1.3276-0.01537-1.9914-0.01543-0.4083-8.77e-4 -0.81657 0.0036-1.2248-0.0045-0.31223-0.02473-0.62553-0.03471-0.9386-0.03941-0.74894-0.02969-1.0861 0.16656-1.4053 0.84605-0.0339 0.09927-0.0629 0.19955-0.088 0.30049-0.23895-0.16793-0.48757-0.32241-0.74208-0.46673-0.4782-0.28522-0.99418-0.48181-1.5253-0.64211-0.54992-0.18479-1.119-0.29793-1.6887-0.40103-0.57722-0.06865-1.1612-0.08987-1.7424-0.0914-0.19035-4e-3 -0.38075-0.0062-0.57069-0.0058zm7.7173 1.8401c9e-3 4.3e-4 0.0175 6.94e-4 0.0263 0.0011-9e-3 0.0061-0.0189 0.0137-0.028 0.02 4.7e-4 -0.0071 9.8e-4 -0.0141 2e-3 -0.02114zm9.4368 0.21708c0.0552 0.11934-0.0119 0.41323 0.02 0.45987-7e-3 0.86984-0.0464 1.7443 0.0537 2.6101 0.0463 0.36402 0.0461 0.36527 0.064 0.47358-0.0899 0.0113-0.16724 0.0265-0.27536-0.03485-0.92154-0.07979-1.8459-0.12801-2.7701-0.16338-0.69855-0.0079-1.7109-0.17215-2.1617 0.521-0.0518 0.07966-0.0665 0.1778-0.0999 0.26678-0.10413 0.43233-0.1626 0.87233-0.0943 1.3168 0.088 0.25422 0.1223 0.51761 0.41589 0.6444 0.36079 0.1558 0.84395 0.04689 1.2259 0.05999 0.4539-0.02121 0.93589-0.0091 1.3716-0.13025 2e-3 -0.0017 3e-3 -0.0025 6e-3 -4e-3 0.0306-8.6e-4 0.0614-0.0024 0.0919-0.0034 0.10369 0.13994 0.0222 0.88666 0.0635 0.96716 7e-3 0.09139 9e-3 0.19292 0.0142 0.28106-0.52576-0.07916-1.0492-0.17936-1.583-0.18509-0.93676 0.0085-1.5227 4.12e-4 -1.8504 1.0032-0.16701 0.59699-0.3017 1.2183-0.21594 1.8401 0.0507 0.13788 0.0734 0.2892 0.15139 0.4136 0.35986 0.5736 1.0962 0.53999 1.6824 0.60155 1.1037 0.0323 2.2178 0.09163 3.3105-0.07998 0.26279-0.01941 0.40852-0.05525 0.497-0.0337 0.0132 0.094 0.0247 0.17157 0.0314 0.16282 0.0604 0.41539 0.1079 0.84118 0.20452 1.2494-0.13302 0.06898-0.27541 0.14592-0.21994 0.05598-0.22722 0.05413-0.45099 0.08-0.68552 0.06112-0.51348 2.16e-4 -1.0274 7.07e-4 -1.5402 0.03256-0.85765 0.05187-1.713 0.13299-2.5707 0.18395-0.83295 0.0491-1.6694 0.06347-2.5033 0.03943-0.51457-0.03049-1.0525-0.03978-1.5516-0.18224 0.0722-0.5528 0.14672-1.1057 0.15139-1.6635 0.12245-1.8923 0.25412-3.7838 0.34619-5.6779 0.0607-0.06887 0.0801-0.12593 0.25194-0.42674 0.0384-0.14996 0.0901-0.29753 0.11596-0.45016 0.14506-0.85315 0.0343-1.7395-0.0143-2.5947-0.0442-0.3445-0.0819-0.72868-0.17653-1.0837 0.53303 0.04342 1.0699 0.0399 1.6041 0.04684 1.2749-0.01904 2.5483-0.09224 3.8201-0.18166 0.74646-0.06663 1.5201-0.07365 2.2605-0.19195 0.0672-0.01072 0.0811-0.1525 0.13711-0.1948 0.0245-1.73e-4 0.0492-2.96e-4 0.0737-5.7e-4h5.7e-4c0.0294 0.0159 0.0657 0.04846 0.11197 0.10511 0.0407-0.01626 0.0875-0.02171 0.12225-0.04855 0.0155-0.01204 0.0229-0.03845 0.0303-0.06284 0.0277-9.04e-4 0.0556-0.0011 0.0835-0.0024zm-16.605 0.10797c0.37168-0.0017 0.74312 0.01194 1.1134 0.04513 1.0416 0.13054 2.0811 0.29605 2.99 0.8609 0.97763 0.64956 1.4518 1.0912 1.5836 2.3165-9e-3 0.14348 4e-3 0.29034-0.0274 0.43074-0.1652 0.74817-0.79058 1.3598-1.3796 1.7944-0.57438 0.34186-1.386 0.45696-1.1277 1.3488 0.34932 0.79286 0.81385 1.5311 1.2397 2.2834 0.4153 0.67029 0.84037 1.3309 1.2848 1.9823 0.049 0.07176 0.23975 0.36078 0.39818 0.57527 2e-3 0.07107 5e-3 0.14205 8e-3 0.21308-0.3468 0.03908-0.69434 0.07106-1.0414 0.10797-0.61871 0.07019-1.2031 0.14487-1.7755 0.2525-0.03783-8.78e-4 -0.08085 0.01583-0.11368-0.0028-0.32102-0.18304-0.63192-1.3132-0.79921-1.6321-0.36951-0.96221-0.71103-1.9431-1.2031-2.8512-0.37841-0.0028-0.76334-0.0786-1.1351-0.0079-0.08467 0.01608-0.07144 0.15739-0.09202 0.24107-0.11982 0.48631 0.0039 1.025-0.04969 1.5156 0.01999 0.59935 0.03675 1.1984 0.07027 1.7972 2e-3 0.04434 0.03038 0.57816 0.05831 0.75522-0.33736-0.04147-0.68641-0.02238-1.022-0.06741-0.57802-0.02427-1.1555-0.03906-1.7338-0.01313-0.01542 8.24e-4 -0.57421 0.03243-0.68267 0.04855-0.0086-0.65309 0.09188-1.3105 0.0754-1.9629 0.05129-1.8875 0.04101-3.7768-0.01371-5.6641-0.04566-0.81663-0.07846-1.6354-0.15253-2.4502-0.0098-0.10765-0.02713-0.29256-0.05026-0.48044 0.139-0.08866 0.17799-0.31936 0.22394-0.45245 0.10856-0.28993 0.17291-0.5754 0.50443-0.66439 0.5712-0.13598 1.1562-0.18514 1.7361-0.2725 0.37037-0.02839 0.7423-0.0452 1.114-0.04683zm-6.0852 0.41246c0.0049 9.04e-4 0.01366 0.0078 0.02799 0.02285 0.11853 0.12383 0.04263 0.54696 0.12225 0.68096 0.17557 1.2463 0.22508 2.5046 0.1074 3.7601-0.16988 1.6551-0.55737 3.1347-1.4727 4.5485-0.87335 1.2662-1.7705 2.3579-3.3494 2.689-0.30327 0.16198-0.21138 0.15152-0.73465 0.06913-0.8982-0.14143-1.5259-0.76304-1.9909-1.5047-0.12518-0.25022-0.26922-0.49176-0.37532-0.75065-0.6515-1.5897-0.88174-3.3656-1.0883-5.0563-0.09853-1.0658-0.14003-2.1475-0.2862-3.21 0.73524-0.07088 1.4731-0.13263 2.1948-0.2982 0.05602-0.01084 0.11194-0.02171 0.16795-0.03256-0.08817 0.53773-0.14889 1.0795-0.14739 1.6264 0.01518 1.0197 0.03981 2.5864 0.64782 3.4533 0.13585 0.1937 0.3287 0.34049 0.49301 0.51072 0.29598 6e-3 0.59626 0.06939 0.88775 0.01771 0.70324-0.12469 1.1853-1.4928 1.3648-2.0549 0.29465-1.1282 0.43533-2.277 0.4216-3.4448-0.0031-0.19506 0.05127-0.22014-0.032-0.2268 0.26964-0.02023 0.53721-0.06746 0.80549-0.09826 0.62663-0.10233 1.2376-0.2378 1.8561-0.37818 0.11046-0.02506 0.23196-0.01399 0.33362-0.06398 0.03334-0.0164-0.06536-0.0347-0.09826-0.05199 0.0403-0.01811 0.08841-0.02397 0.12054-0.05427 0.05188-0.04894 0.0031-0.15702 0.02399-0.1531zm-12.001 0.13482c0.0375 0.09506 0.05773 0.20467 0.06913 0.32163-0.05838-0.0023-0.1336-0.01722-0.15767-0.07369-0.01462-0.03429 0.08599-5e-3 0.10568-0.03656 0.01763-0.02838-0.05117-0.19633-0.01714-0.21137zm-9.7927 0.10168c0.08585 4e-3 0.18445 0.0075 0.21251 4e-3 0.46356 0.02176 0.91318 0.11784 1.3688 0.20508 1.0247 0.20236 2.0481 0.43046 3.0946 0.48787 1.6841 0.05414 3.2092 0.04517 4.8489-0.40103 0.1748-0.03992 0.27665-0.05949 0.33762-0.0697 0.03798 0.40253-0.03357 0.8969 0.0737 1.2385 0.04886 0.37155 0.09257 0.74678 0.16224 1.1157-0.06379 0.0061-0.12008 0.01297-0.13653 0.01371-0.38233 0.01708-0.76562 0.01897-1.1477 0.04285-0.51122 0.02919-1.0277 0.15308-1.5504 0.06284-0.2558 0.0897-0.54275 0.1171-0.76722 0.26907-0.20115 0.13618-0.1065 0.70514-0.15596 0.90604-0.05069 0.87772-8.92e-4 1.7568 5.71e-4 2.6353 0.04484 1.5472 0.0763 3.1011 0.28106 4.637 0.05415 0.42161 0.1023 0.84324 0.19595 1.2579-0.47209 0.05635-0.94344 0.11739-1.4139 0.18624-0.4199 0.05849-0.84297 0.08963-1.2648 0.13082-8.71e-4 -0.0967-0.0025-0.19345-0.0069-0.29021-0.03759-0.80729-0.11604-1.6116-0.19937-2.4153-0.11144-0.93175-0.23755-1.8628-0.2445-2.8032-0.02351-0.78135 0.0034-1.5676-0.09483-2.3439-0.0636-0.13835-0.10719-0.26569-0.1651-0.37647-6.96e-4 -0.16278-0.0031-0.32529-0.01084-0.48786-0.06591-0.31996-0.0569-0.56868-0.43874-0.74494-0.24742-0.1142-0.71052 0.0055-0.99458 0.01885-0.75594 0.11189-1.4963 0.30659-2.2148 0.56727-0.01612 0.0058-0.13197 0.04648-0.22851 0.08055-0.03477-0.20762-0.06814-0.41531-0.10054-0.62326 0.04825-0.38502 0.08818-0.77097 0.11197-1.1585 0.03589-0.69561 0.06453-1.4041-0.01542-2.0988 0.04333-0.0038 0.09136-0.01039 0.14624-0.02 0.11824-0.0144 0.1423-0.01972 0.26164-0.02514 0.01216-5.61e-4 0.03488-9e-4 0.05484-0.0011zm-3.1317 0.08454c0.01633 0.05406 0.03017 0.1084 0.04171 0.16338-0.01827-0.02169-0.03223-0.06694-0.04171-0.16338zm18.34 0.08113c-0.0033 0.01729-0.0064 0.03468-0.0097 0.05198-8.17e-4 -0.01797 0.0016-0.03567 0.0097-0.05198zm-5.2751 0.05026c0.0078-3.83e-4 -0.0041 0.0014-0.02227 0.0028 0.0067-8.07e-4 0.01967-0.0027 0.02227-0.0028zm-23.64 0.03885c6.84e-4 -0.0046 0.01581 0.01928 0.03313 0.0657-0.02289-0.03876-0.03366-0.06211-0.03313-0.0657zm-18.877 0.04171c1.1993-0.0049 2.4019 0.07544 3.5819 0.28278 0.8933 0.20534 2.6116 0.58756 3.2157 1.3556 0.07916 0.10063 0.10941 0.2315 0.16396 0.34733 0.01123 0.12922 0.04652 0.25882 0.0337 0.38789-0.10136 1.0211-1.343 1.6973-2.0686 2.2428-0.32507 0.19537-0.73685 0.45932-1.0923 0.61754-0.11279 0.05021-0.25117 0.04529-0.35076 0.11825-0.03054 0.02237 0.10128 0.04464 0.08283 0.07769-0.04306 0.07715-0.1929 0.02557-0.25022 0.08798-0.31383 0.17095-0.64157 0.31862-0.94145 0.513-0.07162 0.04643 0.0061 0.17188 0.02857 0.25422 0.11903 0.43554 0.27307 0.86216 0.42102 1.2882 0.70929 1.8247 1.5844 3.5936 2.7889 5.1472 0.034 0.04096 0.42311 0.52451 0.73522 0.86376-0.5255 0.04296-1.0495 0.10142-1.5659 0.2108-0.41563 0.09723-0.81348 0.22116-1.2219 0.34219-0.08165 0.02419-0.1918-5.27e-4 -0.24736 0.06398-0.03589 0.04168 0.10693 0.02423 0.16052 0.03655-0.03105 0.02241-0.06207 0.04501-0.09311 0.06741-0.03609-0.0051-0.08117 0.0093-0.10797-0.01543-0.14157-0.13048-0.33307-0.56491-0.38732-0.68495-0.33826-0.74836-0.6156-1.5234-0.96031-2.2691-0.30419-0.69156-0.61035-1.3838-0.93517-2.0669-0.0904-0.24772-0.18489-0.49401-0.2845-0.73808-0.10681-0.21306-0.20676-0.38549-0.33819-0.50443-0.20209-0.37906-0.41393-0.75331-0.63925-1.1197-0.1518-0.15934-0.23532-0.48438-0.4553-0.47815-0.95396 0.02703-0.90283 0.61714-0.88318 1.1951 0.02068 0.6082 0.03431 0.6862 0.08399 1.3311 0.07461 0.6715 0.1572 1.342 0.24336 2.012-0.01981 0.6183-0.02355 1.2373-0.0257 1.8555-0.0029 0.12072-0.0049 0.24145-0.0074 0.36218-0.13024-0.01856-0.27185-0.03885-0.28792-0.04113-0.88456-0.10758-1.7713-0.21873-2.6627-0.24564 0.0061-0.37303-0.06418-0.75122-0.12225-1.1197-0.04429-0.28185-0.09051-0.56303-0.13996-0.84376 0.15414-1.8777 0.18328-3.7606 0.18166-5.6453-0.0063-1.1466 0.03994-2.3294-0.14739-3.4682 0.47196-0.20704 0.60333-0.09704 0.62783-0.75865-1.17e-4 -0.05223 0.0066-0.149 0.0028-0.21423 0.22858-0.10376 0.44314-0.23975 0.6781-0.32962 0.75054-0.32068 1.5397-0.46907 2.3565-0.50157 0.27607-0.0097 0.55272-0.01546 0.82949-0.01657zm29.522 0.11825c0.04825 0.34307 0.03738 0.69722 0.09712 1.0374 0.14795 1.2706 0.3196 2.5378 0.50843 3.8029 0.25177 1.6376 0.48031 3.2802 0.79692 4.9066 0.06743 0.38935 0.13558 0.77876 0.20223 1.1682 0.04308 0.25173 0.06055 0.57662 0.13596 0.85005-0.10395 0.02417-0.20728 0.04629-0.30849 0.05256-0.08876 0.01938-0.17789 0.03774-0.26678 0.05656-0.5403 0.04569-1.0779 0.12413-1.6076 0.24165-0.23265 0.05042-0.46311 0.10753-0.6941 0.16338 2.6e-5 -0.02488 0.0034-0.04394 0.01083-0.0537-0.04131-0.59696-0.06113-1.1947-0.08169-1.7926-0.07707-0.8312-0.26147-1.7209-1.1917-1.9555-0.20372-0.03599-0.4049-0.05428-0.60669-0.06456-0.10829-0.02061-0.21725-0.03808-0.32734-0.05084-0.46141-0.08063-1.1502-0.25728-1.5224 0.11482-0.07202 0.07199-0.10503 0.17448-0.15767 0.26164-0.01112 0.04266-0.02075 0.08548-0.03028 0.12854-0.1987 0.29255-0.15164 0.72286-0.19595 1.0506-0.02916 0.5215-0.05924 1.0446-0.05027 1.567-0.0014 0.02795-0.0041 0.05548-0.0045 0.08341-0.09267 0.03504-0.18648 0.06673-0.28164 0.09427 5.51e-4 -0.0012 1.97e-4 -0.0019 0.0011-0.0034-0.06344 0.01652-0.12683 0.03362-0.19023 0.05027-0.60381 0.11734-1.2268 0.05691-1.8292 0.19994-0.40277 0.06666-0.32732 0.05714-0.72094 0.1114-0.08402 0.01157-0.16917 0.01651-0.25422 0.02342 0.0094-0.2715 0.01613-0.54299 0.02627-0.81463 0.0029-0.06832 0.0061-0.13682 0.0097-0.20509 0.07014-0.52808 0.14592-1.0552 0.23536-1.5807 0.27393-1.7745 0.53142-3.5526 0.72894-5.3374 0.10201-1.266 0.07182-0.73137 0.12054-1.9457 0.02133-0.53167 0.07531-1.0992 0.03655-1.6401 0.03912 0.05222 0.09241 0.07703 0.19937 0.07427 0.37355 0.02386 0.36305 0.04291 0.92603 0.05598 0.87804 0.04444 1.7579 0.07042 2.6347-0.01829 1.0566-0.09639 2.1119-0.23285 3.1454-0.47872 0.40842-0.11276 0.33031-0.0897 0.50614-0.15367zm-11.965 0.21708c0.0054 0.06759 0.0062 0.13304 0.01084 0.18109 0.04194 0.43494 0.08232 0.87078 0.18566 1.2968 0.05695 0.23636 0.1665 0.76732 0.2942 1.1163-0.01351-1.67e-4 -0.02705-3.66e-4 -0.04056-5.7e-4 -0.41397-0.0061-0.82797-0.01797-1.2419-0.02399-0.89747-0.0033-1.797-7e-3 -2.6924 0.05484-0.11631 0.04802-0.24621 0.07145-0.34904 0.14396-0.29802 0.21012-0.36906 0.56308-0.46502 0.88661-0.08343 0.34274-0.2804 0.84316-0.13196 1.1882 0.06113 0.14212 0.18286 0.2499 0.27421 0.37475 0.1916 0.04196 0.38102 0.0953 0.5747 0.12625 0.46569 0.07444 0.96405-0.10838 1.4282-0.09883 0.05784-8e-3 0.22652-0.02765 0.40846-0.05027 0.23706 0.01083 0.47419 0.02116 0.71123 0.03142-1.1e-5 0.18756-0.0043 0.37461-5.7e-4 0.44216 0.0051 0.09149 0.01246 0.1828 0.01885 0.27421-0.6159-0.13046-1.2464-0.19342-1.8743-0.22051-0.23037 0.02908-0.4696 0.01818-0.69124 0.0874-0.51447 0.16068-0.59151 0.7703-0.66896 1.2117-0.10988 0.76398-0.20923 1.583 0.19994 2.2759 0.09998 0.08568 0.17733 0.20902 0.29992 0.25707 0.63652 0.24948 1.3713 0.01845 2.0172-0.02627 0.83308-0.10763 1.664-0.21711 2.4999-0.28735 0.16159-0.02803 0.29947-0.09447 0.30449-0.08226 0.11578 0.28118 0.0018 0.63652 0.08626 0.92203 0.02354 0.24449 0.04932 0.48811 0.07712 0.7318 0.04189 0.5808 0.09376 1.1607 0.16338 1.7389-0.01505-2e-3 -0.03017-0.0031-0.04513-0.0058-0.16787-0.02886-0.33488-0.06438-0.50215-0.09654-0.20869-0.03554-0.41742-0.07129-0.62611-0.10683-1.8104-0.28881-3.6287-0.60697-5.4699-0.54728-0.93161 0.03494-1.8852 0.04145-2.7815 0.28735-0.01738 0.03509-0.01957 0.11913-0.05542 0.10341-0.11764-0.05162-0.06168-0.91961-0.06913-1.0077 0.06134-1.8672 0.19784-3.7314 0.24907-5.599 0.02441-0.74105 0.05484-1.4862 0.06398-2.2314 0.09766-0.17869 0.17992-0.36811 0.24165-0.57241 0.1617-0.73203 0.12574-1.3589-0.18966-2.0446 0.72709 0.01125 1.4545 0.01666 2.1811-0.01543 1.3702-0.08225 2.7436-0.19304 4.0869-0.49015 0.32382-0.06706 0.64702-0.13617 0.97116-0.20166 0.1824-0.0064 0.36444-0.01437 0.5467-0.02342zm-31.177 0.21594c0.12136 0.01568 0.24235 0.03194 0.36276 0.04628 0.89202 0.18703 1.781 0.39079 2.6553 0.65011 0.49473 0.15565 0.9915 0.30494 1.4876 0.45587 0.34381 0.23927 0.66918 0.50673 1.0437 0.69638 0.01976 0.02428 0.17359-0.07808 0.34334-0.20908 0.01452 6.49e-4 0.02894 0.0012 0.04341 0.0017-0.01246 0.0253-0.0253 0.05034-0.03713 0.07598-0.42196 0.84174-0.85434 1.6776-1.2831 2.5159-0.35163 0.65706-0.70347 1.3145-1.0666 1.9652-0.40056-0.26684-0.75216-0.5938-1.1351-0.88604-0.17749-0.11642-0.52209-0.36633-0.73694-0.4056-0.95907-0.1753-1.5057 0.1463-2.0806 0.87404-0.52865 0.93565-1.0365 2.1109-0.6701 3.2043 0.07149 0.21333 0.20901 0.39836 0.31363 0.59755 0.16526 0.14223 0.29577 0.34013 0.49586 0.42674 1.3034 0.56416 2.7194-0.07106 3.9126-0.57813 0.66385-0.33939 1.3112-0.69116 1.9509-1.074 0.15088-0.0903 0.29999-0.18351 0.4513-0.27307 0.09479-0.05611 0.22551-0.07574 0.30163-0.14967 0.07176 0.3508 0.07613 0.83322 0.16738 1.0409 0.19175 0.93785 0.40606 1.8702 0.64496 2.7969 0.048 0.5624-0.88789 1.0113-1.2591 1.2705-1.3542 0.69968-2.799 1.1385-4.3405 1.0751-0.33108-0.03192-0.6646-0.04602-0.99344-0.09598-0.14814-0.02251-0.29437-0.04872-0.43988-0.07655-0.38003-0.12094-0.7522-0.26675-1.1134-0.43874-0.96985-0.51718-1.8677-1.1268-2.5347-2.0189-0.56762-0.69435-1.1334-1.3949-1.4025-2.2674-0.24684-0.78417-0.42548-1.5998-0.45016-2.4239 0.01039-0.68748 0.05225-1.3798 0.2228-2.0486 0.19681-0.7273 0.43964-1.4443 0.8312-2.0931 0.32338-0.54309 0.64868-1.1015 1.0911-1.5516 0.11484-0.07801 0.23111-0.15464 0.34276-0.2365 1.1258-0.5354 0.65151-0.37197 1.8823-0.69981 0.19145-0.051 0.3803-0.12316 0.57755-0.14167 0.1402-0.01317 0.28069-0.02112 0.42103-0.02514zm74.558 0.12853c-0.0149-8.6e-5 -0.02381 0.0024-0.02568 0.0079-0.46523 0.4985-0.5669 1.2666-0.62269 1.9218-0.01999 0.60419 0.06978 1.281 0.6204 1.647 0.11841 0.07871 0.25937 0.11704 0.38904 0.17538 0.26725 6e-3 0.53588 0.04784 0.8015 0.01771 0.56265-0.06386 1.1985-0.61626 1.4676-1.0906 0.07458-0.13159 0.1201-0.27808 0.17995-0.41703 0.19499-0.99117-0.18235-1.5766-1.0448-2.0212-0.36867-0.16288-0.62664-0.02573-0.93175 0.17824-0.0059-0.04099-0.01627-0.08184-0.02225-0.12282 0.01842-0.05366-0.66724-0.29566-0.81121-0.29649zm-59.678 0.46502c-0.33035 0.0033-0.65926 0.08799-0.95745 0.23936-0.03772 0.04875-0.05707 0.09959-0.06456 0.15196-0.59921 0.04034-0.83683 0.40942-0.92946 1.1225 0.03357 0.47915 0.20445 0.80586 0.48787 1.018 0.03082 0.11419 0.06542 0.22644 0.13653 0.3182 0.55778 0.71953 1.6163 0.44396 2.1663-0.11368 0.09618-0.09751 0.16806-0.21619 0.25193-0.32448 0.05207-0.12444 0.13704-0.24006 0.15596-0.37361 0.02338-0.16508 0.01051-0.33304-0.03256-0.49301 0.0029-0.0066 0.0062-0.01295 0.0092-0.01942 0.20681-0.65655 0.01644-1.062-0.55299-1.4139-0.21782-0.07814-0.44464-0.11421-0.67067-0.11197zm60.506 0.12339c0.02881 0.19965 0.04077 0.37292 0.26449 0.48387 0.27933 0.18023 0.52603 0.37474 0.49186 0.74322-0.10479 0.22398-0.22441 0.3893-0.42902 0.537-0.06899 0.04976-0.14312 0.09318-0.21936 0.13082-0.06272 0.03095-0.19658 0.0043-0.19594 0.07426 5.78e-4 0.07094 0.13177 0.05256 0.19766 0.07884-0.44069 0.18901-0.24508-0.34938-0.24851-0.60669 0.03195-0.34185 0.05302-0.6842 0.09143-1.0254 4.31e-4 -0.0034 0.03097-0.26253 0.04743-0.41589zm-35.583 1.7487c-0.16574 0.0033-0.33132 0.03926-0.48901 0.11368-0.07431-0.07427-0.13242-0.12215-0.14625-0.11026-0.58478 0.39234-0.85235 0.85926-0.93002 1.555 0.03529 0.56674 0.358 1.1791 0.9763 1.2859 0.20468 0.03538 0.4146 0.01826 0.62211 0.02743 0.62531-0.10626 1.0647-0.43441 1.3476-0.99115 0.19675-0.54466 0.04168-1.0458-0.32734-1.4682-0.28902-0.25596-0.67145-0.41999-1.0534-0.41246zm13.926 0.04228c-0.0028 0.01201-0.0043 0.02479-0.0058 0.03771-5.4e-5 -0.0014-5.25e-4 -0.0026-5.72e-4 -4e-3 -2.95e-4 -0.01147 0.0089-0.04487 0.0063-0.0337zm38.52 0.11254c0.122 0.0036 0.0749 0.05355-0.13825 0.01083 0.0581-0.0086 0.10513-0.01184 0.13825-0.01083zm-64.072 0.6364c2.3e-5 2.14e-4 -2.4e-5 8.93e-4 0 0.0011l-5.74e-4 -5.7e-4 5.74e-4 -5.7e-4zm26.144 0.89347c2.51e-4 0.0024 2.55e-4 0.0046 5.71e-4 0.0069-0.0029 0.01006-0.0029 0.0086-5.71e-4 -0.0069zm8.2229 0.16396c-0.02909 0.03775-0.0595 0.06707-0.09026 0.08568-0.01682 0.01017-0.03352-0.05101-0.01486-0.05713 0.03456-0.01137 0.06971-0.02044 0.10512-0.02857zm-30.187 0.74151c0.23257-0.0035 0.47922 0.01821 0.72094 0.01942-2.95e-4 0.21384 0.0028 0.42753 0.0058 0.63982 0.0041 0.50399 0.01165 1.0077 0.01713 1.5116-0.28001-0.1651-0.61372-0.22793-0.9683-0.25307 0.10816-0.20626 0.17543-0.47314 0.21423-0.80892 0.01115-0.37012-0.01726-0.73948-0.06512-1.1066 0.02503-0.0011 0.05002-0.0019 0.0754-0.0024zm-11.389 0.17138c-4.8e-4 0.0545-2.66e-4 0.10889-0.0011 0.16339-0.08404 1.3009-0.03335 2.6036 0.07883 3.9006 0.05822 0.65905 0.14718 1.3146 0.25022 1.968-0.42948-0.83587-0.89111-1.6547-1.3739-2.4622-0.51562-0.87432-1.0321-1.7525-1.623-2.5787 0.50943-0.16616 1.017-0.33768 1.5247-0.509 0.38905-0.14056 0.77402-0.29736 1.1443-0.48215zm-19.635 0.75751c0.04989-0.0011 0.10981 0.0087 0.08798 0.03428-0.04509 0.05291-0.17206-0.01028-0.20166 0.05256-0.01095 0.02322 0.01271 0.03123 0.04513 0.036-0.09795 0.04851-0.19862 0.10205-0.29763 0.16224 0.08337-0.11703 0.17402-0.24618 0.32277-0.2805 0.01095-0.0025 0.02678-0.0042 0.04341-0.0045zm85.426 0.91632c7e-3 -7.73e-4 -3e-3 0.03975-0.0161 0.08912-2e-3 1.31e-4 -3e-3 4.32e-4 -6e-3 5.7e-4 9.8e-4 -0.02703 9.8e-4 -0.05951 0.0121-0.07712 5e-3 -8e-3 8e-3 -0.01235 0.01-0.01257zm-57.988 0.09654c0.01006 2.2e-5 8.8e-5 0.09313 0.0079 0.13711 0.0016 0.0085 0.0087 0.01754 0.01657 0.02627-0.02761 0.0043-0.05524 0.0087-0.08283 0.01314 0.0035-0.01505 0.0069-0.03007 0.01028-0.04513 0.02885-0.09758 0.04193-0.13141 0.04799-0.13139zm-22.576 0.58098c0.0048-7.62e-4 0.01194 0.0036 0.02172 0.01428 0.04907 0.05337 0.08442 0.13833 0.11197 0.23936-0.03973-0.01148-0.088-0.0205-0.11597-0.03542-0.01746-0.11443-0.03844-0.21492-0.01771-0.21822zm64.45 2.9369c0.02623 0.0062 0.06374 0.01278 0.08226 0.01884-0.02572 0.0114-0.05618 0.01627-0.08168 0.02799-3.86e-4 -0.0156-3.19e-4 -0.03124-5.74e-4 -0.04685zm3.4585 0.07083c0.0049 0.0041 0.0098 0.0086 0.0149 0.01257-0.0098 9.4e-5 -0.01499-0.0036-0.0149-0.01257z" style="paint-order:stroke fill markers"/>
  <path d="m30.357 5.7075c-3.2471 3.3153-4.7423 7.7979-7.5059 11.445-0.4581 0.74655-2.1138 1.2908-2.3272 0.10861-0.74912-2.3798 0.11648-4.9085 0.52725-7.2837 0.27891-1.2757 0.6786-2.5315 0.87742-3.8226-0.51824-0.6906-1.5533 0.32682-2.2427 0.33824-2.5612 0.97849-5.267 1.7079-7.774 2.7312-0.25424 7.7508 0.9345 15.502 3.2646 22.892 0.85049 2.4214 1.343 5.0547 2.7152 7.2458 1.5059 0.58516 3.2509 0.07323 4.8242-0.04348 1.5246-0.32159 3.258-0.37587 4.5589-1.2999 0.19936-1.0179-1.1053-1.6897-1.5741-2.4587-2.2466-2.5805-4.709-5.0872-6.3281-8.1042 0.30796-0.52799 1.1515-0.68383 1.5421-0.06172 4.0914 3.0873 8.0952 6.3653 12.564 8.8937 2.11 0.67684 4.2014-0.67302 6.2214-1.1173 2.6797-0.90336 5.4838-1.3982 8.1267-2.383 0.31941-0.86697-1.1694-0.65397-1.6808-0.90091-4.932-1.327-9.8655-2.8759-14.551-4.947-0.98935-0.40336-2.1381-1.459-1.3213-2.5801 1.7102-2.7579 4.4817-4.6579 6.8432-6.8059 1.1709-1.0444 2.5536-1.9093 3.5622-3.109-0.30713-1.1144-1.5396-1.771-2.2757-2.6254-2.4583-2.1682-4.8424-4.4909-7.6732-6.1753-0.1173 0.047371-0.29134-0.11268-0.37311 0.064523z" fill="#91121d" style="paint-order:stroke fill markers"/>
  <g fill="#f7e26b">
   <path d="m45.495 17.197c-0.80267 0.43162-0.29083 1.6866-0.46324 2.4154 0.02822 3.2157-0.23649 6.4504-0.42725 9.6407 1.512 1.1653 3.5876 1.3033 5.2732 2.1777 0.65337 0.29394 1.5969 0.79054 1.5706 1.5843-0.95693 1.0802-2.6768 0.96759-3.6974 1.8668 0.51242 0.93277 1.7637 1.4112 2.6034 2.116 0.47935 0.27876 1.4565 1.1579 1.7614 0.22042 2.13-4.6438 4.5577-9.1512 6.5994-13.834 0.4484-0.92687 0.71987-2.5241-0.62639-2.8226-4.1983-1.1251-8.4811-2.0129-12.594-3.3652z" style="paint-order:stroke fill markers"/>
   <path d="m47.282 2.5383c-1.5604-0.08632-3.0024 1.0537-3.1428 2.6378-0.41287 2.0982 0.13907 5.0125 2.5344 5.6055 2.2569 0.46511 5.1468-0.39559 6.1469-2.623 0.8357-2.3694-1.479-4.3172-3.4005-5.2083-0.67181-0.28907-1.4066-0.43344-2.1381-0.41198zm2.0932 1.4363c0.26505 0.18331 0.6193 1.1779 0.22242 1.1971-0.23038-0.19593-1.3806-0.87939-0.54223-1.0873 0.10398-0.038525 0.20624-0.10246 0.31981-0.10981zm-2.8755 1.0416c0.50296 0.33429 1.1677 1.4596 0.40958 1.8106-0.7179-0.051685-0.91484-0.95625-1.2484-1.4816 0.26961-0.12366 0.54162-0.28757 0.8388-0.32903zm5.1558 0.93618c0.81964 0.71233 0.62434 2.0589-0.25689 2.6755-1.1661 1.0999-3.2868 2.088-4.6949 0.88809-0.44311-0.3808-0.93842-1.3185-0.063318-1.5353 1.5913-0.81173 3.2792-1.613 5.0151-2.0283z" style="paint-order:stroke fill markers"/>
   <path d="m51.369 6.5423c-1.5599 0.50124-3.1295 1.0544-4.5963 1.7814-0.30496 0.97222 1.1051 1.3275 1.8447 1.1298 1.3731-0.14956 3.2138-1.0602 3.1468-2.6362-0.05063-0.16323-0.21793-0.30549-0.39515-0.27492z" style="paint-order:stroke fill markers"/>
   <path d="m20.685 43.699c-1.7758 0.1405-3.5601 1.0107-4.2876 2.7292-2.0597 3.4183-1.0954 8.2873 2.2818 10.49 2.4024 1.9526 5.8616 1.5382 8.4104 0.12744 0.81744-0.47814 1.5834-1.2395 1.0062-2.2368-0.42594-0.9461-0.12108-2.6621-1.0434-3.1194-1.9277 0.82607-3.9162 2.5308-6.1401 2.0238-1.4826-0.89267-0.95051-2.9126-0.01402-4 0.88864-1.2523 2.2994-0.28686 3.1797 0.39555 1.1322 0.1064 1.279-1.5417 1.8218-2.2207 0.20358-0.84754 1.8062-2.2452 0.30492-2.6418-1.723-0.78319-3.6299-1.385-5.5196-1.5473z" style="paint-order:stroke fill markers"/>
   <path d="m33.627 43.192c-1.0701 0.07781-2.5819 0.13936-3.1636 1.171-0.9444 1.3693-0.44986 3.2154-0.61884 4.7851 0.06422 2.282-0.17217 4.6293 0.18161 6.8755 0.83448 0.72003 2.2032 0.79035 3.2285 0.5294 0.59688-0.98723 0.05764-2.3092 0.08948-3.4099 0.02709-0.9524-0.49368-2.1335 0.02995-2.9863 0.80845-0.13164 1.0078 1.1123 1.3959 1.5894 1.0619 1.9883 1.7474 4.2022 2.8546 6.1281 1.0365-0.3299 2.119-0.48693 3.1708-0.70614 0.16617-0.89773-0.94709-1.6431-1.2692-2.4683-0.89636-1.6343-2.0151-3.311-2.2415-5.1682 1.5346-1.0966 3.7786-1.8043 4.4276-3.758-0.0784-1.736-2.223-2.0692-3.5872-2.318-1.4874-0.21822-2.9967-0.26751-4.4982-0.2637zm2.2399 1.6067c1.7437 0.14701 0.8571 3.0108-0.67649 2.6775-0.98574-0.29673-1.584-2.1061-0.28935-2.4727 0.3019-0.13586 0.63351-0.21599 0.96584-0.20479z" style="paint-order:stroke fill markers"/>
  </g>
  <g fill="#44891a">
   <path d="m51.478 43.473c-2.4051 0.58905-4.9008 0.53289-7.3175 0.90572-0.10615 3.7596-0.40389 7.5651-0.51097 11.347 0.60899 0.61739 1.6739-0.02926 2.4627 0.0577 2.3968-0.17548 4.7866 0.38642 7.128 0.67408 0.78089-0.60565 0.14913-1.8502 0.22606-2.6912 0.12168-0.72303-0.33562-1.3523-1.1109-1.0226-1.3182 0.01188-2.7298 0.45869-4.0072 0.14187-0.32942-0.96082-0.49476-2.3427 0.26851-3.1312 0.84259-0.2615 2.129 0.51159 2.728-0.33905-0.02495-1.0012-1.475-0.59413-2.1184-0.70196-0.48478-0.04014-1.5184 0.22641-1.2957-0.63298-0.03213-0.86588 0.50249-1.6462 1.4431-1.5137 1.0516-0.26555 2.1816 0.14163 3.2141-0.11582 0.36196-0.72028-0.31123-1.6179-0.21914-2.4256 0.02755-0.56391-0.33447-0.79508-0.89056-0.55211z" style="paint-order:stroke fill markers"/>
   <path d="m62.728 43.533c-2.063 0.45212-4.286 0.15043-6.3493 0.44124 0.01984 3.8328-0.90924 7.6183-1.0885 11.451 0.54784 0.66108 1.7059-0.06366 2.4986 0.05451 0.72041 0.14625 1.3457-0.36928 1.1649-1.1325 0.07745-0.73824-0.02589-1.8839 0.6752-2.3068 1.1026-0.0336 2.7627 0.07843 2.8651 1.5153 0.39826 0.70961-0.18443 1.9139 0.51057 2.3376 0.85214-0.28258 2.2387 0.07888 2.8021-0.73901-0.25051-3.9162-1.191-7.7505-1.5662-11.659-0.25244-0.58064-1.0785 0.05797-1.5125 0.03847zm-2.0206 3.1023c1.3523 0.0061 1.4537 2.0693 0.14508 2.2527-1.161 0.45392-1.9518-1.1684-1.0392-1.9205 0.23128-0.23517 0.5645-0.36286 0.8941-0.33223z" style="paint-order:stroke fill markers"/>
   <path d="m75.138 5.4755c-3.8159 0.70473-7.7237 0.71607-11.566 0.41439-2.0289 1.0383-2.5409 3.5771-3.2418 5.5567-0.74398 2.5466-1.6584 5.2238-1.4995 7.8653 0.8079 0.49712 2.4155 0.89812 2.0614 2.2374-0.57395 3.127-1.8264 6.0668-2.9384 9.0087-0.05265 1.5247 1.8279 1.9953 2.9022 2.6018 5.0351 2.0067 10.505 2.566 15.814 3.3932 1.3945-0.65688 1.1186-2.5571 1.7209-3.7636 0.25958-0.95555 0.67976-1.8949 0.77788-2.8815-0.60835-0.62866-1.6148 0.25513-2.3901 0.12744-2.4173 0.06396-5.0666 0.40937-7.3171-0.72939-1.9845-0.98582-2.1853-3.6101-1.1121-5.3454 0.44034-0.76759 1.0491-1.9217 2.0747-1.8495 1.4506 0.86762 3.1247 1.4625 4.7863 1.7309 1.0351-0.94475 1.0342-2.6182 1.7429-3.808 0.3693-0.96454 1.0395-1.7853 1.4235-2.7352-0.43521-0.74569-1.5973 0.0797-2.3114-0.0631-2.0785 0.12159-4.1915 0.41651-6.2577 0.1677-0.72351-0.41639 0.3348-1.3314 0.39297-1.884 1.5738-3.357 3.7129-6.4484 5.295-9.7778-0.12114-0.090876-0.16627-0.31402-0.35708-0.2661z" style="paint-order:stroke fill markers"/>
  </g>
  <g fill="#91121d">
   <path d="m83.055 19.082c-1.4722 0.18043-3.1625 0.24514-4.3928 1.1217-1.1353 1.5098-1.3144 3.6569-2.8783 4.7795-0.82774 0.37174-2.3941-0.72626-2.2823 0.77741 0.08727 0.79439-0.72124 1.8808-0.06131 2.5189 0.80069 0.23738 2.3245 0.25524 2.0383-0.99429 0.29632-0.96118 1.6993-0.67336 2.4571-0.85242 4.0395-0.24976 7.9901-1.2378 12.015-1.4496 1.078-0.03264 0.33481-1.1885-0.0517-1.6287-1.5679-2.2347-3.9495-4.3448-6.8442-4.2725zm-0.43843 1.9012c1.1607-0.0088 1.663 1.3766 2.118 2.2567 0.2928 1.2373-1.4969 1.2687-2.3174 1.3917-0.84698-0.03102-1.9657 0.33372-2.7134-0.13847-0.82742-2.0147 1.0937-3.4557 2.9127-3.5099z" style="paint-order:stroke fill markers"/>
   <path d="m87.133 30.574c-1.8532 1.355-4.1875 2.0746-6.4435 1.4716-0.97366 0.17982-0.95452 1.5342-1.1806 2.2932 0.59938 0.92804 2.0116 0.85388 3.0065 1.0668 2.8674 0.1177 5.615-1.292 7.8241-3.0057 0.69069-0.73768-0.66295-1.0755-1.1738-1.2584-0.67432-0.17334-1.3406-0.57727-2.0327-0.56748z" style="paint-order:stroke fill markers"/>
   <path d="m66.844 42.767c-0.78928 0.52542-0.32619 1.8151-0.4737 2.629-0.19217 1.0512-0.0079 2.4197 1.3325 1.5113 0.74655-0.13618 1.8861-0.59517 2.4976-0.02726 0.46881 3.0173 0.35963 6.1534 0.87166 9.1358 0.89985-0.11259 2.1756 0.09357 2.8991-0.55666 0.0059-2.3365-0.34215-4.6719-0.23896-7.0334 0.07743-0.80564-0.31046-2.5192 0.97195-2.4018 0.8027-0.16624 2.1174 0.32726 2.6118-0.49254 0.02523-0.81895 0.01988-1.725-0.29096-2.4743-2.8336 0.73136-5.887 0.49492-8.7641-0.0906-0.47145-0.066-0.9412-0.17741-1.4169-0.19956z" style="paint-order:stroke fill markers"/>
   <path d="m88.616 42.857c-0.90388 0.34956-2.0977 0.19527-2.8522 0.75263-0.35235 1.8127-0.20459 4.0829-1.6632 5.4323-1.3466 0.35924-1.6304-1.3966-1.6724-2.3605-0.13299-1.0218 0.03861-2.1122-0.25168-3.0855-0.74705 0.07175-1.6961 0.0075-2.3689 0.37431-0.34228 1.5969 0.20576 3.3038 0.3134 4.9254 0.36092 2.1436 0.79286 4.9891 3.1155 5.8551 2.3832 0.39108 4.1848-1.8629 5.1791-3.7355 0.97527-2.3633 1.2487-5.0652 0.85242-7.5848-0.07923-0.2947-0.29691-0.63886-0.65204-0.57349z" style="paint-order:stroke fill markers"/>
  </g>
  <path d="m94.657 42.162c-1.0252 0.15135-2.4667-0.02864-3.1492 0.88448-0.40928 3.7413-0.11138 7.534-0.20639 11.294 0.81011 0.67154 2.3029 0.10386 3.3704 0.29371 1.061-0.30543 0.24807-2.1022 0.49775-3.0113-0.11316-0.65296-0.04929-1.584 0.75704-1.2147 0.8903 1.3148 0.94844 3.1705 2.0888 4.2954 1.0201 0.14502 2.1914 0.03862 3.1432-0.32823 0.20285-1.0003-0.98026-1.7587-1.3185-2.6482-0.43174-0.94796-1.4885-1.8784-1.363-2.9629 1.1605-0.87981 2.7689-2.0097 2.2747-3.7147-0.36215-1.9358-2.7044-2.4628-4.3475-2.7861-0.57778-0.08635-1.1634-0.12156-1.7473-0.1014zm0.97505 2.2791c0.94264-0.07047 2.3394 0.06596 2.3501 1.2921 0.10965 1.3226-1.945 2.5067-2.744 1.2432-0.22586-0.7595-0.30773-2.0077 0.32621-2.5328l0.06537-0.0024z" fill="#f7e26b" style="paint-order:stroke fill markers"/>
  <path d="m111.31 42.188c-2.654 0.4318-5.4249 0.15323-8.0501 0.54784 8e-3 3.7706-0.6355 7.5261-0.77234 11.314-0.43087 1.38 1.3529 1.053 2.1838 1.1044 2.3928-0.10104 4.8578-0.09198 7.1901-0.50181 0.50179-1.6648-0.90247-1.9059-2.2072-1.6898-1.106-0.14485-2.4767 0.25758-3.4151-0.43142-0.0893-0.88448-0.26587-2.365 0.78229-2.7304 0.80662-0.33574 2.0882 0.31942 2.6743-0.47891 0.20858-0.77435-0.46185-1.4551-1.2344-1.1618-0.69853 0.15119-1.9636 0.30243-1.8892-0.76786-0.15733-1.0231 0.77694-1.6973 1.7285-1.4395 1.1675-0.0482 2.3927 0.21296 3.5219-0.01843 0.0189-1.1529 0.2711-2.4712-0.11022-3.5908-0.0951-0.11955-0.25317-0.17149-0.40237-0.1555z" fill="#f7e26b" style="paint-order:stroke fill markers"/>
  <g>
   <path d="m95.606 46.018c0.10923 0.28754 0.23091 0.67595 0.48713 0.87402 0.0987 0.0763 0.21632 0.12432 0.32448 0.18649 0.23035-0.05313 0.48008-0.05272 0.69105-0.15939 0.34345-0.17366 0.3961-1.0424 0.3719-1.3698-0.15404-0.61883-0.46383-0.91552-1.1738-0.68998-0.17342 0.0551-0.33599 0.35737-0.42476 0.49646-0.22194 0.44194-0.30172 0.8752-0.10503 1.3361 0.35594 0.42956 0.57878 0.22588 0.85942-0.1485 0.0039-0.0033-0.04341-0.06258-0.04763-0.05922-0.01039-0.11854 0.04704-0.43383 0.17104-0.24466 2.84e-4 0.0272-0.01313 0.10796-0.01058 0.08089 0.01607-0.17018 0.11995-0.32771 0.15556-0.49335 0.05743-0.17937-0.07301 0.05376-0.47125-0.08897-0.07252-0.026-0.15498-0.26529-0.1071-0.20489 0.01362 0.01726 0.01029 0.04281 0.01539 0.06421 2e-3 0.15739-9.8e-4 0.30905-0.0198 0.46553-0.0039 0.03082-0.02862 0.06616-0.01186 0.09231 0.01078 0.01693 0.03646-0.0169 0.05468-0.02536 0.16821-0.01061 0.33642-0.02115 0.50463-0.03173 0.0393 0.04714 0.08663 0.08864 0.11798 0.1414 0.01264 0.02126-0.04381-0.02498-0.05988-0.04371-0.14338-0.16678-0.21507-0.38624-0.35263-0.55749-0.02685-0.06852-0.99577 0.31119-0.96892 0.3797z" style="paint-order:stroke fill markers"/>
   <path d="m81.558 22.478c-0.01685 0.01415-0.03844 0.02408-0.05056 0.04245-0.05983 0.09064-0.08885 0.19836-0.13931 0.29453-0.09194 0.1752-0.20796 0.33799-0.31788 0.50203-0.28194 0.38327-0.26798 0.91038 0.29768 1.0872 0.27531 0.08607 0.62864-0.05498 0.89269-0.14041 0.49131-0.23602 1.1007-0.56878 1.2125-1.1634 0.02486-0.13224 0.0018-0.2691 0.0026-0.40366-0.34838-0.95401-0.91462-1.0288-1.8325-1.0222-0.52758 0.12044-0.81177 0.53198-0.55816 1.0775 0.09655 0.20768 0.36558 0.31971 0.54654 0.41953 0.64442 0.22169 1.5094 0.34283 2.165 0.11226 0.6472-0.45532 0.31463-1.1566-0.35477-1.2704-0.1164-0.01979-0.24399-0.04241-0.35422-9.7e-5 -0.18472 0.0709-0.33053 0.2176-0.49579 0.3264-0.03465 0.08552-0.06932 0.17103-0.10397 0.25654-0.0069 0.0044 0.05637 0.10199 0.06327 0.09753 0.06964 0.04315 0.13926 0.08629 0.2089 0.12945 0.0064 0.09169-0.03789 0.20305 0.01921 0.27507 0.01713 0.02162 0.33218 0.03304 0.37007-0.0191 0.02968-0.04083-0.02899-0.09971-0.02237-0.14976 0.02618-0.19867 0.05693-0.39883 0.11975-0.58912 0.0155-0.04695 0.07215-0.06761 0.10821-0.10142-0.03357-0.0057-0.10667 0.01658-0.10072-0.01694 0.0062-0.03495 0.14094-0.0068 0.1058-0.01176-0.36231-0.05173-0.7396 0.0036-1.1029-0.04678-0.34545-0.02953-0.14906 0.06596-0.25354 0.37822-0.05974 0.17852-0.27036 0.21742-0.05085 0.22418-0.36164-0.02203 0.08731-0.03127 0.13858-0.02408 0.09223 0.01296 0.17627 0.09489 0.26739 0.04458 0.22633-0.18951-0.79977 0.70084-0.69851 0.48081-0.06055 0.02564-0.19365 0.01224-0.18168 0.07691 0.01269 0.06861 0.15333-0.0023 0.20432 0.04543 0.10138 0.0947 0.18341 0.21894 0.22152 0.35233 0.07781 0.27232-0.16073 0.47138 0.13798 0.1124 0.31023-0.44414 0.58446-0.93222 0.51637-1.4934-0.0083-0.06935-0.98893 0.04782-0.98065 0.11716z" style="paint-order:stroke fill markers"/>
   <path d="m11.312 22.712c-0.53447-0.54423-1.2996-0.58984-2.0196-0.45295-0.15964 0.03034-0.30227 0.11937-0.45341 0.17905-1.0163 0.6686-1.4093 1.4402-1.5877 2.6143-0.011192 1.1949 0.38635 1.8605 1.2998 2.5918 1.0811 0.65815 2.0296 0.71066 3.2259 0.31542 0.31446-0.14467 1.6135-0.77643 1.4193-1.268-0.07367-0.18645-0.25186-0.31198-0.37779-0.46797 0.0019-0.0071-0.09738-0.03389-0.09928-0.02687-0.22189-0.08674-0.4777-0.2606-0.73741-0.1709-0.07694 0.02658-0.12821 0.1005-0.19518 0.14676-0.23301 0.16093-0.48135 0.29838-0.75327 0.38167-0.09819 0.022-0.19521 0.05002-0.29455 0.06599-0.10094 0.01623-0.20875-0.0034-0.3052 0.03045-0.03541 0.01245 0.14266 0.0361 0.10532 0.03984-0.29405 0.02939-0.59772-0.08143-0.86354-0.1881-0.4842-0.29193-0.85616-0.6505-0.8373-1.2559 0.076646-0.56906 0.3477-1.1302 0.82355-1.471 0.60118-0.19615 0.01241 0.03447 0.03632-0.10464 0.02284-0.13288 0.56109-0.0095 0.64905-0.01541 0.06673 0.06824 1.0318-0.87534 0.9651-0.94358z" style="paint-order:stroke fill markers"/>
   <path d="m10.961 22.933c0.14379-0.60714-0.065601-1.2577-0.23594-1.8401-0.27855-0.88521-0.785-1.6447-1.4331-2.2984-0.5734-0.54598-1.2635-0.83246-2.0341-0.95351-1.185-0.0868-1.8998 0.32244-2.7386 1.0986-0.60594 0.65432-1.0652 1.4412-1.1625 2.3421-0.019775 0.1831-0.00987 0.3682-0.014803 0.5523 0.05757 0.99536 0.41317 1.7373 1.1189 2.4244 0.53715 0.44945 1.1866 0.70291 1.8583 0.87038 0.58882 0.11602 1.2125 0.13791 1.7982-0.0076 0.69362-0.25516 0.17595-0.62108-0.39038-1.3455-0.044296-0.05665-0.74843 0.19486-0.78666 0.20885-0.95837 0.38042-1.714 1.0448-2.372 1.8209-0.60365 0.80128-1.0311 1.729-1.0131 2.7509 0.00334 0.18849 0.037654 0.37515 0.056481 0.56272 0.26305 1.2048 1.02 1.9501 2.0455 2.5557 0.72683 0.35687 1.4818 0.44004 2.2844 0.35085 0.28293-0.03144 0.59612-0.17162 0.85758-0.27281 0.70173-0.31592 1.2863-0.79868 1.7745-1.3861 0.40757-0.51978 0.64048-1.1238 0.78747-1.7605 0.06595-0.41974 0.12864-0.8564 0.05666-1.2785-0.242-0.28454-0.0631-0.14093-0.64831-0.23095 6.43e-4 -0.0054-0.07638-0.01467-0.07703-0.0092-0.60866 0.1579-0.43067-0.0033-0.66414 0.27899-0.04578 0.30995-0.02896 0.6305-0.13484 0.9328-0.12111 0.43489-0.28913 0.86566-0.58787 1.2112-0.35845 0.40195-0.81264 0.68238-1.3099 0.88751-0.089592 0.02662-0.17762 0.05921-0.26877 0.07985-0.089415 0.02024-0.18704 0.0074-0.27172 0.04255-0.035819 0.01486 0.15231 0.01649 0.11406 0.02281-0.30208 0.04997-0.60948-0.03909-0.88818-0.14274-0.47442-0.23887-1.0907-0.64312-1.3443-1.1321-0.046288-0.08926-0.062563-0.1911-0.093846-0.28666-0.085635-0.85322 0.18654-1.5798 0.73902-2.2366 0.53468-0.64525 1.0556-1.1109 1.8038-1.5006 0.057947-0.03176 0.1144-0.06642 0.17386-0.09527 0.10403-0.05048 0.16744-0.05618 0.16247-0.0673-1.5237-3.4127-0.78114-0.60259-0.44023-1.2833 0.010839-0.02152-0.047863-0.0052-0.071805-0.0077-0.091316-0.0018-0.36493 0.0067-0.27399-0.0018 0.57044-0.05288-0.30568 0.03511-0.37924-0.01508-0.47158-0.09344-0.90694-0.28422-1.3241-0.52192-0.45626-0.33581-0.63084-0.83397-0.65882-1.3913 0.00608-0.82389 0.2574-1.3039 0.80789-1.9142 0.26984-0.28063 0.53218-0.49125 0.91629-0.59165 0.075362-0.0197 0.19235 0.02502 0.22963-0.04337 0.030027-0.0551-0.12251-0.02719-0.18377-0.04077 0.4936 0.01908 0.94195 0.14272 1.2969 0.50604 0.51066 0.48751 0.89738 1.0591 1.1463 1.7236 0.17731 0.50616 0.28734 1.0335 0.49568 1.5268 0.0067 0.09038 1.2847-0.0037 1.278-0.09414z" style="paint-order:stroke fill markers"/>
   <path d="m99.207 40.744c0.03214-0.29667 0.18703-0.54652 0.39863-0.74877 0.36948-0.24231 0.74809-0.49214 1.2029-0.47607 0.0593 0.09004 0.21662-0.07418 0.59042 0.14106 0.22013 0.18212 0.3088 0.49983 0.38586 0.76705 0.0788 0.27763 0.13955 0.55922 0.18823 0.84349 0.16813 0.20698 0.0167 0.06374 0.51001 0.12254 0.0666 0.0079 0.13137 0.02729 0.19706 0.04094 2.4e-4 0.0028 0.0405-5.85e-4 0.0402-0.0033 0.0618-0.02521 0.12208-0.05489 0.18558-0.07564 0.46944-0.15343 0.36348 0.01772 0.46943-0.23747-0.0327-0.34093-0.074-0.68256-0.15936-1.0149-0.14663-0.56362-0.34224-1.1101-0.79803-1.5035-0.64277-0.47613-1.3609-0.62288-2.1652-0.5007-0.74849 0.17967-1.4407 0.48626-1.9431 1.0946-0.41506 0.61397-0.64928 1.2538-0.33181 1.9741 0.02999 0.08692 1.2592-0.33655 1.2292-0.42347z" style="paint-order:stroke fill markers"/>
   <path d="m98.285 40.384c-0.51116-0.11587-1.0235-0.22389-1.5297-0.36163-0.36828-0.12436-0.84162-0.19123-1.0182-0.58107 0.02607-0.37084 0.22844-0.68111 0.48646-0.93434 0.35124-0.3209 0.77728-0.47957 1.2458-0.51598 0.05949 0.0058 0.22868-0.01512 0.17847 0.01729-0.05939 0.03836-0.15099-0.03117-0.2121 0.0044-0.04547 0.0265 0.10427 0.01589 0.15536 0.02864 0.16677 0.04158 0.31996 0.11367 0.47408 0.18748 0.22234 0.08987 0.33488 0.22602 0.44755 0.42682 0.10864 0.19787 0.2236 0.39202 0.32338 0.59458 0.33492 0.57102 0.3962 0.39668 1.3951-0.07408 0.0218-0.01028 0.15975-0.76464 0.16882-0.81381 0.13828-0.64693 0.16378-1.3792 0.58287-1.9181 0.38199-0.39532 0.87744-0.48468 1.4038-0.48044-0.0464 0.0052-0.18271-0.0018-0.1393 0.01562 0.0734 0.02921 0.15811 0.0091 0.2359 0.02284 0.26456 0.047 0.47076 0.16921 0.6586 0.35425 0.21548 0.3014 0.13071 0.70256 0.0505 1.0395-0.1167 0.3505-0.39964 0.56218-0.66057 0.80081-0.35186 0.44119-0.27461 0.72748 0.12242 1.2427 0.1566 0.2032 1.2334 0.0733 0.85397 0.17219 0.54243 0.04896 1.093 0.014 1.628 0.12757 0.2377 0.05682 0.27166 0.23358 0.30464 0.45458 0.0324 0.22702-0.051 0.42274-0.13953 0.62477-0.19078 0.3711-0.0605 0.29893 0.39084 0.61311-3e-3 0.0038 0.0522 0.05002 0.0555 0.0461 0.67516 0.20353 0.63917 0.34834 0.89153-0.16328 0.18932-0.41422 0.2994-0.85047 0.2545-1.3098-0.10458-0.66199-0.37224-1.2409-1.0012-1.5557-0.63586-0.26728-1.3054-0.35-1.9941-0.31083-0.22234 0.0063-0.44558-0.0018-0.66703 0.01901-0.06 0.0057 0.13031-0.0089 0.17872 0.02691 0.0275 0.02035-0.0126 0.06953-4e-3 0.1026 0.064 0.24005 0.14728 0.47452 0.22092 0.71178-0.0309 0.0743-0.0894 0.1425-0.0926 0.2229-9.8e-4 0.03227 0.0569-0.03049 0.0854-0.04574 0.49499-0.38898 0.87942-0.86951 1.0538-1.4851 0.18403-0.77366 0.18685-1.5441-0.29764-2.2183-0.69711-0.79876-1.402-1.0368-2.4649-0.99405-0.93275 0.1103-1.7611 0.45582-2.3347 1.2349-0.47346 0.81647-0.68467 1.5766-0.72083 2.5226-0.01852 1.0612-0.11837 0.50948 1.2075 0.42439 0.0439-0.0028 0.10754 0.20502 0.077 0.10867-0.0968-0.23808-0.1977-0.47484-0.3178-0.70233-0.20581-0.37854-0.44961-0.72655-0.81872-0.96401-0.64199-0.42258-1.3255-0.6488-2.1123-0.52204-0.75057 0.16176-1.4276 0.4847-1.9469 1.0673-0.53495 0.69548-0.87229 1.4631-0.6068 2.3495 0.38704 0.78578 0.85245 1.1376 1.679 1.416 0.61368 0.18686 1.2665 0.36783 1.9121 0.26911 0.09183 0.02519 0.44788-1.2728 0.35609-1.298z" style="paint-order:stroke fill markers"/>
   <path d="m23.785 59.855c0.06843 0.66794 0.55458 1.0933 1.0835 1.4357 0.82502 0.42571 1.7543 0.38106 2.6255 0.13458 0.69054-0.234 1.2424-0.6768 1.6819-1.2474 0.30796-0.43458 0.42034-0.93381 0.46023-1.4539-0.0018-0.18804 0.02964-0.3942-0.03215-0.57651-0.1661-0.13275-0.59491-0.01515-0.68475-8e-3 -0.0018 0.0015 0.01916 0.02805 0.02103 0.02656-0.106-8.78e-4 -0.42936-0.04368-0.59305 0.02366-0.05488 0.12323-0.01978 0.27753-0.05595 0.40608-0.04765 0.27917-0.11626 0.57212-0.30212 0.79279-0.32529 0.33718-0.69783 0.61186-1.166 0.70878-0.52365 0.12312-0.48517 0.1559-1.0826 0.06311-0.28299-0.088-0.53375-0.26239-0.73736-0.47807-0.0122-0.08615-1.2304 0.08649-1.2182 0.17263z" style="paint-order:stroke fill markers"/>
   <path d="m21.403 59.364c-0.3689 0.29081-0.63532 0.75782-0.68626 1.2303-0.01394 0.12925 0.0058 0.25994 0.0087 0.38991 0.24787 1.0877 0.92988 1.4641 1.9562 1.6693 1.0091 0.10496 1.8826-0.23746 2.7479-0.70452 0.23052-0.13716 0.57387-0.34258 0.70605-0.52046-0.36344-0.26513-0.69614-0.5786-1.0903-0.79539-0.05108-0.02808-0.0776 0.08719-0.11247 0.13388-0.14625 0.19583-0.25967 0.41734-0.33261 0.65064-0.02969 0.09498-0.04481 0.19392-0.0672 0.29088-0.10224 0.95029 0.27074 1.4727 1.0039 2.0213 1.0577 0.5921 2.1696 0.47068 3.2573 0.02498 0.7158-0.32681 1.2071-0.87315 1.5471-1.5677 0.22233-0.53583 0.26392-1.0963 0.15624-1.661-0.10385-0.41228-0.32514-0.76569-0.61524-1.0702-0.12475-0.14184-0.27821-0.25271-0.42359-0.37175-0.5701-0.35296-0.41673 0.25963-0.77144 1.0894 0.29177 0.19239 0.64875 0.23267 0.98889 0.2612 0.56729-0.0037 1.139-0.01278 1.696-0.12934 0.53546-0.12668 0.9504-0.44166 1.3016-0.85104 0.2883-0.35159 0.4161-0.7666 0.45764-1.2121 0.0021-0.39797-0.10486-0.83455-0.4674-1.0454-0.36547 0.09604-0.16228 0.01173-0.57282 0.32774-0.0018-0.0015-0.02436 0.02314-0.02261 0.02472-0.3074 0.36961-0.17588 0.21764-0.38951 0.46025-0.03317 0.05175 0.07192 0.03935 0.03109 0.1517 2.92e-4 0.18845-0.08362 0.32697-0.20612 0.46925-0.18981 0.19184-0.42299 0.30168-0.69253 0.333-0.25717 0.032-0.51674 0.06255-0.77576 0.07446-0.05899 0.0026-0.22332-0.03346-0.17711 0.0033 0.04953 0.0394 0.12648 0.0045 0.18972 0.0068-0.19941 0.01708-0.39829 0.02106-0.59735 0.03347-0.18515 0.36127-0.30442 1.4646-0.7494 1.0796-0.0347-0.10944 0.0478 0.01825 0.09123 0.0426 0.12885 0.17338 0.27546 0.3451 0.3522 0.54819 0.06588 0.29984 0.0033 0.58815-0.13386 0.86146-0.23891 0.39489-0.62059 0.62164-1.0489 0.77822-0.09976 0.03076-0.19779 0.06778-0.29926 0.0923-0.11033 0.02668-0.22819 0.02264-0.33502 0.061-0.02513 0.0091 0.09816 0.02419 0.07297 0.03314-0.27748 0.09855-0.55889 0.0131-0.83862-0.01095-0.27384-0.11298-0.5934-0.25383-0.57262-0.59433 0.17919-0.94878 0.73017-0.39118-0.72353-1.5751-0.23499 0.12036-0.4933 0.19557-0.73032 0.31271-0.27329 0.11094-0.54765 0.21538-0.83183 0.29595-0.10404 0.02951-0.20862 0.05757-0.31448 0.07966-0.09659 0.02015-0.20314 0.0045-0.29224 0.04696-0.03737 0.01779 0.07931 0.02364 0.11895 0.03548-0.34097 0.01661-0.83169 0.0033-1.0518-0.29722-0.09748-0.29493-0.0036-0.54392 0.12069-0.81861 0.04869-0.06237-0.8333-0.75094-0.88198-0.68857z" style="paint-order:stroke fill markers"/>
   <path d="m85.145 17.811c0.07943-0.25375 5e-3 -0.55776 0.14854-0.78963 0.26396-0.07608 0.53966-0.11477 0.81365-0.13596 0.60116 0.04202 0.17402-0.06846 0.82562 0.14241 0.25324 0.10706 0.56846 0.1934 0.72963 0.43378 0.12065 0.27376 0.15121 0.57668 0.15791 0.87278 0.0021 0.41882-0.15691 0.43124 0.3177 0.60898 0.09012 0.03207 0.18024 0.06413 0.27036 0.0962-0.0012 0.0015 0.01936 0.01825 0.02053 0.01679 0.10284 0.0201 0.20568 0.0402 0.30852 0.06029 0.09007-0.01225 0.3406-0.02417 0.42684-0.10706 0.09722-0.09345 0.08346-0.54893 0.1148-0.67574 0.0076-0.55362-0.06181-1.1024-0.34339-1.591-0.31602-0.44481-0.709-0.78012-1.2227-0.98268-0.71344-0.2935-1.4221-0.42384-2.1946-0.27344-0.66148 0.16165-1.2758 0.41499-1.592 1.064-0.14863 0.4043-0.22642 0.82867-0.16673 1.2602 0 0.09796 1.3853 0.09796 1.3853 0z" style="paint-order:stroke fill markers"/>
   <path d="m88.171 19.215c0.48932 0.49972 1.1676 0.68604 1.8348 0.80688 0.91403 0.12164 1.5872 0.01339 2.2056-0.66839 0.39451-0.60087 0.28568-1.2593 0.02723-1.8846-0.27436-0.52365-0.7022-0.90162-1.2154-1.1787-0.488-0.25777-0.99824-0.25636-1.5359-0.24457-0.29751 0.06033-0.58964 0.15228-0.8696 0.26954-0.14308 0.07642-0.29176 0.14624-0.40622 0.2636-0.0215 0.01777-0.10558 0.08495-0.095 0.09644 1.0312 1.1212 0.84575 1.1558 1.6642 0.45645 0.62516-0.5649 0.95641-1.304 1.1284-2.1129 0.09432-1.0148-0.1497-1.6024-1.0054-2.1623-0.67933-0.35421-1.4156-0.3439-2.1592-0.31412-0.49027 0.06542-0.93954 0.22638-1.3478 0.50268-0.4935 0.37931-0.73522 0.91879-0.89938 1.5013-0.09809 0.38432-0.12931 0.78261-0.11595 1.1782 0.05559 0.65083-0.04573 0.30182 1.1825-0.2211-0.222-0.33949-0.55664-0.58265-0.89631-0.79286-0.49138-0.2747-1.0406-0.38921-1.5946-0.44683-0.81655-0.07676-1.5049 0.13179-2.1524 0.61459-0.51161 0.44813-0.79532 1.0211-0.91948 1.68-0.08156 0.63195 0.11168 1.1739 0.51367 1.6524 0.42294 0.43771 0.59576 0.19117 1.0486-0.07971 0.0055 0.0043 0.06658-0.07329 0.0611-0.07762 0.02557-0.11107 0.04507-0.22371 0.07673-0.3332 0.06802-0.23527 0.17159-0.26617-0.02647-0.37245-0.20491-0.13366-0.2185-0.33568-0.19065-0.56833 0.05398-0.34477 0.21256-0.61809 0.4957-0.83242 0.19036-0.13146 0.41422-0.21082 0.64513-0.24014 0.05702-0.0072 0.19818 0.04331 0.17225-0.0079-0.02755-0.05447-0.12178-0.0084-0.18268-0.01262 0.38532 0.01153 0.77227 0.04101 1.1358 0.18116 0.28305 0.12142 0.5222 0.29771 0.75815 0.4947 1.2387-0.428 1.1644-0.01358 1.2563-0.58648 0.04204-0.29555 0.08372-0.59146 0.1609-0.88068 0.08764-0.28315 0.16833-0.60364 0.4234-0.78292 0.25136-0.13681 0.53266-0.18702 0.81784-0.1836-0.05794 3.8e-4 -0.23089 0.01108-0.17381 0.0012 0.32618-0.05666 0.67809 0.02731 0.9979 0.08066 0.4485 0.13356 0.43975 0.25318 0.39072 0.73286-0.12081 0.54676-0.38476 1.0188-0.76408 1.4323-0.08392 0.08886-0.16663 0.17888-0.2519 0.26645-0.01523 0.01565-0.06017 0.02795-0.04717 0.0455 0.80855 1.0921 1.0921 0.69086 0.78104 1.0758 0.08 0.0017 0.15138-0.04029 0.23116-0.04993 0.18936-0.05235 0.37795-0.12164 0.57747-0.11318-0.64697-0.01229 0.13861-0.0318 0.26371 0.044 0.28886 0.1191 0.54938 0.28001 0.72911 0.54414 0.08226 0.13448 0.21577 0.37152 0.18568 0.52728-0.27342 0.21013-0.37364 0.07316-0.5386 0.13021-0.50307-0.05183-0.98681-0.1875-1.461-0.36138-0.06581-0.06477-0.98174 0.86583-0.91593 0.93059z" style="paint-order:stroke fill markers"/>
   <path d="m56.873 32.486c-0.33129 1.1342-0.29991 2.3381-0.19384 3.5021 0.18061 1.587 0.75486 3.0601 1.4954 4.4606 0.48293 0.86101 1.1165 1.6078 1.9067 2.1966 0.45436 0.29583 0.59531 0.19251 1.0506-0.03219 5e-3 0.0021 0.03198-0.06863 0.027-0.07054-0.0021-0.41235 0.21001-0.37815-0.15804-0.73029-0.58892-0.562-1.0968-1.1893-1.429-1.9415-0.61269-1.2833-1.1381-2.6151-1.3497-4.0298-0.05511-0.39735-0.14682-1.0199-0.18192-1.4229-0.05638-0.64717-0.01366-1.3086-0.16748-1.9442-8.77e-4 -0.0707-1.0006-0.05857-0.99972 0.01214z" style="paint-order:stroke fill markers"/>
   <path d="m111.22 49.685c1.9285-0.07076 3.8559-1.0948 5.4011-2.1831 0.49021-0.34525 0.94165-0.74251 1.4125-1.1138 0.45015-0.48009 0.94954-0.91835 1.3504-1.4403 1.4016-1.8247 2.1545-3.9726 2.229-6.2739 0.0732-2.2599-0.28358-3.1874-0.77656-5.3726-0.68852-2.5402-1.9646-4.8517-2.8776-7.3068-0.52293-1.4061-0.95751-2.6774-1.0174-4.1885-0.0254-0.64281 0.10027-1.2827 0.15032-1.9241 0.19289-0.61057 0.3267-1.2431 0.57871-1.8317 0.25484-0.59529 0.59856-1.1495 0.93455-1.7031 0.51202-0.84358 1.4238-2.1415 2.1077-2.879 0.37254-0.4017 0.80279-0.74574 1.2042-1.1186 0.0654-0.05956-0.77689-0.98356-0.84223-0.924-0.6108 0.29134-1.2584 0.51569-1.8324 0.87401-1.8936 1.1819-3.3413 3.0419-4.1745 5.0978-0.30076 0.74208-0.44546 1.5382-0.66817 2.3073-0.17791 2.261-0.36033 2.5757 0.0979 4.8312 0.66692 3.2821 2.503 6.1631 3.4263 9.3623 0.55941 2.0869 1.3044 4.3028 0.90649 6.5011-0.18187 1.0049-0.8427 2.3087-1.4324 3.1318-0.32033 0.44718-0.72457 0.82784-1.0868 1.2418-0.41948 0.33996-0.8282 0.69366-1.2585 1.0199-1.3591 1.0305-2.841 1.8786-4.2705 2.8029-0.077 0.03095 0.36077 1.1201 0.43777 1.0892z" style="paint-order:stroke fill markers"/>
  </g>
  <g fill="#91121d">
   <path d="m6.959 19.106c-2.215 0.19289-3.1131 4.0324-0.72217 4.7066 0.53518 0.30704 1.1507 0.28591 1.5261-0.15469 0.56621-0.44006 1.2066-0.87537 1.6892-1.351 0.07203-1.28-1.0611-3.2222-2.4931-3.2009z" style="paint-order:stroke fill markers"/>
   <path d="m7.1437 25.55c-1.4656 0.49849-2.5002 2.4498-1.9253 3.9371 0.75186 0.97717 2.1817 1.8074 3.3167 0.8949 0.71964-0.45413 1.8799-1.4007 1.4464-2.338-1.0017-0.53378-2.2213-1.1071-2.4519-2.3336-0.093718-0.11136-0.24192-0.16835-0.38593-0.1603z" style="paint-order:stroke fill markers"/>
   <path d="m22.973 59.56c-1.1107-0.18729-1.5808 1.8006-0.32261 1.8255 0.61841 0.05007 2.0026-0.04049 1.6175-0.98066-0.17118-0.54923-0.74362-0.85607-1.2949-0.84481z" style="paint-order:stroke fill markers"/>
   <path d="m28.935 60.217c-0.8604 0.54695-1.7509 1.0463-2.7745 1.151-0.9041 0.50436-0.0842 1.7537 0.79591 1.4804 1.3497 0.09553 3.0222-1.1159 2.2896-2.5537-0.08105-0.07633-0.20227-0.10996-0.31099-0.07774z" style="paint-order:stroke fill markers"/>
   <path d="m29.535 58.286c-0.2124 0.21139-0.24157 0.58604-0.17931 0.86742 0.2468 0.36592 0.75209 0.10594 1.1066 0.12773 0.35343-0.06121 0.81009-0.03336 1.0502-0.34338 0.16449-0.35195-0.26581-0.51539-0.5433-0.50579-0.48008-0.01313-0.96159-0.19787-1.4342-0.14598z" style="paint-order:stroke fill markers"/>
  </g>
  <g fill="#f7e26b">
   <path d="m28.157 58.605c-0.62622 0.23734-1.2536 0.51144-1.9201 0.6685-0.39947 0.15674-0.89279 0.09589-1.2372 0.36933-0.2555 0.36373 0.23707 0.64648 0.5299 0.74716 0.74005 0.24572 1.5873 0.02477 2.2206-0.39893 0.36056-0.28119 0.78387-0.67772 0.74812-1.1717-0.04359-0.14174-0.1947-0.23597-0.34126-0.21436z" style="paint-order:stroke fill markers"/>
   <path d="m9.8914 23.338c-0.16948-0.02133-0.38834 0.08955-0.41844 0.22401 0.04556-0.0797-0.24748 0.22375-0.19732 0.20032-0.58747 0.57338-0.95666 1.5839-0.47181 2.3272 0.44112 0.61647 1.2688 1.029 2.0226 0.7955 0.3602-0.23362 0.07264-0.69418 0.07403-1.0301-0.14568-0.76378-0.20465-1.5392-0.37135-2.2992-0.12347-0.22803-0.41602-0.2112-0.63773-0.21779z" style="paint-order:stroke fill markers"/>
   <path d="m86.007 16.617c-0.42072-0.05711-1.3617 0.2431-0.9036 0.78734 0.81375 0.30609 1.6499 0.61099 2.4307 1.0217 0.72779 0.24574 0.59229-0.86035 0.24192-1.1745-0.47027-0.42871-1.1385-0.64193-1.7691-0.63456z" style="paint-order:stroke fill markers"/>
   <path d="m100.74 39.295c-0.91993 0.01325-1.9374 0.8028-1.8235 1.7828 0.46178 0.39915 1.0847 0.71678 1.6664 0.92657 0.53183-0.18321 0.63666-0.93743 1.2383-1.0619 0.56515-0.51818-0.0522-1.6412-0.79056-1.6351-0.0965-0.0099-0.19362-0.01434-0.29063-0.01241z" style="paint-order:stroke fill markers"/>
  </g>
  <g fill="#91121d">
   <path d="m97.311 37.8c-0.8931 0.03198-1.8593 0.84445-1.7874 1.7702 0.45444 0.69173 1.4335 0.8172 2.1939 0.88797 0.56868-0.13489 0.55478-0.89455 0.94817-1.2517 0.49457-0.86488-0.61754-1.4769-1.3546-1.4065z" style="paint-order:stroke fill markers"/>
   <path d="m102.07 35.716c-1.1651 0.01381-2.1336 1.3976-1.7054 2.473 0.46394 0.34067 1.139 0.11513 1.628 0.46708 0.68714 0.15771 1.1114-0.67014 1.4056-1.1614 0.47805-0.94524-0.331-1.8718-1.3282-1.7787z" style="paint-order:stroke fill markers"/>
   <path d="m102.9 39.408c-0.0824 0.4752 0.0103 1.1244 0.32946 1.5191 0.67086 0.25304 1.4683 0.18245 2.1647 0.06226 0.64741-0.40114 0.32057-1.5127-0.44111-1.5577-0.66385-0.1165-1.4098-0.20548-2.053-0.02367z" style="paint-order:stroke fill markers"/>
   <path d="m83.872 15.438c-0.84558-0.05015-1.8958 0.73411-1.5402 1.6464 0.41077 0.36863 1.1162 0.27564 1.608 0.11763 0.2423-0.30064 0.26453-0.74563 0.59666-1.0169 0.37667-0.30957 0.0729-0.8359-0.38483-0.74277-0.09307-0.0055-0.1864-0.0073-0.2796-0.0044z" style="paint-order:stroke fill markers"/>
   <path d="m88.11 13.674c-0.94166-0.11055-1.6612 0.94086-1.4433 1.7879 0.3832 0.58134 1.226 0.53516 1.7247 0.99687 0.6206 0.09378 0.82104-0.75629 1.0952-1.1713 0.32608-0.55293 0.21711-1.4549-0.53669-1.5492-0.27472-0.06333-0.55929-0.06958-0.83996-0.06433z" style="paint-order:stroke fill markers"/>
   <path d="m89.739 17.144c-0.56396-0.06601-0.92384 0.46996-0.73956 0.98493 0.11799 0.74893 1.0887 0.70202 1.6696 0.81491 0.61373 0.0058 0.88154-0.77681 0.40091-1.1632-0.33499-0.36952-0.82398-0.63888-1.3309-0.63663z" style="paint-order:stroke fill markers"/>
  </g>
 </g>
</svg>
