<?xml version="1.0" encoding="UTF-8" standalone="no"?>
<!-- Created with Inkscape (http://www.inkscape.org/) -->

<svg
   width="120.20842mm"
   height="65.490242mm"
   version="1.1"
   viewBox="0 0 120.20842 65.49024"
   id="svg652"
   sodipodi:docname="HalloweenLOGO.svg"
   inkscape:version="1.1.2 (0a00cf5339, 2022-02-04)"
   xmlns:inkscape="http://www.inkscape.org/namespaces/inkscape"
   xmlns:sodipodi="http://sodipodi.sourceforge.net/DTD/sodipodi-0.dtd"
   xmlns="http://www.w3.org/2000/svg"
   xmlns:svg="http://www.w3.org/2000/svg">
  <defs
     id="defs656" />
  <sodipodi:namedview
     id="namedview654"
     pagecolor="#ffffff"
     bordercolor="#666666"
     borderopacity="1.0"
     inkscape:pageshadow="2"
     inkscape:pageopacity="0.0"
     inkscape:pagecheckerboard="0"
     inkscape:document-units="mm"
     showgrid="false"
     inkscape:zoom="0.92798763"
     inkscape:cx="196.1233"
     inkscape:cy="150.32528"
     inkscape:window-width="960"
     inkscape:window-height="1024"
     inkscape:window-x="12"
     inkscape:window-y="10"
     inkscape:window-maximized="0"
     inkscape:current-layer="layer2"
     showguides="false"
     inkscape:snap-global="false"
     inkscape:lockguides="true"
     fit-margin-top="-10"
     fit-margin-left="0"
     fit-margin-right="0"
     fit-margin-bottom="0" />
  <g
     transform="translate(-15.857988,-134.8417)"
     id="g548" />
  <g
     inkscape:groupmode="layer"
     id="layer2"
     inkscape:label="Layer 2"
     style="display:inline;opacity:1"
     transform="translate(-4.1209878,1.898296)">
    <path
       style="fill:#000000;fill-opacity:1;stroke:none;stroke-width:0.499999;stroke-miterlimit:4;stroke-dasharray:none;stroke-opacity:1;paint-order:markers fill stroke"
       id="path63581"
       d="m 109.23671,48.601513 c 3.33909,0.447535 6.75955,-0.54038 9.30777,-2.780734 0.68014,-0.597966 1.21976,-1.338948 1.82964,-2.008423 0.44663,-0.721881 0.9663,-1.403395 1.33988,-2.165643 1.19574,-2.439787 1.55013,-5.333712 1.11671,-8.004212 -0.0694,-0.427437 -0.19771,-0.84319 -0.29657,-1.264785 -0.66764,-2.088603 -1.79949,-3.970626 -2.82792,-5.891713 -1.01321,-2.01253 -1.94836,-4.067694 -2.66303,-6.205942 -0.4145,-1.937145 -0.31037,-3.99431 0.5511,-5.805326 0.1438,-0.302311 0.33924,-0.577235 0.50886,-0.865853 1.08834,-1.406646 2.50103,-2.402867 4.26815,-2.665814 0.45869,-0.04202 0.91507,-0.0089 1.37019,0.04555 0.70241,0.08144 0.81758,-0.911907 0.11518,-0.9933456 v 0 c -0.54594,-0.061592 -1.09269,-0.099575 -1.64203,-0.039862 -2.0649,0.3437726 -3.72656,1.4692636 -4.97698,3.1525456 -0.19299,0.337901 -0.41458,0.660999 -0.57897,1.013703 -0.94475,2.027075 -1.04747,4.319672 -0.56372,6.476012 0.73526,2.190533 1.68803,4.298979 2.72964,6.360324 0.98809,1.845407 2.07599,3.652191 2.73665,5.651005 0.0917,0.380031 0.21028,0.754573 0.27515,1.140095 0.41193,2.448216 0.10675,5.127347 -0.97454,7.374281 -0.34172,0.710094 -0.82003,1.345941 -1.23005,2.018911 -0.55438,0.620297 -1.04394,1.305277 -1.66313,1.860889 -2.30065,2.064414 -5.39793,2.984867 -8.44484,2.640443 -0.67733,-0.203038 -0.96447,0.754851 -0.28714,0.95789 z" />
    <rect
       style="display:inline;fill:#ff4500;fill-opacity:1;stroke:none;stroke-width:0.343915;stroke-miterlimit:4;stroke-dasharray:none;stroke-opacity:1;paint-order:markers fill stroke"
       id="rect63389-9"
       width="17.850082"
       height="10.542621"
       x="79.961136"
       y="40.910839" />
    <rect
       style="fill:#ff4500;fill-opacity:1;stroke:none;stroke-width:0.51469;stroke-miterlimit:4;stroke-dasharray:none;stroke-opacity:1;paint-order:markers fill stroke"
       id="rect63389"
       width="39.978798"
       height="10.542621"
       x="18.580906"
       y="44.714195" />
    <path
       style="fill:#711e00;fill-opacity:1;stroke-width:0.227762"
       d="m 84.423949,16.783551 c -3.787413,-0.02987 -7.641379,2.199203 -8.848427,5.92886 -0.701081,2.570063 -0.701716,5.474875 0.341794,7.949281 2.256273,3.799184 7.009659,5.795462 11.309773,4.936481 2.722668,-0.524947 5.824557,-1.17459 7.681894,-3.41849 0.685685,-1.295982 -0.234324,-2.795194 -0.717321,-4.014094 -0.915406,-0.636786 -2.043146,0.557862 -3.014429,0.682538 -2.764375,0.849545 -5.889248,1.6743 -8.744557,0.70795 -0.991147,-0.429901 -1.389104,-1.56761 -1.413779,-2.583035 3.937895,-0.601987 7.982648,-0.858731 11.801157,-2.035136 0.899226,-0.841839 0.399991,-2.354526 0.261007,-3.433647 -1.173711,-3.431322 -5.359101,-4.812708 -8.657112,-4.720708 z m -0.05416,4.64492 c 0.513531,-0.0012 1.391639,0.380875 1.4595,0.765461 -1.072117,0.277348 -2.510956,0.638754 -3.412598,0.588024 0.259683,-0.820019 1.095387,-1.406159 1.953098,-1.353485 z"
       id="path30220" />
    <path
       id="path26038"
       style="fill:#ff4500;fill-opacity:1;stroke-width:0.298909"
       d="m 73.709723,22.39565 c -5.422258,17.702261 19.374882,18.311185 23.799455,9.515118 0,0 -0.144721,-2.981457 -2.301337,-5.385836 0.108355,-4.153073 0.551706,-6.444191 -2.40489,-8.609038 -6.411762,-5.548977 -15.545162,-3.072199 -19.093228,4.479756 z m 19.155812,2.230188 c -2.688123,1.010232 -12.11833,2.024189 -12.11833,2.024189 -0.663235,6.395299 10.135468,3.089795 13.092467,1.376167 0,0 1.404815,2.862849 0.973661,3.884787 -1.928101,2.341756 -5.078637,3.000872 -7.926699,3.415013 C 82.576778,36.146406 77.711182,33.92639 75.838347,29.871975 71.615331,12.819301 95.457314,14.628887 92.865535,24.625838 Z m 0.09583,1.999605 c -2.25857,1.117658 -7.498936,3.110447 -8.64533,0.95944 z"
       sodipodi:nodetypes="ccccccccccccccc" />
    <path
       id="path28361"
       style="fill:#ff4500;fill-opacity:1;stroke-width:0.298909"
       d="M 83.901652,21.078607 A 2.3612521,2.371499 0 0 0 81.9613,23.294221 l 4.520474,-0.805272 a 2.3612521,2.371499 0 0 0 -2.580122,-1.410342 z" />
    <path
       style="fill:#221111;fill-opacity:1;stroke-width:0.142558"
       d="M 74.076773,3.435896 C 69.857079,4.203934 65.66116,5.123324 61.50386,6.181244 c -0.819452,1.380916 -1.270868,3.029112 -1.911122,4.528741 -1.908022,5.228629 -3.765497,10.638286 -3.853024,16.260714 -0.0013,3.294449 1.173469,6.852837 4.076967,8.694984 3.330197,2.114803 7.386709,2.708577 11.26159,2.835408 2.055759,1.92e-4 4.145478,0.125305 6.180323,0.004 0.723926,-1.774073 1.261573,-3.743871 1.525362,-5.683995 0.167066,-0.75521 0.281297,-1.83693 -0.853398,-1.486554 -2.924328,-0.08675 -6.010917,0.303916 -8.718565,-0.978134 -1.251011,-0.554671 -1.733791,-2.083747 -1.25239,-3.317526 0.446098,-1.267026 1.134356,-2.51306 2.030333,-3.492938 1.787507,0.256127 3.591,0.645232 5.384054,0.729214 0.883865,-1.015417 1.186146,-2.415691 1.863598,-3.566123 0.459021,-1.024041 1.121614,-1.980649 1.419125,-3.064753 -0.309698,-0.55577 -1.172827,-0.235295 -1.710844,-0.37156 -2.395754,-0.111168 -4.855585,0.01082 -7.166152,0.5918 0.743945,-4.74072 2.442477,-9.265878 4.444905,-13.617488 0.110813,-0.276428 0.381563,-0.775308 -0.147849,-0.811175 z"
       id="path25385" />
    <path
       id="path18984"
       style="fill:#fe4400;fill-opacity:1;stroke-width:0.27755"
       d="m 60.003941,4.358754 c -14.621268,36.36474 0.03711,35.260032 18.618817,35.865724 -0.02189,0.0067 2.424,-5.251035 1.845479,-9.793898 -6.433648,-0.416941 -13.486279,1.731226 -10.4084,-5.096741 l 6.094433,0.759099 5.147088,-9.978183 c -2.966862,-0.06525 -5.810394,-0.298007 -9.350763,0.415732 0.725713,-4.849217 3.559381,-9.933774 5.799816,-14.9521 -6.17319,0.19765 -11.994937,1.389678 -17.74647,2.780367 z M 74.448205,3.490427 c -2.742033,5.392001 -4.223076,10.205744 -4.934811,14.666701 3.182136,-1.090076 9.341557,-0.801015 9.097154,-0.391821 -1.228391,1.805218 -3.147146,6.38884 -3.147146,6.38884 0,0 -5.921404,-0.769589 -5.5968,-0.845418 -5.050779,6.556198 -1.618505,8.830661 8.809221,8.144215 0.09465,2.722347 -1.477829,6.860371 -1.477829,6.860371 C 55.8223,39.157942 50.456263,32.842238 61.524188,6.328493 66.046206,5.188678 70.211628,4.371769 74.448205,3.490427 Z"
       sodipodi:nodetypes="cccccccccccccccccc" />
    <path
       style="fill:#711e00;fill-opacity:1;stroke-width:0.0712788"
       d="m 45.685855,16.392468 c -0.382757,0.227518 -0.226989,0.782175 -0.353473,1.152434 -0.736375,4.866629 -0.987213,9.793303 -1.0239,14.710854 0.01958,0.493899 0.630822,0.642485 0.936535,0.959398 2.715733,2.045185 6.011756,3.146104 9.302935,3.838557 0.535995,-0.08881 0.590349,-0.781612 0.790805,-1.182379 1.106353,-3.304307 2.244251,-6.601772 3.200527,-9.953401 0.388874,-1.561845 0.862989,-3.120691 1.022406,-4.726256 -0.06137,-0.467138 -0.679503,-0.489726 -1.004864,-0.711674 -4.082897,-1.84479 -8.410355,-3.085702 -12.766281,-4.093241 -0.03487,-0.0042 -0.07036,-0.0026 -0.10469,0.0057 z"
       id="path16217" />
    <path
       id="path6566"
       style="fill:#ff4500;fill-opacity:1;fill-rule:nonzero;stroke:none;stroke-width:0.264583"
       d="m 43.917992,14.824782 c -0.454059,5.113321 -0.908118,12.246696 -1.362176,19.790474 4.37272,2.448795 8.736784,4.947502 13.60072,4.56403 2.251252,-5.926046 4.909978,-11.54063 6.054116,-18.312927 -4.33078,-2.687197 -9.53346,-5.042102 -18.29266,-6.041577 z m 1.801864,1.763249 c 4.76304,1.128023 9.422823,2.445373 13.664012,4.530244 -0.788775,5.084085 -2.929853,10.476938 -4.588963,15.759745 -4.39847,-0.812365 -7.99778,-2.536129 -10.22358,-4.464094 -0.04527,-6.032754 0.366881,-11.256205 1.148531,-15.825895 z"
       sodipodi:nodetypes="cccccccccc" />
    <path
       style="fill:#221111;fill-opacity:1;stroke-width:0.0712788"
       d="m 33.214484,4.6063642 c -0.535792,0.2017474 -0.865369,0.7548509 -1.292226,1.1209496 -3.149566,3.3152529 -6.050156,6.8601752 -8.853657,10.4700782 -0.557879,0.721675 -1.090231,1.462413 -1.633633,2.194872 0.0029,-3.219436 -0.01135,-6.466456 0.155928,-9.6795666 0.03538,-0.8659309 0.217685,-1.7277079 0.203947,-2.5915196 -0.242844,-0.4022143 -0.751291,-0.033515 -1.097602,-0.00238 -2.899982,0.8216212 -5.839708,1.7983808 -8.294631,3.5965711 -0.334094,0.4735221 -0.248541,1.1224731 -0.347812,1.6729731 -0.353116,4.160404 0.330284,8.323749 1.121175,12.396251 1.058241,5.103531 2.45428,10.145757 4.283933,15.028016 0.330072,0.720019 0.529902,1.554622 1.097599,2.13136 0.403015,0.223937 0.858605,-0.147403 1.275646,-0.184308 3.801392,-1.057964 7.606712,-2.104602 11.393602,-3.212711 0.406907,-0.303317 -0.116623,-0.738812 -0.245439,-1.056791 -1.70381,-2.703738 -3.465124,-5.416015 -5.730146,-7.690592 3.099438,1.852381 5.558324,4.510643 8.283687,6.839735 0.625566,0.483754 1.256061,1.032234 1.997582,1.304145 4.376587,-0.72125 8.521444,-2.365578 12.6918,-3.814668 0.432149,-0.15491 0.301781,-0.764979 -0.07225,-0.911589 C 43.84624,29.413493 39.445334,26.694793 34.664937,24.767673 33.751812,24.386336 32.816306,24.055524 31.899449,23.695199 35.318865,19.971326 38.828852,16.326475 42.304481,12.659517 42.671218,12.173215 42.039,11.725405 41.805828,11.345418 40.244779,9.3595137 38.592077,7.3662382 36.40073,6.0465971 35.417374,5.4694588 34.402283,4.8816261 33.288547,4.6072399 c -0.02463,-0.00185 -0.0494,-0.00265 -0.07406,-0.00106 z"
       id="path12707" />
    <path
       id="path1599"
       style="fill:#ff4500;fill-opacity:1;fill-rule:nonzero;stroke:none;stroke-width:0.264583"
       d="M 32.46111,2.707249 C 29.087601,5.44756 27.228633,6.92213 24.229274,10.048387 L 24.841189,3.683715 C 24.378191,3.108892 12.605569,5.431223 9.9562814,8.911661 9.9017644,8.617742 9.143024,27.072517 17.548227,43.681825 c 4.941281,-1.917552 16.29596,-4.827453 16.29596,-4.827453 l -1.454597,-2.14806 c 0.995215,0.65813 1.757242,1.212307 2.625837,1.81098 0,0 11.857036,-2.198334 18.171257,-4.533224 C 48.241038,29.56662 39.436943,24.776326 34.860768,23.198505 38.553714,18.287928 42.450551,15.456177 44.652399,12.090241 41.526777,6.346709 35.328131,2.838288 32.46111,2.707249 Z m 9.849093,9.652963 -10.875114,11.417343 c 7.559695,2.630057 12.388289,5.90444 17.148065,8.990862 -3.86257,1.354368 -9.051144,3.370709 -13.108618,3.942793 -3.296737,-1.761295 -5.732032,-5.931087 -12.008032,-9.188622 3.67387,2.608599 7.751893,9.806933 7.751893,9.806933 L 18.775722,40.84486 C 17.985324,41.139143 10.558379,19.349567 12.492894,9.861479 16.004818,7.545558 18.980022,6.834369 21.632629,6.090778 21.003859,9.95207 21.226045,19.061348 21.226045,19.061348 25.63534,12.806871 33.130967,4.433662 33.297286,4.780062 c 4.872101,1.782099 6.819002,4.815062 9.012917,7.58015 z"
       sodipodi:nodetypes="cccccccccccccccccccccccc" />
    <path
       style="fill:#711e00;fill-opacity:1;stroke-width:0.0712788"
       d="m 50.469294,0.43146639 c -1.262632,0.0296639 -2.635584,0.0878136 -3.666961,0.91576541 -2.162382,1.6263543 -2.853915,4.9271801 -1.43713,7.2554007 0.868104,1.5752835 2.703121,2.4957245 4.481375,2.3760065 2.299933,-0.01793 4.460841,-1.5205443 5.414407,-3.5884633 C 56.328219,4.5667231 54.343191,1.0605822 51.39061,0.47784036 51.086437,0.4281769 50.776541,0.43039371 50.469294,0.43146639 Z"
       id="path18214" />
    <path
       id="path16416"
       style="fill:#ff4500;fill-opacity:1;stroke-width:0.264582"
       d="m 50.305797,-1.3593066 c -3.349375,-0.2216511 -6.74995,2.03423 -7.278315,5.4584415 -0.949895,3.9434814 1.884161,8.6103031 6.15128,8.7036981 4.711146,0.370396 9.554874,-4.5021044 7.85092,-9.2575046 -0.925433,-2.8082298 -3.711312,-5.0152412 -6.723885,-4.904635 z m 0.05168,1.9983268 c 3.925986,-0.2863603 6.706067,5.2734879 3.761025,8.0814839 -2.069683,2.6153169 -6.878127,2.9377289 -8.584048,-0.2482105 -1.784945,-2.920849 0.02933,-7.7063547 3.739715,-7.7387307 0.36032,-0.040075 0.722002,-0.065534 1.083308,-0.0945427 z" />
    <path
       style="fill:none;stroke:#ff4500;stroke-width:0.264583px;stroke-linecap:butt;stroke-linejoin:miter;stroke-opacity:1"
       d="m 46.485478,6.243889 c -0.414245,1.696919 1.155816,1.729933 2.259759,1.012939 0.633535,0.584144 0.743734,0.76758 1.422514,0.818314 0.308326,-0.42917 0.331141,-0.880521 0.395931,-1.385482 0.611808,0.152898 1.167411,0.45189 1.764707,0.648192 0.172305,-0.448476 0.127715,-0.910246 0.07211,-1.377407 0.70742,-0.04625 1.666218,-0.625413 1.494353,-1.499082 -0.02753,-0.139949 -0.198059,-0.205298 -0.297088,-0.307947"
       id="path18643" />
    <circle
       style="fill:#ff4500;fill-opacity:1;stroke-width:0.264583;stroke:#ff4500;stroke-opacity:1"
       id="path18749"
       cx="47.940842"
       cy="4.9313579"
       r="0.42934331" />
    <circle
       style="fill:#ff4500;fill-opacity:1;stroke-width:0.264583;stroke:#ff4500;stroke-opacity:1"
       id="path18751"
       cx="50.917427"
       cy="3.5702395"
       r="0.3807568" />
    <path
       style="fill:none;fill-opacity:1;stroke-width:0.264583"
       id="path25749"
       d="m 102.92326,-11.692048 c -2.17909,2.5517665 -4.58563,4.8264495 -5.207176,8.4078025 -0.278471,1.604548 -0.139478,3.47690402 0.776356,4.82352 1.06666,1.568403 3.12852,2.145459 4.69278,3.218188 1.20972,0.732511 2.24565,-0.978297 1.03593,-1.710807 v 0 c -1.25624,-0.635138 -2.85225,-0.836954 -3.76872,-1.905414 -0.80064,-0.93340498 -1.11968,-2.355762 -0.9283,-3.570519 0.49804,-3.161256 2.63297,-5.305223 4.51167,-7.6007625 1.17521,-0.786682 0.0627,-2.448689 -1.11254,-1.662008 z" />
    <path
       style="fill:#711e00;fill-opacity:1;stroke:#000000;stroke-width:0.499999;stroke-miterlimit:4;stroke-dasharray:none;stroke-opacity:1;paint-order:markers fill stroke"
       d="m 104.35827,41.475902 c -0.45308,4.778739 -0.59815,9.705536 -0.33487,14.47519 3.43808,0.326027 7.08544,0.04615 10.60347,0.140303 0.8768,-0.708715 0.10157,-2.280025 0.18098,-3.350103 0.20365,-1.321942 -1.06269,-1.578693 -2.08987,-1.562632 -1.10721,-0.198963 -2.33761,-0.01987 -3.36518,-0.437629 -0.44971,-1.116145 1.26069,-0.723515 1.83375,-0.919385 1.64577,0.310109 1.64665,-2.72588 0.002,-2.561025 -0.71052,-0.23338 -2.36758,0.162802 -1.93288,-1.134892 1.66916,-0.242444 3.47219,-0.05661 5.06358,-0.546842 -0.1989,-1.255144 0.98073,-4.159231 -1.14281,-3.96335 -2.91579,-0.238956 -5.94468,-0.466287 -8.81784,-0.139635 z"
       id="path51557" />
    <path
       id="path37881-2"
       style="display:inline;fill:#ff4500;fill-opacity:1;stroke:#ff4500;stroke-width:0.5;stroke-miterlimit:4;stroke-dasharray:none;stroke-opacity:1;paint-order:markers fill stroke"
       d="m 103.38572,40.484588 c -0.92198,5.165824 -1.05538,16.511209 -1.05538,16.511209 4.44577,0.298833 13.34098,0.106776 13.34098,0.106776 l -0.0486,-6.551238 -2.0943,-0.1158 c 0.0415,-0.759892 -0.0227,-2.728056 -0.20614,-3.792599 l 2.00531,0.273743 0.73247,-6.18848 c -4.07358,-0.480799 -8.21501,-0.782285 -12.6743,-0.243611 z m 10.88816,1.495344 -0.14214,3.653534 c -0.0581,-0.235482 -5.04735,0.243193 -5.04735,0.243193 l -0.10211,1.382269 3.33688,0.347757 c -0.21044,-0.07692 0.0446,1.423342 -0.18998,1.782672 -0.99917,0.2689 -3.05687,0.425539 -3.05687,0.425539 l 0.061,1.353232 5.3615,0.365472 0.25183,4.427271 c -3.34978,-0.196587 -7.53555,0.01173 -10.59821,-0.112618 -0.33831,-4.504046 0.13479,-9.434492 0.36348,-14.128618 2.88793,-0.240458 6.19797,-0.138154 9.76204,0.260297 z"
       sodipodi:nodetypes="cccccccccccccccccccccccc" />
    <path
       style="fill:#711e00;fill-opacity:1;stroke:#000000;stroke-width:0.499999;stroke-miterlimit:4;stroke-dasharray:none;stroke-opacity:1;paint-order:markers fill stroke"
       d="m 96.984812,40.839404 c -1.643422,0.03829 -3.508872,0.431594 -4.693819,1.561451 0.157379,4.335879 -0.320463,8.744522 0.294582,13.041791 0.828508,0.867729 2.392018,0.457161 3.470944,0.819149 1.014828,-0.750949 0.198578,-2.627124 0.454959,-3.834576 -0.109239,-1.370578 0.174921,-1.157303 0.516771,-0.08075 0.714044,1.368904 0.899176,3.190711 2.00026,4.246656 1.622831,-0.336169 3.652081,0.161807 5.070821,-0.736176 -0.55707,-1.958113 -2.28119,-3.499256 -3.34788,-5.241775 -0.37366,-0.694106 -1.418995,-1.710785 -1.32701,-2.368349 1.68879,-0.462848 3.79169,-1.352451 4.39924,-3.146847 -0.13563,-3.152306 -4.289753,-4.25923 -6.838868,-4.260579 z m -0.01614,3.156871 c 0.968033,0.642711 0.898911,2.36653 -0.106918,2.711379 -0.04929,-0.83374 -0.197451,-1.976756 0.106918,-2.711379 z"
       id="path51518" />
    <path
       id="path34775-6"
       style="display:inline;fill:#ff4500;fill-opacity:1;stroke:#ff4500;stroke-width:0.5;stroke-miterlimit:4;stroke-dasharray:none;stroke-opacity:1;paint-order:markers fill stroke"
       d="m 96.022568,39.612097 c -2.40373,-0.0074 -5.11907,1.3255 -5.11907,1.3255 l 0.0646,15.318962 6.72414,1.074353 c 0,0.842545 8.657872,-0.605131 8.657872,-0.605131 -1.52269,-2.649269 -2.88007,-5.400849 -5.06946,-7.637777 7.60415,-2.232517 2.79537,-8.995744 -3.353802,-9.375655 -0.55671,-0.04639 -1.11457,-0.07447 -1.67276,-0.09508 -0.0768,-0.0031 -0.15397,-0.0049 -0.23151,-0.0052 z m 0.94051,1.386479 c 5.442732,-0.02821 10.820412,4.902196 1.78956,7.271907 0,0 5.730222,7.792525 5.682852,7.804175 l -5.646162,0.09663 -2.40812,-5.991883 -0.11059,5.874578 -3.73621,-0.553972 c -0.14267,0.05747 -0.09,-8.625539 0.15607,-13.146484 1.21929,-0.950534 2.74864,-1.347056 4.2726,-1.354956 z m -0.54312,2.721797 0.0744,3.378089 c 1.83898,0.01086 1.96766,-3.401539 -0.0744,-3.378089 z" />
    <path
       style="fill:#221111;fill-opacity:1;stroke:#000000;stroke-width:0.499999;stroke-miterlimit:4;stroke-dasharray:none;stroke-opacity:1;paint-order:markers fill stroke"
       d="m 88.108934,41.988776 c -0.477273,1.542699 -0.482925,3.284343 -0.891304,4.836224 -0.230905,0.749049 -0.269235,1.707117 -0.852241,2.263533 -1.109234,0.21589 -1.33975,-1.229781 -1.517738,-2.003046 -0.352618,-1.50979 -0.445061,-3.084289 -0.90602,-4.564626 -0.725797,-0.658325 -1.872502,-0.469221 -2.787949,-0.59696 -0.706925,-0.04243 -1.79129,0.129654 -1.495457,1.094257 0.315023,3.616442 0.166179,7.457176 1.804519,10.793987 0.835599,1.762625 2.837344,2.792896 4.756745,2.444918 2.093476,-0.18588 3.759544,-1.862895 4.303734,-3.838475 1.027893,-3.265973 1.258525,-6.736236 1.703237,-10.094786 -0.302864,-0.877147 -1.545352,-0.32145 -2.267342,-0.476749 -0.610685,0.05814 -1.284417,-0.138046 -1.850184,0.141723 z"
       id="path55273" />
    <path
       id="path44908"
       style="fill:#ff4500;fill-opacity:1;stroke:#ff4500;stroke-width:0.5;stroke-miterlimit:4;stroke-dasharray:none;stroke-opacity:1;paint-order:markers fill stroke"
       d="m 92.859368,40.971914 c -2.08139,-0.439408 -4.16278,-0.326477 -6.244169,0.09031 -0.04944,1.490917 0.11778,2.324078 -0.577098,5.774404 -0.610823,-1.114215 -0.856898,-3.399801 -1.150726,-5.532031 -2.034869,-0.34469 -4.069738,-0.34128 -6.104607,-0.152666 -0.330989,10.864429 -0.244259,16.304511 6.596724,16.446973 7.491856,0.156017 7.900166,-5.465894 7.479876,-16.626993 z m -4.42028,1.370054 3.35316,-0.09535 c -1.01269,7.359926 -0.9,13.506518 -6.23376,13.636207 -5.009914,0.121814 -5.118997,-6.887774 -5.444922,-13.419389 1.17218,-0.192441 2.344359,-0.081 3.516539,0.233257 0.766987,4.639646 0.8793,6.826457 2.382565,6.904017 1.564368,0.08071 1.616458,-2.422934 2.380528,-7.157703 l 0.0459,-0.101046 z"
       sodipodi:nodetypes="cccccscccscccsccc" />
    <g
       id="g55393"
       style="stroke:#000000;stroke-width:0.5;stroke-miterlimit:4;stroke-dasharray:none;stroke-opacity:1;paint-order:markers fill stroke;fill:#221111;fill-opacity:1"
       transform="translate(-9.6154352,64.002021)">
      <path
         style="fill:#221111;fill-opacity:1;stroke:#000000;stroke-width:1.88976;stroke-miterlimit:4;stroke-dasharray:none;stroke-opacity:1;paint-order:markers fill stroke"
         d="m 311.72333,-86.339589 c -5.99728,0.349512 -12.39865,-0.256476 -18.05507,2.064699 -2.54461,2.329537 -1.16444,6.465518 -1.84176,9.543142 -0.0443,4.317096 -0.82977,8.729146 -0.23768,13.004388 2.13943,2.527869 5.88212,0.338493 8.68033,0.531243 3.07055,-0.30567 6.41716,-0.988243 9.27793,-0.965862 0.63346,10.108954 0.60088,20.404965 1.16021,30.511077 1.6562,2.920018 5.80515,0.564318 8.60975,0.885616 2.59972,0.1438 6.54708,-0.0811 5.55567,-3.762771 -0.2223,-9.84798 -0.44479,-19.695956 -0.66753,-29.543927 5.36941,-0.152189 10.948,1.047379 16.1798,0.0074 1.43489,-3.268051 -0.38467,-7.11841 -0.1768,-10.605526 -0.67087,-3.037488 0.58846,-7.034292 -1.63975,-9.375848 -8.69381,-2.201855 -17.89788,-2.229599 -26.8451,-2.293598 z"
         id="path55234"
         transform="scale(0.26458333)" />
    </g>
    <path
       id="path42885"
       style="fill:#fe4400;fill-opacity:1;stroke:#fe4400;stroke-width:0.5;stroke-miterlimit:4;stroke-dasharray:none;stroke-opacity:1;paint-order:markers fill stroke"
       d="m 80.848946,40.970495 c -4.175185,-0.392117 -8.872234,-0.346663 -13.914439,-0.01181 l -0.09461,7.936574 4.755836,-0.747153 -0.315323,8.869604 c 3.282578,0.165194 4.200975,0.115676 6.50951,-0.07649 -0.334114,-2.740252 -0.958566,-6.059091 -0.880404,-8.807803 l 4.739364,-0.463859 z m -1.074587,1.22436 0.376369,4.561228 -4.420202,-0.189152 0.122357,8.758412 c -0.913224,0.06487 -1.87532,0.145599 -2.847794,0.229697 l -0.244853,-8.584189 -4.87189,0.634717 0.263826,-5.501215 c 2.060605,-0.799313 9.497695,-0.593504 11.622187,0.0905 z"
       sodipodi:nodetypes="cccccccccccccccccc" />
    <g
       id="g57857"
       style="stroke:#000000;stroke-width:0.5;stroke-miterlimit:4;stroke-dasharray:none;stroke-opacity:1;paint-order:markers fill stroke;fill:#711e00;fill-opacity:1"
       transform="translate(-7.6176003,64.728357)">
      <path
         style="fill:#711e00;fill-opacity:1;stroke:#000000;stroke-width:1.88976;stroke-miterlimit:4;stroke-dasharray:none;stroke-opacity:1;paint-order:markers fill stroke"
         d="m 204.88933,-85.50508 c -2.56322,-0.215834 -6.45955,0.124549 -6.5319,3.519039 -1.24207,13.693166 -1.72618,27.474543 -1.92116,41.224527 0.23219,3.998659 -0.26152,8.277 1.11086,12.039881 4.91445,1.285001 10.29259,0.182314 15.38527,0.549323 8.56049,-0.131246 17.22094,0.264675 25.71873,-0.197228 2.84895,-1.618254 0.95962,-5.874128 1.34273,-8.632831 -0.43662,-3.522817 0.19004,-7.331209 -1.15906,-10.630944 -5.95819,-1.401731 -12.33244,-0.901198 -18.44513,-1.678102 -3.77329,-1.209414 1.35794,-2.954326 3.53657,-2.596521 2.69934,-0.374529 7.19853,-0.267835 6.96968,-4.151498 0.49675,-2.787556 0.13506,-6.857479 -3.47379,-7.098062 -2.8002,-0.623665 -6.30646,-0.178798 -8.70394,-1.168103 -0.49857,-2.880662 3.0657,-1.823898 4.77266,-2.229267 4.56315,-0.550635 9.44067,0.254942 13.79385,-1.169804 1.41577,-4.776423 1.36889,-10.136231 1.0519,-15.079531 -1.73954,-2.786322 -6.14252,-1.494614 -9.05603,-2.085258 -8.1262,-0.324289 -16.25887,-0.546699 -24.39124,-0.615621 z"
         id="path57659"
         transform="scale(0.26458333)" />
    </g>
    <path
       id="path37881"
       style="fill:#ff4500;fill-opacity:1;stroke:#ff4500;stroke-width:0.5;stroke-miterlimit:4;stroke-dasharray:none;stroke-opacity:1;paint-order:markers fill stroke"
       d="m 44.17018,41.415968 c -0.92198,5.165824 -1.055374,16.511208 -1.055374,16.511208 4.445767,0.298833 13.340978,0.106776 13.340978,0.106776 l -0.04864,-6.551237 -2.094305,-0.1158 c 0.04154,-0.759892 -0.02273,-2.728056 -0.206135,-3.792599 l 2.005308,0.273743 0.732472,-6.18848 C 52.7709,41.17878 48.629473,40.877294 44.170183,41.415968 Z m 10.888165,1.495344 -0.142146,3.653534 c -0.05806,-0.235482 -5.047348,0.243193 -5.047348,0.243193 l -0.102104,1.382269 3.336879,0.347757 c -0.210444,-0.07692 0.04459,1.423342 -0.189981,1.782672 -0.99917,0.2689 -3.056874,0.425539 -3.056874,0.425539 l 0.06097,1.353232 5.361498,0.365472 0.251835,4.42727 c -3.349782,-0.196587 -7.535554,0.01173 -10.598208,-0.112618 -0.338312,-4.504045 0.134785,-9.434491 0.363475,-14.128617 2.887936,-0.240458 6.197973,-0.138154 9.762041,0.260297 z"
       sodipodi:nodetypes="cccccccccccccccccccccccc" />
    <path
       style="fill:#221111;fill-opacity:1;stroke:#000000;stroke-width:0.499999;stroke-miterlimit:4;stroke-dasharray:none;stroke-opacity:1;paint-order:markers fill stroke"
       d="m 34.976586,41.9443 c -1.491638,0.02891 -3.184289,0.423249 -4.148648,1.604887 0.04854,4.397245 -0.306049,8.881716 -0.0072,13.224999 1.224198,0.168696 2.560648,0.697944 3.763854,0.533477 0.561527,-1.525589 0.180459,-3.274514 0.355282,-4.861993 0.862036,1.610807 1.118132,3.659315 2.271453,5.016245 1.851734,-0.108465 3.800846,0.208619 5.595385,-0.149797 -0.257212,-1.528111 -1.868321,-2.745941 -2.650842,-4.149435 -0.77207,-1.214739 -1.980158,-2.43417 -2.584807,-3.616055 1.68311,-0.820327 4.345389,-1.471194 4.567412,-3.682551 -0.608648,-2.956056 -4.591511,-3.965619 -7.16185,-3.919777 z m 0.06182,3.299985 c 1.193175,0.31782 1.380969,2.099332 0.174297,2.496985 0.0075,-0.797103 -0.15449,-1.85951 -0.174297,-2.496985 z"
       id="path51401" />
    <path
       id="path34775"
       style="fill:#ff4500;fill-opacity:1;stroke:#ff4500;stroke-width:0.499999;stroke-miterlimit:4;stroke-dasharray:none;stroke-opacity:1;paint-order:markers fill stroke"
       d="m 34.369177,40.723998 c -2.403734,-0.0074 -5.119068,1.3255 -5.119068,1.3255 l 0.0646,15.318961 6.724137,1.074353 c 0,0.842545 8.65787,-0.60513 8.65787,-0.60513 -1.52269,-2.649269 -2.880069,-5.400849 -5.069459,-7.637777 7.604152,-2.232517 2.795371,-8.995744 -3.3538,-9.375655 -0.556712,-0.04639 -1.114573,-0.07447 -1.672765,-0.09508 -0.07679,-0.0031 -0.153971,-0.0049 -0.23151,-0.0052 z m 0.940509,1.386478 c 5.442731,-0.02821 10.820408,4.902197 1.789557,7.271908 0,0 5.730227,7.792524 5.682856,7.804174 l -5.646166,0.09663 -2.408121,-5.991882 -0.110588,5.874577 -3.736208,-0.553972 c -0.142666,0.05747 -0.08996,-8.625539 0.156065,-13.146484 1.219295,-0.950533 2.748642,-1.347056 4.272605,-1.354956 z m -0.543118,2.721798 0.07441,3.378088 c 1.838981,0.01086 1.967656,-3.401538 -0.07441,-3.378088 z" />
    <path
       style="fill:#221111;fill-opacity:1;stroke:#000000;stroke-width:0.499999;stroke-miterlimit:4;stroke-dasharray:none;stroke-opacity:1;paint-order:markers fill stroke"
       d="m 23.151633,42.333839 c -5.390299,-0.228106 -9.342462,6.261918 -6.888982,10.989184 1.645615,3.636636 6.248461,4.093529 9.742918,3.572849 0.895369,-0.04015 2.579394,-0.538442 1.805917,-1.742432 -0.368933,-1.012014 -1.068888,-2.642367 -2.424594,-1.883876 -2.965212,0.725995 -5.488681,-3.83528 -3.450339,-5.995214 1.702096,-1.006432 3.652062,0.249936 5.394357,-0.12975 0.917368,-0.627394 1.724035,-1.566072 2.211313,-2.528726 -1.549363,-1.765561 -4.128315,-2.293558 -6.39059,-2.282035 z"
       id="path51362" />
    <path
       id="path30681"
       style="fill:#ff4500;fill-opacity:1;stroke:#ff4500;stroke-width:0.5;stroke-miterlimit:4;stroke-dasharray:none;stroke-opacity:1;paint-order:markers fill stroke"
       d="m 15.255679,54.519456 c 3.302004,6.302468 14.980803,2.962766 14.651876,2.128893 l -2.404484,-5.798974 c -3.9899,4.520663 -8.446917,-5.48446 -0.02059,-1.660559 L 30.95125,44.718695 C 19.313241,34.661419 11.552363,48.021246 15.255684,54.519456 Z m 14.121498,-9.928487 -2.340039,2.790515 c -10.377222,-4.444939 -5.41543,9.487274 -0.514123,5.603496 l 1.464883,2.885183 c -0.144438,0.942891 -11.803871,3.272153 -12.226352,-5.239514 -0.34562,-6.963099 7.399879,-10.861033 13.615631,-6.03968 z"
       sodipodi:nodetypes="ccccccccccsc" />
    <path
       style="fill:#711e00;fill-opacity:1;stroke:#000000;stroke-width:0.499999;stroke-miterlimit:4;stroke-dasharray:none;stroke-opacity:1;paint-order:markers fill stroke"
       d="m 61.763121,41.767812 c -1.284981,0.120342 -2.743562,0.02413 -3.851002,0.774879 -0.586351,0.773761 -0.29871,1.884216 -0.521327,2.787354 -0.363559,3.736966 -0.749647,7.489577 -1.107316,11.212306 0.312026,0.871533 1.529403,0.290511 2.251845,0.415069 0.951987,0.220561 1.593059,-0.384567 1.724443,-1.298835 0.407419,-1.006543 0.749247,-2.078863 1.244415,-3.029389 0.686784,-0.0019 1.546288,-0.197156 2.087057,0.08437 0.680283,1.365644 1.053203,2.937153 1.931286,4.170362 0.923751,-0.01167 2.018795,0.35692 2.864514,-0.131977 0.50409,-0.830151 -0.07697,-1.881778 -0.100234,-2.784884 C 67.55634,50.13525 66.915649,46.26453 65.817937,42.519024 65.206062,41.706649 63.972588,41.933922 63.07302,41.78746 62.636799,41.76549 62.1998,41.76044 61.763121,41.76781 Z m 0.712232,5.021535 c 0.04187,0.269713 0.673838,1.024168 0.04455,0.884859 -0.814991,0.413206 -0.06249,-1.134341 -0.04455,-0.884859 z"
       id="path57737" />
    <path
       id="path40193"
       style="fill:#ff4500;fill-opacity:1;stroke:#ef4101;stroke-width:0.499999;stroke-miterlimit:4;stroke-dasharray:none;stroke-opacity:1;paint-order:markers fill stroke"
       d="m 63.193223,41.05798 c -2.706198,-0.0058 -4.318746,0.461669 -6.023406,0.577742 -1.278689,5.773564 -1.529596,10.976097 -1.75183,16.194877 l 5.09478,0.06305 c 0.246088,-1.412965 0.390644,-2.887756 1.227314,-3.940844 l 1.530139,0.100769 c 0.642186,0.915987 1.128318,2.274838 1.596802,3.682979 l 4.333584,-0.0956 C 69.402682,57.519936 67.982835,44.725246 66.307761,41.252283 65.118834,41.114639 64.095288,41.059921 63.193223,41.05798 Z m -1.192175,1.143599 c 1.294823,-0.0089 2.572919,0.12166 3.438549,0.355017 0.866989,3.294727 2.256972,9.977807 2.749187,13.96969 l -2.471685,0.02325 -1.897559,-4.433529 -2.700092,0.07958 -1.681551,4.351364 -2.709913,-0.0036 1.382345,-13.719576 c 0.934296,-0.422645 2.42325,-0.612052 3.890719,-0.622184 z m 0.310007,3.370954 c -0.301699,0.827639 -0.599657,1.655995 -0.756492,2.511375 l 1.915645,0.06511 C 63.20731,47.210575 62.827847,46.347284 62.311055,45.572533 Z"
       sodipodi:nodetypes="sccccccccssccccccccsscccc" />
    <path
       style="fill:#ff4500;fill-opacity:1;stroke:none;stroke-width:0.499999;stroke-opacity:1;paint-order:markers fill stroke"
       id="path138045"
       d="m 12.884158,29.242397 c -1.873612,-0.870947 -2.630428,1.127112 -3.0808942,2.543056 -0.040349,0.271103 -0.126106,0.539269 -0.1210485,0.813311 0.02951,1.59907 1.2894047,2.241603 2.5930827,2.732029 1.142881,0.281887 2.183821,-0.05316 3.145243,-0.663541 0.593924,-0.383738 0.05124,-1.223674 -0.542688,-0.839935 v 0 c -0.682699,0.451834 -1.429759,0.73592 -2.258376,0.56457 -0.752923,-0.266999 -1.902533,-0.67189 -1.947033,-1.653664 -0.01,-0.22053 0.05732,-0.437774 0.08597,-0.656661 0.164638,-0.548458 0.500334,-1.791378 1.099782,-2.060639 0.221015,-0.09927 0.370635,0.02506 0.566466,0.109657 0.62804,0.324911 1.087531,-0.563274 0.459491,-0.888183 z" />
    <path
       style="fill:#ff4500;fill-opacity:1;stroke:none;stroke-width:0.499999;stroke-opacity:1;paint-order:markers fill stroke"
       id="path138047"
       d="M 11.507677,29.259894 C 11.270839,27.734973 10.690613,26.235522 9.5590169,25.143737 9.2984105,24.892298 8.9883257,24.6978 8.7029803,24.474832 8.4047271,24.335311 8.1064742,24.195789 7.8082214,24.056267 7.1638265,23.765138 6.7521085,24.676451 7.3965035,24.967577 v 0 c 0.232872,0.100434 0.4657439,0.200867 0.6986159,0.3013 0.235032,0.175395 0.4905806,0.326218 0.7050966,0.526182 1.0114594,0.942853 1.508006,2.266212 1.717007,3.602683 0.09747,0.700355 1.087927,0.56251 0.990454,-0.137848 z" />
    <path
       style="fill:#ff4500;fill-opacity:1;stroke:none;stroke-width:0.499999;stroke-opacity:1;paint-order:markers fill stroke"
       id="path138049"
       d="m 9.5123118,31.817449 c -1.6351533,0.308115 -2.8478209,1.53379 -3.4404355,3.057382 -0.1356212,0.348679 -0.1985704,0.721421 -0.2978556,1.08213 -0.1021964,1.252212 -0.1353464,0.64402 0.077823,1.825631 0.1400093,0.693107 1.1202114,0.495104 0.9802021,-0.198004 v 0 c -0.197768,-0.847341 -0.151376,-0.392017 -0.091787,-1.369975 0.077286,-0.301461 0.126688,-0.611484 0.231858,-0.904389 0.4382159,-1.220446 1.3780199,-2.246352 2.6790428,-2.50246 0.7002581,-0.09818 0.5614101,-1.088496 -0.1388481,-0.990315 z" />
    <path
       style="fill:#ff4500;fill-opacity:1;stroke:none;stroke-width:0.499999;stroke-opacity:1;paint-order:markers fill stroke"
       id="path138051"
       d="m 11.679963,34.526285 c -1.097541,0.97477 -1.501416,2.554851 -1.49816,3.98072 7.94e-4,0.350721 0.06088,0.698799 0.09132,1.048197 0.06573,0.704046 1.0614,0.611092 0.995671,-0.09295 v 0 c -0.02978,-0.295596 -0.08435,-0.589736 -0.08933,-0.886783 -0.01877,-1.118902 0.251715,-2.425401 1.077898,-3.232714 0.57733,-0.408278 -6.2e-5,-1.224745 -0.577392,-0.816467 z" />
    <path
       style="fill:#ff4500;fill-opacity:1;stroke:none;stroke-width:0.499999;stroke-opacity:1;paint-order:markers fill stroke"
       id="path138053"
       d="m 101.24462,40.530419 c 0.35555,-0.824328 0.94316,-1.645835 1.84091,-1.924079 0.1694,-0.0525 0.34934,-0.06144 0.524,-0.09216 0.13637,0.038 0.286,0.04409 0.4091,0.11399 0.65264,0.370552 0.92388,1.394881 1.01076,2.076667 0.0245,0.183081 0.004,0.283864 -0.0277,0.43684 -0.21065,0.675003 0.74395,0.9729 0.9546,0.297897 v 0 c 0.0753,-0.289308 0.10055,-0.57146 0.0636,-0.872315 -0.16875,-1.143873 -0.62345,-2.460434 -1.81763,-2.922085 -0.24907,-0.09629 -0.52895,-0.07377 -0.79343,-0.110648 -0.25175,0.05664 -0.51235,0.0828 -0.75524,0.169915 -1.13718,0.407852 -1.90631,1.422784 -2.35467,2.500942 -0.22984,0.668713 0.71587,0.993751 0.9457,0.325038 z" />
    <path
       style="fill:#ff4500;fill-opacity:1;stroke:none;stroke-width:0.499999;stroke-opacity:1;paint-order:markers fill stroke"
       id="path138057"
       d="m 102.45731,38.314129 c -0.73392,-1.704091 -2.0233,-3.074749 -3.606267,-4.026651 -0.320172,-0.192532 -0.66699,-0.336802 -1.000487,-0.505201 -0.63245,-0.316241 -1.079683,0.578178 -0.447233,0.894418 v 0 c 0.295299,0.146013 0.602017,0.270905 0.885896,0.438039 1.413566,0.832253 2.567021,2.038202 3.230441,3.546983 0.24578,0.663017 1.18343,0.315429 0.93765,-0.347588 z" />
    <path
       style="fill:#ff4500;fill-opacity:1;stroke:none;stroke-width:0.499999;stroke-opacity:1;paint-order:markers fill stroke"
       id="path138059"
       d="m 101.06951,39.352788 c -1.246684,-1.730478 -3.326904,-2.450137 -5.290859,-3.031466 -0.678272,-0.199869 -0.960929,0.759351 -0.282659,0.95922 v 0 c 1.725985,0.506151 3.591795,1.103151 4.721518,2.595785 0.3702,0.602456 1.2222,0.07892 0.852,-0.523539 z" />
    <path
       style="fill:#ff4500;fill-opacity:1;stroke:none;stroke-width:0.499999;stroke-opacity:1;paint-order:markers fill stroke"
       id="path138061"
       d="m 105.693,39.076719 c 0.40304,-1.583841 1.36699,-2.361017 2.71491,-3.173714 0.40074,-0.226782 0.81804,-0.378722 1.26838,-0.456192 0.69471,-0.131818 0.50828,-1.11429 -0.18643,-0.982469 v 0 c -0.56514,0.113868 -1.09976,0.28944 -1.60208,0.584573 -1.59523,0.979971 -2.71494,1.958271 -3.17658,3.837895 -0.13428,0.69424 0.84752,0.884147 0.9818,0.189907 z" />
    <path
       style="fill:#ff4500;fill-opacity:1;stroke:none;stroke-width:0.499999;stroke-opacity:1;paint-order:markers fill stroke"
       id="path138063"
       d="m 106.55239,40.71581 c 0.15816,-0.0998 0.3059,-0.218435 0.47447,-0.29941 1.55724,-0.748015 3.60018,-0.897229 5.30712,-0.912792 0.75257,0.04644 0.42401,0.0078 0.98818,0.09219 0.69983,0.101197 0.84294,-0.888511 0.14311,-0.989706 v 0 c -0.67118,-0.09434 -0.29116,-0.05309 -1.14217,-0.102426 -2.15535,0.02696 -4.52838,0.219737 -6.37934,1.418686 -0.56105,0.430366 0.0476,1.223822 0.60863,0.793456 z" />
    <path
       style="fill:#ff4500;fill-opacity:1;stroke:none;stroke-width:0.499999;stroke-opacity:1;paint-order:markers fill stroke"
       id="path138069"
       d="m 84.705164,15.369049 c 0.291534,-0.985088 1.053823,-1.628568 2.078263,-1.766438 0.242041,-0.03257 0.488368,-0.0086 0.732549,-0.01289 1.624179,0.255094 2.126932,1.379582 2.425007,2.84749 0.03828,0.341865 0.08177,0.687184 0.01654,1.027769 -0.106013,0.699115 0.882685,0.84904 0.988698,0.149925 v 0 c 0.06112,-0.462879 0.0526,-0.921408 -0.02678,-1.38421 -0.33469,-1.537866 -0.911439,-2.928924 -2.542156,-3.472716 -0.288984,-0.09637 -0.598927,-0.111714 -0.89839,-0.16757 -0.322914,0.01676 -0.650357,-0.0062 -0.968743,0.05027 -1.364152,0.241826 -2.385235,1.159424 -2.773035,2.47765 -0.177286,0.684522 0.790777,0.935243 0.968061,0.250721 z" />
    <path
       style="fill:#ff4500;fill-opacity:1;stroke:none;stroke-width:0.499999;stroke-opacity:1;paint-order:markers fill stroke"
       id="path138071"
       d="M 85.908391,12.976342 C 85.079624,11.095709 83.465446,9.8216919 81.866085,8.6215102 81.299871,8.1979536 80.70087,8.9987039 81.267087,9.4222605 v 0 c 1.455803,1.0853455 2.945148,2.2268645 3.71398,3.9283405 0.264641,0.655718 1.191966,0.281458 0.927324,-0.374259 z" />
    <path
       style="fill:#ff4500;fill-opacity:1;stroke:none;stroke-width:0.499999;stroke-opacity:1;paint-order:markers fill stroke"
       id="path138077"
       d="m 90.780215,15.594044 c 0.403576,-0.08614 1.139645,-0.265863 1.54119,-0.249309 1.5094,0.06223 2.528059,1.006101 3.492153,2.039781 0.134498,0.198958 0.268999,0.397916 0.4035,0.596875 0.400889,0.582484 1.224648,0.01554 0.823756,-0.566943 v 0 c -0.167002,-0.239123 -0.334007,-0.478245 -0.501009,-0.717367 -0.266721,-0.278253 -0.508797,-0.582431 -0.800164,-0.83476 -1.010195,-0.874846 -2.181294,-1.46982 -3.538214,-1.510363 -0.43824,-0.01309 -1.213054,0.175313 -1.659247,0.270829 -0.686785,0.168317 -0.448747,1.139574 0.238035,0.971257 z" />
    <path
       style="fill:#ff4500;fill-opacity:1;stroke:none;stroke-width:0.499999;stroke-opacity:1;paint-order:markers fill stroke"
       id="path138079"
       d="m 84.522575,14.570809 c -1.456073,-1.227709 -3.349929,-1.481538 -5.189392,-1.453868 -0.203247,0.02568 -0.406492,0.05136 -0.60974,0.07705 -0.701061,0.09226 -0.570582,1.083715 0.13048,0.991452 v 0 c 0.165819,-0.02289 0.331636,-0.04578 0.497456,-0.06866 1.592646,-0.03471 3.25438,0.154104 4.521179,1.213952 0.537345,0.459632 1.187362,-0.300289 0.650017,-0.75992 z" />
    <path
       style="fill:#ff4500;fill-opacity:1;stroke:none;stroke-width:0.499999;stroke-opacity:1;paint-order:markers fill stroke"
       id="path138081"
       d="m 29.5574,54.505607 c -0.358145,1.065734 -1.359437,1.634329 -2.045074,2.454344 -0.224934,0.269021 -0.410721,0.568484 -0.616082,0.852726 -0.640768,1.414444 -0.376773,0.698703 -0.801147,2.143821 -0.196451,0.67927 0.764181,0.957093 0.960633,0.277823 v 0 c 0.356512,-1.254617 0.138401,-0.640858 0.654759,-1.841122 0.170391,-0.242792 0.321433,-0.500388 0.511174,-0.728377 0.761338,-0.914812 1.862353,-1.56287 2.251441,-2.75736 0.284154,-0.647502 -0.631549,-1.049356 -0.915704,-0.401855 z" />
    <path
       style="fill:#ff4500;fill-opacity:1;stroke:none;stroke-width:0.499999;stroke-opacity:1;paint-order:markers fill stroke"
       id="path138083"
       d="m 29.719875,56.242679 c -0.507233,0.93467 -0.802036,1.9558 -0.87651,3.018935 -0.03007,0.429255 0.0087,0.860574 0.01309,1.290858 0.01076,0.707027 1.010642,0.691814 0.999885,-0.01521 v 0 c -0.0079,-0.376449 -0.04597,-0.753472 -0.02373,-1.129347 0.05455,-0.921886 0.299027,-1.810415 0.729116,-2.625519 0.381636,-0.595276 -0.46021,-1.134991 -0.841847,-0.539716 z" />
    <circle
       id="path138085"
       style="fill:#ff4500;stroke:#000000;stroke-width:0.264583"
       cx="-56.945999"
       cy="-14.260711"
       r="0.017942062" />
    <circle
       id="path138087"
       style="fill:#ff4500;stroke:#000000;stroke-width:0.264583"
       cx="-56.945999"
       cy="-14.260711"
       r="0.017942062" />
  </g>
</svg>
