<?xml version="1.0" encoding="UTF-8" standalone="no"?>
<!-- Created with Inkscape (http://www.inkscape.org/) -->

<svg
   width="96.370789mm"
   height="124.40684mm"
   viewBox="0 0 96.370789 124.40684"
   version="1.1"
   id="svg5"
   sodipodi:docname="kitecreature.svg"
   inkscape:version="1.1.2 (0a00cf5339, 2022-02-04)"
   xmlns:inkscape="http://www.inkscape.org/namespaces/inkscape"
   xmlns:sodipodi="http://sodipodi.sourceforge.net/DTD/sodipodi-0.dtd"
   xmlns="http://www.w3.org/2000/svg"
   xmlns:svg="http://www.w3.org/2000/svg">
  <sodipodi:namedview
     id="namedview7"
     pagecolor="#ffffff"
     bordercolor="#666666"
     borderopacity="1.0"
     inkscape:pageshadow="2"
     inkscape:pageopacity="0.0"
     inkscape:pagecheckerboard="0"
     inkscape:document-units="mm"
     showgrid="false"
     showguides="true"
     inkscape:zoom="2.2948373"
     inkscape:cx="59.045581"
     inkscape:cy="226.15983"
     inkscape:window-width="1920"
     inkscape:window-height="1029"
     inkscape:window-x="0"
     inkscape:window-y="27"
     inkscape:window-maximized="1"
     inkscape:current-layer="layer4"
     fit-margin-top="0"
     fit-margin-left="0"
     fit-margin-right="0"
     fit-margin-bottom="0" />
  <defs
     id="defs2" />
  <g
     inkscape:groupmode="layer"
     id="layer3"
     inkscape:label="Layer 3"
     transform="translate(-56.373887,-34.470235)"
     sodipodi:insensitive="true">
    <path
       style="fill:#000000;fill-opacity:1;stroke-width:2;stroke-linecap:square;stroke-linejoin:round;paint-order:stroke markers fill"
       id="path34732"
       d="m 84.360545,125.35114 c -7.531462,5.84894 8.955864,5.16304 0,0 z" />
    <path
       style="fill:#000000;fill-opacity:1;stroke-width:2;stroke-linecap:square;stroke-linejoin:round;paint-order:stroke markers fill"
       id="path34734"
       d="m 71.590905,129.62576 c -7.120837,3.33512 6.697301,3.49358 0,0 z" />
    <path
       style="fill:#000000;fill-opacity:1;stroke-width:2;stroke-linecap:square;stroke-linejoin:round;paint-order:stroke markers fill"
       id="path34736"
       d="m 122.73756,120.18028 c -4.88949,7.12778 8.93833,1.80443 0,0 z" />
    <path
       style="fill:#000000;fill-opacity:1;stroke-width:2;stroke-linecap:square;stroke-linejoin:round;paint-order:stroke markers fill"
       id="path34738"
       d="m 124.83565,120.12445 c -6.01135,5.43693 8.00517,2.53613 0,0 z" />
    <path
       style="fill:#000000;fill-opacity:1;stroke-width:2;stroke-linecap:square;stroke-linejoin:round;paint-order:stroke markers fill"
       id="path34740"
       d="m 128.73522,123.53389 c -5.30906,4.6698 6.54394,1.24597 0,0 z" />
    <path
       style="fill:#000000;fill-opacity:1;stroke-width:2;stroke-linecap:square;stroke-linejoin:round;paint-order:stroke markers fill"
       id="path34742"
       d="m 128.30998,118.12257 c -2.74917,5.14297 5.19649,-1.3151 0,0 z" />
    <path
       style="fill:#000000;fill-opacity:1;stroke-width:2;stroke-linecap:square;stroke-linejoin:round;paint-order:stroke markers fill"
       id="path34744"
       d="m 127.92325,115.59636 c -4.02546,6.97776 8.30077,0.20209 0,0 z" />
    <path
       style="fill:#000000;fill-opacity:1;stroke-width:2;stroke-linecap:square;stroke-linejoin:round;paint-order:stroke markers fill"
       id="path34746"
       d="m 124.81929,113.64021 c -3.54082,4.97615 5.84655,-0.35011 0,0 z" />
    <path
       style="fill:#000000;fill-opacity:1;stroke-width:2;stroke-linecap:square;stroke-linejoin:round;paint-order:stroke markers fill"
       id="path34748"
       d="m 116.27633,116.89637 c -7.04001,2.53239 6.2345,4.53722 0,0 z" />
    <path
       style="fill:#000000;fill-opacity:1;stroke-width:2;stroke-linecap:square;stroke-linejoin:round;paint-order:stroke markers fill"
       id="path34750"
       d="m 111.39888,122.70923 c -6.03419,6.07585 7.70016,1.80256 0,0 z" />
    <path
       style="fill:#000000;fill-opacity:1;stroke-width:2;stroke-linecap:square;stroke-linejoin:round;paint-order:stroke markers fill"
       id="path34752"
       d="m 102.00852,124.5445 c -3.881641,4.28853 4.94694,-0.31654 0,0 z" />
    <path
       style="fill:#000000;fill-opacity:1;stroke-width:2;stroke-linecap:square;stroke-linejoin:round;paint-order:stroke markers fill"
       id="path34754"
       d="m 97.732119,121.80552 c 6.738881,6.11133 3.495451,-8.60108 0,0 z" />
    <path
       style="fill:#000000;fill-opacity:1;stroke-width:2;stroke-linecap:square;stroke-linejoin:round;paint-order:stroke markers fill"
       id="path34756"
       d="m 96.470839,122.85129 c 10.450151,6.7085 6.983151,-11.8226 0,0 z" />
    <path
       style="fill:#000000;fill-opacity:1;stroke-width:2;stroke-linecap:square;stroke-linejoin:round;paint-order:stroke markers fill"
       id="path34762"
       d="m 106.61768,142.18884 c -1.98868,6.54428 6.3433,-2.38933 0,0 z" />
  </g>
  <g
     inkscape:groupmode="layer"
     id="layer2"
     inkscape:label="Layer 2"
     style="display:inline"
     transform="translate(-56.373887,-34.470235)"
     sodipodi:insensitive="true">
    <path
       style="fill:#44891a;fill-opacity:1;stroke-width:3.29394;stroke-linecap:square;stroke-linejoin:round;paint-order:stroke markers fill"
       d="m 374.95851,201.04997 c -20.011,-0.008 -40.15127,1.21416 -59.62348,6.11937 -5.85695,1.66857 -12.17918,2.30887 -17.57682,5.26573 -1.97439,1.2253 -3.09932,4.13225 -1.11493,5.90319 3.0177,3.07358 7.77789,5.16041 8.28796,10.00207 1.31136,7.05041 -5.41855,13.50494 -12.31875,13.11453 -3.39471,0.37367 -5.93601,-2.14209 -8.73904,-3.47672 -2.50962,0.31213 -0.35162,3.23129 -0.0761,4.58346 14.733,39.55553 17.01121,82.25248 16.30826,124.1078 0.0343,5.27518 -0.41341,10.64412 -0.083,15.86169 1.49034,1.59333 2.92157,-1.38885 4.34597,-2.12217 3.61201,-2.60674 7.94523,-5.42617 12.60472,-4.09207 5.65007,1.02022 9.04082,7.0964 8.95097,12.52472 0.35896,6.04739 -1.84571,11.8118 -3.70737,17.43128 0.47625,2.33792 3.59649,0.93327 5.19083,1.16685 10.32142,0.0248 20.7727,8.63993 20.78119,19.34284 -0.15426,6.63192 -7.33301,11.5914 -13.68476,11.01884 -5.1143,0.35292 -10.2521,-0.7148 -14.73331,-3.29089 -2.22419,-0.87513 -3.96084,-2.71859 -6.11342,-3.57545 -1.61106,1.35031 -0.38415,4.10136 0.0426,5.93639 1.89331,4.30315 7.34967,4.93325 11.38254,5.96277 8.41233,1.65373 16.80404,3.63519 25.39754,4.33377 12.96001,1.55125 26.05601,0.93109 39.07791,0.5717 14.59558,-0.82448 29.24677,-2.66937 43.32868,-6.68949 17.25334,-5.2354 34.10812,-15.99115 41.81153,-32.87067 1.23376,-1.71538 0.0247,-3.96871 -2.11405,-3.79524 -2.80299,-0.26387 -5.72306,-0.63689 -8.44627,-0.87577 -1.55989,1.37786 -0.41519,3.95668 -1.62729,5.65041 -1.745,5.11684 -7.45292,7.68508 -12.47025,8.26159 -5.69799,0.7895 -12.76829,-1.3938 -14.79203,-7.37474 -0.36318,-2.33074 1.01357,-5.36587 -1.43665,-7.05388 -4.02575,-2.24962 -9.70106,-1.50805 -12.87963,-5.20104 -2.47038,-4.65025 -3.3006,-10.95444 0.26469,-15.29418 3.80321,-5.11608 10.87169,-8.26089 17.0917,-5.92533 2.49141,-0.0418 1.51524,-3.60488 2.6018,-5.0921 2.73106,-5.97036 8.41587,-12.03453 15.51632,-11.43191 2.86885,0.20727 4.74569,2.726 7.20537,3.70141 1.77226,-1.6278 0.39583,-4.71504 0.46376,-6.92065 -1.07262,-8.79148 -2.44884,-17.5841 -3.42132,-26.36483 -1.20947,-2.055 -3.06106,0.45052 -3.18224,1.89624 -5.54296,17.4176 -18.9893,32.0024 -35.8136,39.11213 -14.9664,6.70695 -31.70317,9.29204 -48.00992,7.31852 -15.61661,-1.44068 -30.52066,-7.50041 -43.35877,-16.32154 -8.60961,-6.6761 -16.22797,-15.02734 -20.0414,-25.37846 -6.12431,-16.03135 -6.41489,-34.33657 -0.90316,-50.50951 4.27664,-12.75577 13.23091,-23.77977 24.20395,-31.55595 4.88182,-3.82708 10.90012,-6.91384 17.23641,-6.55424 8.30202,-1.60258 16.52626,-4.07918 25.00593,-4.1192 9.77626,-0.13682 19.67992,-0.62586 29.44995,0.3357 23.66879,4.41894 43.54643,22.73736 51.42076,45.34442 0.76038,3.67583 3.39319,0.75599 2.73129,-1.71306 0.75263,-10.41764 1.24099,-20.94704 2.39462,-31.27742 -1.3581,-1.62987 -4.27594,-0.08 -6.14932,-1.20251 -6.05137,-1.94626 -9.9497,-8.38882 -9.27353,-14.65586 -0.38658,-4.36848 1.15008,-8.64569 4.18101,-11.80278 0.95292,-2.48082 -3.08645,-2.20692 -4.60401,-3.11947 -6.25337,-2.31047 -13.47839,-5.23331 -16.25677,-11.80384 -1.4058,-3.27036 0.88348,-6.32939 1.90135,-9.19694 -2.23355,-1.57928 -5.59766,-0.8737 -8.2811,-1.52527 -16.04907,-1.81017 -32.19239,-2.81475 -48.34737,-2.68424 z"
       id="path5150"
       transform="scale(0.26458333)" />
    <path
       style="fill:#f7e26b;fill-opacity:1;stroke-width:2.32917;stroke-linecap:square;stroke-linejoin:round;paint-order:stroke markers fill"
       d="m 375.05845,247.77574 c -6.65593,-0.28587 -13.12986,1.41888 -19.47819,3.19968 -3.98064,1.06995 -7.99155,2.00421 -12.05753,2.58316 -4.96152,3.06258 -8.92104,7.49717 -12.9847,11.62505 -9.16437,9.7315 -16.05576,22.13359 -17.15303,35.63875 -1.0343,11.37028 -0.81094,23.21266 3.20291,34.03477 2.95146,7.66075 7.76403,14.79899 14.68367,19.39655 13.98522,10.37607 30.66757,17.6594 48.15393,18.91622 10.86319,0.31067 21.97362,0.1646 32.38519,-3.33462 16.14713,-5.0625 30.82172,-16.29851 37.86682,-31.94435 5.91345,-12.48945 6.65693,-27.02877 3.02231,-40.27829 -3.54975,-13.57664 -11.21315,-25.99228 -21.66904,-35.34358 -9.28701,-9.46114 -22.73406,-13.48639 -35.68526,-14.17664 -6.7552,-0.3538 -13.5249,-0.30145 -20.28708,-0.3167 z m 35.02926,26.11698 c 4.62579,0.81452 6.80085,6.26033 6.301,10.43427 0.14584,3.31826 -1.53985,6.79073 -4.54611,8.31829 -3.00634,0.88258 -5.09388,-2.3111 -6.04042,-4.70921 -1.69468,-4.28581 -2.08056,-10.33106 2.07626,-13.34224 0.6723,-0.38003 1.42481,-0.71216 2.20927,-0.70111 z m -57.70385,3.89073 c 4.25573,0.42639 6.21995,5.24371 5.45666,9.01639 -0.45534,3.85875 -4.2947,7.83136 -8.39532,6.3323 -3.32675,-1.35228 -3.64817,-5.42006 -3.1836,-8.48559 0.40858,-3.17119 2.48783,-6.94381 6.12226,-6.8631 z m 31.63381,26.66703 c 8.96695,0.12933 16.51289,6.94133 19.83523,14.91599 3.32589,7.21042 3.21394,15.45532 1.25057,22.98694 -2.55526,9.27914 -10.42473,17.10784 -19.86531,19.04504 -5.27223,0.79078 -10.6734,-0.0999 -15.54549,-2.31518 -5.96769,-3.40288 -8.83164,-10.40743 -9.58287,-16.95542 -0.66173,-10.82886 1.56723,-22.59009 9.11826,-30.90394 3.69261,-4.23968 9.11015,-6.94055 14.78961,-6.77343 z"
       id="path6513"
       transform="scale(0.26458333)" />
    <path
       style="fill:#eb8931;fill-opacity:1;stroke-width:4.65833;stroke-linecap:square;stroke-linejoin:round;paint-order:stroke markers fill"
       d="m 381.91553,308.25335 c -8.48046,0.30633 -12.96668,8.84982 -14.70836,16.13708 -2.10716,9.20802 -3.50781,20.10056 2.15811,28.36355 4.7453,5.57192 12.98486,5.67128 19.2641,2.89954 10.69286,-3.91099 14.49749,-16.77348 12.97153,-27.15029 -1.15586,-10.14757 -8.57501,-20.45022 -19.68538,-20.24988 z"
       id="path10920"
       transform="scale(0.26458333)" />
    <path
       style="fill:#91121d;fill-opacity:1;stroke-width:4.65833;stroke-linecap:square;stroke-linejoin:round;paint-order:stroke markers fill"
       d="m 314.79508,378.38649 c -7.1638,0.70181 -11.7741,7.60512 -12.52567,14.30729 -0.11347,2.68849 -2.19541,6.53813 0.23661,8.62187 4.51075,1.65039 10.86468,-1.14326 14.28589,3.10777 0.57231,2.12508 3.15328,1.37491 3.30156,-0.57774 2.3231,-6.39181 3.87517,-13.72792 1.86442,-20.38709 -1.24266,-2.63177 -4.24071,-4.89443 -7.16281,-5.0721 z"
       id="path14743"
       transform="scale(0.26458333)" />
    <path
       style="fill:#91121d;fill-opacity:1;stroke-width:1.16458;stroke-linecap:square;stroke-linejoin:round;paint-order:stroke markers fill"
       d="m 323.39533,410.15421 c -1.36852,-0.13745 -3.00606,0.38488 -3.35934,1.88097 -0.63244,2.9945 0.99749,6.03319 0.19349,9.02362 -1.02064,2.0805 -3.07064,3.81988 -2.94047,6.33109 0.0749,2.80889 2.67977,4.58452 5.03569,5.53941 3.14628,1.28148 6.57037,1.80275 9.95793,1.61708 3.18755,0.0265 6.54687,-0.06 9.42322,-1.60023 2.11091,-1.4641 3.11907,-4.13338 3.32593,-6.61605 0.11696,-4.42673 -2.80645,-8.27028 -6.06088,-10.97651 -3.62122,-2.97844 -8.14869,-4.93943 -12.86951,-5.09407 -0.90042,-0.0656 -1.80304,-0.10992 -2.70606,-0.10531 z"
       id="path14782"
       transform="scale(0.26458333)" />
    <path
       style="fill:#91121d;fill-opacity:1;stroke-width:1.16458;stroke-linecap:square;stroke-linejoin:round;paint-order:stroke markers fill"
       d="m 297.95449,402.61617 c -1.26499,0.37827 -0.8539,2.02332 -1.11043,3.01546 -0.13515,2.62263 -0.80867,5.18888 -0.82441,7.81541 0.0435,1.16227 1.7324,1.53863 2.19964,0.4321 1.2188,-2.32428 1.54153,-5.03637 1.55178,-7.62981 -0.13752,-1.14865 -0.1909,-2.46332 -0.95779,-3.38822 -0.23745,-0.19582 -0.5532,-0.2915 -0.85879,-0.24494 z"
       id="path14897"
       transform="scale(0.26458333)" />
    <path
       style="fill:#91121d;fill-opacity:1;stroke-width:1.16458;stroke-linecap:square;stroke-linejoin:round;paint-order:stroke markers fill"
       d="m 299.94199,427.21416 c -1.10213,0.18833 -1.04447,1.54099 -0.47875,2.24207 1.98157,3.24074 5.49503,5.02682 8.60265,6.9979 0.83402,0.62518 2.00316,0.7043 2.77376,-0.0797 1.11429,-0.67734 1.56898,-2.35613 0.48236,-3.27808 -2.14034,-1.76014 -4.89002,-2.53321 -7.31911,-3.80495 -1.30886,-0.52019 -2.38306,-1.47593 -3.65048,-2.05072 -0.13377,-0.0446 -0.27304,-0.0251 -0.41043,-0.0265 z"
       id="path14936"
       transform="scale(0.26458333)" />
    <path
       style="fill:#91121d;fill-opacity:1;stroke-width:2.32917;stroke-linecap:square;stroke-linejoin:round;paint-order:stroke markers fill"
       d="m 454.89706,362.14831 c -3.82358,-0.17534 -7.61207,1.80187 -9.39855,5.23459 -1.15431,2.31988 -3.19684,5.15112 -1.86924,7.7905 1.60035,2.02675 4.63741,1.19899 6.86876,1.59112 2.71212,0.0514 5.80869,0.16206 7.62115,2.51627 1.55531,1.48444 4.16087,3.85503 6.3004,2.01548 2.29614,-2.66575 1.31491,-6.65206 0.43331,-9.70307 -1.48104,-4.39507 -4.7714,-9.42764 -9.95583,-9.44489 z"
       id="path14975"
       transform="scale(0.26458333)" />
    <path
       style="fill:#91121d;fill-opacity:1;stroke-width:2.32917;stroke-linecap:square;stroke-linejoin:round;paint-order:stroke markers fill"
       d="m 464.97807,386.28652 c -1.11885,1.93393 -0.18731,4.45827 -1.32881,6.48636 -0.92516,2.1511 -2.93748,5.10513 -0.82328,7.17785 2.21222,1.58873 5.04636,2.854 7.82119,2.5517 2.92879,-0.77503 3.0699,-4.50151 2.62391,-6.94675 -0.73588,-4.02173 -3.00693,-8.82949 -7.54857,-9.39976 -0.24815,0.0435 -0.49629,0.0871 -0.74444,0.1306 z"
       id="path15014"
       transform="scale(0.26458333)" />
    <path
       style="fill:#91121d;fill-opacity:1;stroke-width:2.32917;stroke-linecap:square;stroke-linejoin:round;paint-order:stroke markers fill"
       d="m 435.25441,378.1584 c -4.30255,0.30441 -9.46948,1.11143 -11.84914,5.19487 -3.52949,5.81146 -0.15013,14.15191 5.87793,16.78944 3.51943,1.34606 7.92362,0.0874 10.37409,-2.69914 0.50991,-1.73322 -1.95565,-2.62864 -1.79822,-4.4107 -0.49651,-4.25808 2.37453,-8.03793 1.98118,-12.24875 -0.35674,-2.15374 -2.72154,-2.71251 -4.58584,-2.62572 z"
       id="path15053"
       transform="scale(0.26458333)" />
    <path
       style="fill:#91121d;fill-opacity:1;stroke-width:2.32917;stroke-linecap:square;stroke-linejoin:round;paint-order:stroke markers fill"
       d="m 440.56844,398.6153 c -2.72067,3.23709 -5.03804,8.19459 -2.42652,12.1663 3.13547,4.50172 9.2702,4.89707 14.24015,4.15734 4.18065,-0.7411 8.34297,-3.84828 8.86294,-8.30926 0.70221,-2.10932 -0.058,-5.15651 -2.6841,-5.28755 -4.82327,-0.61386 -9.94178,2.03223 -14.50736,-0.32498 -1.3564,-0.52838 -1.80506,-3.12594 -3.48511,-2.40185 z"
       id="path15092"
       transform="scale(0.26458333)" />
    <path
       style="fill:#91121d;fill-opacity:1;stroke-width:2.32917;stroke-linecap:square;stroke-linejoin:round;paint-order:stroke markers fill"
       d="m 435.55833,205.34596 c -2.54155,2.12801 -4.62831,6.0872 -2.49091,9.19815 2.64128,4.19935 7.49897,6.36714 11.98695,8.02942 3.56283,1.16656 7.72068,1.54138 11.21363,0.004 2.01469,-1.14803 2.81128,-3.43406 2.96394,-5.61133 0.89641,-2.17346 2.42131,-4.95371 0.54464,-7.07915 -2.64567,-2.81132 -6.93565,-2.45347 -10.44932,-2.9832 -4.44865,-0.40204 -9.01877,-0.41323 -13.32328,-1.6023 l -0.30663,0.0304 z"
       id="path15131"
       transform="scale(0.26458333)" />
    <path
       style="fill:#91121d;fill-opacity:1;stroke-width:2.32917;stroke-linecap:square;stroke-linejoin:round;paint-order:stroke markers fill"
       d="m 459.94328,225.71621 c -4.13255,2.68788 -7.55123,6.47687 -10.15683,10.63708 -2.02889,5.11188 0.17621,11.10459 3.79404,14.93689 1.89087,2.1194 5.48181,3.23262 7.73192,1.0088 2.46507,-1.23976 0.8031,-4.02969 1.28247,-6.04944 0.49853,-5.18768 3.75947,-9.76853 3.79926,-15.01048 -0.13457,-3.18008 -3.51274,-5.01504 -6.20532,-5.64081 z"
       id="path15207"
       transform="scale(0.26458333)" />
    <path
       style="fill:#91121d;fill-opacity:1;stroke-width:2.32917;stroke-linecap:square;stroke-linejoin:round;paint-order:stroke markers fill"
       d="m 291.51748,218.92954 c -1.83987,-0.17321 -2.41328,1.98145 -1.78619,3.38039 0.86852,4.63514 -4.0312,7.49311 -4.83318,11.68665 0.0663,2.91716 3.51523,3.81968 5.75139,4.65252 2.74162,1.00302 6.1052,1.5541 8.50561,-0.54513 3.696,-2.56825 3.56378,-7.77636 2.42231,-11.65355 -1.29635,-4.41906 -5.40414,-7.62927 -10.05994,-7.52088 z"
       id="path15246"
       transform="scale(0.26458333)" />
    <path
       style="fill:#f7e26b;fill-opacity:1;stroke-width:2.32917;stroke-linecap:square;stroke-linejoin:round;paint-order:stroke markers fill"
       d="m 283.57953,216.94234 c -2.23283,0.57075 -3.62568,2.81005 -5.02997,4.49135 -1.51347,2.56589 -2.21148,6.49301 0.004,8.85089 2.64375,1.82034 5.83423,-0.63172 7.4607,-2.73525 1.99592,-2.35543 2.86492,-6.05541 0.68307,-8.59091 -0.74717,-0.9855 -1.79001,-2.02986 -3.11741,-2.01608 z"
       id="path17068"
       transform="scale(0.26458333)" />
    <path
       style="fill:#f7e26b;fill-opacity:1;stroke-width:2.32917;stroke-linecap:square;stroke-linejoin:round;paint-order:stroke markers fill"
       d="m 466.02402,209.92638 c -1.92068,0.7887 -2.35343,3.29481 -3.26795,4.97303 -1.7339,3.47275 -1.11321,7.94174 1.48778,10.79453 2.31539,1.755 5.1679,-0.5931 6.2655,-2.69914 2.1253,-3.4428 2.7347,-8.78041 -0.87985,-11.47963 -1.06444,-0.736 -2.26934,-1.55726 -3.60548,-1.58879 z"
       id="path17107"
       transform="scale(0.26458333)" />
    <path
       style="fill:#f7e26b;fill-opacity:1;stroke-width:2.32917;stroke-linecap:square;stroke-linejoin:round;paint-order:stroke markers fill"
       d="m 449.79367,378.16803 c -5.13359,0.28771 -8.83934,5.33634 -8.99774,10.23928 -0.91413,5.72569 3.78187,11.76777 9.71446,11.65211 3.41173,0.20432 6.88953,-1.24883 8.71613,-4.2233 2.53689,-3.79506 2.2923,-9.15436 -0.0349,-12.99018 -1.96154,-3.22387 -5.71163,-4.8077 -9.39794,-4.67791 z"
       id="path17146"
       transform="scale(0.26458333)" />
    <path
       style="fill:#f7e26b;fill-opacity:1;stroke-width:2.32917;stroke-linecap:square;stroke-linejoin:round;paint-order:stroke markers fill"
       d="m 309.05979,404.04729 c -3.24057,0.45357 -5.26608,3.69163 -6.47192,6.45988 -1.9792,5.13272 -2.1363,11.88853 1.95349,16.06064 1.92656,1.53763 4.7523,1.08686 6.97624,0.55006 4.39564,-2.28101 5.9098,-7.83083 5.58836,-12.45741 -0.41042,-4.53557 -2.97184,-10.07852 -8.04617,-10.61317 z"
       id="path17185"
       transform="scale(0.26458333)" />
    <path
       style="fill:#91121d;fill-opacity:1;stroke-width:2.32917;stroke-linecap:square;stroke-linejoin:round;paint-order:stroke markers fill"
       d="m 293.55582,212.6189 c -2.2058,0.50096 -4.91239,0.77028 -6.42618,2.63174 -0.81401,1.91256 1.78691,2.64897 3.17277,2.05038 1.79832,-0.53643 3.75074,-1.72295 4.49075,-3.50136 0.0967,-0.6936 -0.57434,-1.25655 -1.23734,-1.18076 z"
       id="path21000"
       transform="scale(0.26458333)" />
    <path
       style="fill:#44891a;fill-opacity:1;stroke-width:2;stroke-linecap:square;stroke-linejoin:round;paint-order:stroke markers fill"
       id="path22281"
       d="m 74.217436,62.413197 c -0.0036,0.05699 -0.01355,0.113935 -0.0109,0.170984 0.02138,0.462203 0.283985,1.062757 0.45834,1.485551 0.17132,0.341566 0.384109,0.978048 0.765231,1.147982 0.116355,0.05188 0.248912,0.05443 0.373366,0.08165 0.0042,0.0098 0.14215,-0.04979 0.137941,-0.05955 v 0 c 0.05573,-0.103143 0.135334,-0.196607 0.167203,-0.30943 C 76.20959,64.572918 75.839041,63.999685 75.71724,63.679767 75.444397,63.12115 75.6545,63.540768 75.381968,63.021992 75.27954,62.82702 75.187531,62.619894 75.071292,62.432325 c -0.01892,-0.03052 -0.04323,-0.05734 -0.06485,-0.08602 -0.0047,-0.05579 -0.793742,0.01109 -0.789013,0.06688 z" />
    <path
       style="fill:#44891a;fill-opacity:1;stroke-width:2;stroke-linecap:square;stroke-linejoin:round;paint-order:stroke markers fill"
       id="path22283"
       d="m 123.50074,100.67196 c -0.11994,0.20859 -0.19821,0.43838 -0.26336,0.66911 -0.0862,0.28043 -0.0537,0.50754 0.12715,0.74197 0.16795,0.18245 0.39705,0.29475 0.64058,0.33203 0.0354,-0.003 0.0739,0.005 0.10608,-0.01 0.12732,-0.0598 0.25194,-0.23623 0.33034,-0.32739 0.004,0.001 0.0242,-0.05 0.0206,-0.0514 v 0 c 0.005,-0.0459 0.0515,-0.302 0.0202,-0.38517 -0.009,-0.025 -0.0413,-0.0338 -0.062,-0.0506 -0.0353,-0.0147 -0.25362,-0.0882 -0.28795,-0.0823 -0.007,10e-4 -0.007,0.0112 -0.0109,0.0168 -0.007,0.0364 3e-5,-0.009 0.008,0.071 0.0158,0.14832 -0.0329,0.14814 0.0328,0.002 0.0823,-0.20559 0.17365,-0.40962 0.22721,-0.62492 0.0213,-0.0629 -0.86788,-0.36386 -0.88916,-0.30098 z" />
    <path
       style="fill:#44891a;fill-opacity:1;stroke-width:2;stroke-linecap:square;stroke-linejoin:round;paint-order:stroke markers fill"
       id="path22285"
       d="m 78.159892,111.74726 c -0.01595,0.32818 0.03709,0.65155 0.09023,0.97447 0.02302,0.0567 0.03156,0.12174 0.06907,0.17009 0.118387,0.1526 0.313004,0.19494 0.480028,0.2618 0.0013,0.007 0.106159,-0.0123 0.104764,-0.0197 v 0 c 0.251537,-0.18933 0.377571,-0.21895 0.383175,-0.55075 -0.05166,-0.33394 -0.119208,-0.6623 -0.263766,-0.96977 -0.0095,-0.0611 -0.872961,0.0728 -0.863494,0.13388 z" />
    <path
       style="fill:#44891a;fill-opacity:1;stroke-width:4.65833;stroke-linecap:square;stroke-linejoin:round;paint-order:stroke markers fill"
       d="m 295.90049,434.20966 c -0.31974,8.69087 -3.16829,17.13442 -5.46195,25.32295 2.70369,1.76295 6.9736,0.57911 10.26805,1.43376 5.42993,0.68089 10.81125,1.99795 15.7483,4.3451 2.64714,-0.73696 0.92816,-4.65401 1.21687,-6.68135 -0.7731,-4.01669 -0.0298,-8.90311 -2.64317,-12.27944 -6.42021,-3.32289 -12.76953,-6.76352 -17.59347,-12.28666 -0.60094,-0.41978 -1.01439,-0.27209 -1.53463,0.14564 z"
       id="path26205"
       transform="scale(0.26458333)" />
    <path
       style="fill:#44891a;fill-opacity:1;stroke-width:4.65833;stroke-linecap:square;stroke-linejoin:round;paint-order:stroke markers fill"
       d="m 327.96882,484.60687 c -1.21518,4.69105 -0.13815,10.08913 -0.50312,15.04177 0.24018,8.58615 -0.48297,17.38786 0.3635,25.83833 11.7295,2.64802 23.98396,1.21425 35.74301,-0.66921 2.77257,-1.00746 7.70929,-0.78719 6.85176,-5.01401 0.70149,-10.50488 2.6826,-20.87575 3.55362,-31.32841 -0.98283,-2.30516 -3.80271,0.21523 -5.50721,-0.13202 -13.2909,2.48176 -27.16316,1.66125 -39.6518,-3.80506 l -0.61426,0.0496 z"
       id="path26244"
       transform="scale(0.26458333)" />
    <path
       style="fill:#44891a;fill-opacity:1;stroke-width:4.65833;stroke-linecap:square;stroke-linejoin:round;paint-order:stroke markers fill"
       d="m 390.00393,510.98443 c -4.52125,0.38767 -9.81314,0.12642 -13.52399,3.0512 -1.2169,6.2264 -0.82048,12.76691 -1.3577,19.10403 1.81426,2.34863 6.06468,0.7615 8.83449,1.54753 7.46249,0.39752 14.41975,3.2468 21.35617,5.6586 3.18915,-0.42579 0.64799,-4.19867 0.12533,-5.93839 -2.7394,-7.21032 -4.80288,-14.70954 -7.1136,-21.99787 -2.17389,-1.7453 -5.68128,-1.22134 -8.3207,-1.4251 z"
       id="path26283"
       transform="scale(0.26458333)" />
    <path
       style="fill:#44891a;fill-opacity:1;stroke-width:4.65833;stroke-linecap:square;stroke-linejoin:round;paint-order:stroke markers fill"
       d="m 432.93502,461.69817 c -2.59406,1.48682 -6.72659,0.75377 -8.40134,3.46526 -1.4397,10.08296 -0.71981,20.39562 -2.0209,30.51203 1.92552,2.43454 6.4743,0.40137 9.46017,0.94388 1.77567,-0.10715 6.15962,0.45656 5.34328,-2.60489 -3.03949,-10.2589 -3.16946,-20.78321 -3.08611,-31.36782 -0.0966,-0.71732 -0.65245,-0.99783 -1.2951,-0.94846 z"
       id="path26322"
       transform="scale(0.26458333)" />
    <path
       style="fill:#44891a;fill-opacity:1;stroke-width:4.65833;stroke-linecap:square;stroke-linejoin:round;paint-order:stroke markers fill"
       d="m 460.69796,467.66577 c -7.8727,0.14217 -16.90546,0.82372 -22.79315,6.66089 -1.19421,4.27583 0.90024,8.91746 1.57795,13.20113 2.45155,9.32522 5.77744,18.53289 9.03978,27.4541 3.78048,-0.48781 7.35935,-3.604 11.33128,-4.53195 6.13376,-2.30963 12.76711,-2.1716 19.14534,-3.01983 1.21277,-2.5127 -2.06744,-5.16264 -2.69493,-7.67675 -4.88574,-9.88663 -7.23004,-20.68324 -9.35462,-31.38948 -1.74101,-1.20802 -4.26155,-0.48772 -6.25165,-0.69811 z"
       id="path26361"
       transform="scale(0.26458333)" />
    <path
       style="fill:#44891a;fill-opacity:1;stroke-width:4.65833;stroke-linecap:square;stroke-linejoin:round;paint-order:stroke markers fill"
       d="m 446.5565,540.07858 c -2.12117,4.00648 -5.19437,7.41698 -7.68518,11.16247 0.6556,2.77854 4.53336,0.37812 6.49748,0.60617 16.06053,-2.07753 32.57407,0.56464 47.79348,5.93556 3.04221,0.77831 5.76891,3.53577 8.93936,3.53025 1.80258,-2.44667 -0.44161,-5.97438 -0.56541,-8.71759 -0.9364,-3.06766 -1.04394,-6.55314 -2.57727,-9.33686 -17.17739,0.59664 -34.89593,1.73119 -51.56353,-3.33406 l -0.60612,0.11131 z"
       id="path26400"
       transform="scale(0.26458333)" />
    <path
       style="fill:#44891a;fill-opacity:1;stroke-width:4.65833;stroke-linecap:square;stroke-linejoin:round;paint-order:stroke markers fill"
       d="m 510.2779,501.14114 c -6.50988,4.53725 -13.84945,8.22905 -19.81352,13.36736 1.16675,3.15079 3.17514,6.61017 5.4843,9.26691 3.49224,-0.47159 6.52789,-3.228 10.23206,-3.42673 7.47654,-1.50537 15.23532,0.10656 22.64871,-0.47424 0.22209,-2.80503 -3.88301,-4.14814 -5.44402,-6.3347 -4.47699,-3.89433 -8.13151,-8.83654 -12.62006,-12.55627 z"
       id="path26439"
       transform="scale(0.26458333)" />
    <path
       style="fill:#44891a;fill-opacity:1;stroke-width:4.65833;stroke-linecap:square;stroke-linejoin:round;paint-order:stroke markers fill"
       d="m 474.65887,433.20704 c -1.16584,10.38985 -2.52906,20.94498 -1.70314,31.38827 1.86968,2.08445 3.92061,-1.75824 5.46568,-2.73705 1.90409,-2.47894 6.70137,-4.52273 4.20431,-8.17533 -2.73996,-6.83389 -4.12752,-14.29208 -6.56944,-21.12706 -0.70677,-0.19404 -1.04705,0.0833 -1.39741,0.65117 z"
       id="path26478"
       transform="scale(0.26458333)" />
    <path
       style="fill:#44891a;fill-opacity:1;stroke-width:4.65833;stroke-linecap:square;stroke-linejoin:round;paint-order:stroke markers fill"
       d="m 258.7047,476.47394 c -5.02448,5.90412 -8.84124,13.07156 -13.31186,19.51931 -3.1905,2.93079 -1.80514,5.84234 2.28059,4.0887 3.58131,-0.59393 7.40717,0.0389 10.85795,-0.32859 4.6487,-5.73954 9.20496,-11.82456 12.53341,-18.40953 -1.09649,-2.40156 -4.85975,-2.07464 -6.98627,-3.3149 -1.78279,-0.511 -3.53282,-1.31062 -5.37382,-1.55499 z"
       id="path26517"
       transform="scale(0.26458333)" />
    <path
       style="fill:#44891a;fill-opacity:1;stroke-width:4.65833;stroke-linecap:square;stroke-linejoin:round;paint-order:stroke markers fill"
       d="m 290.6298,432.09127 c -4.71684,4.41353 -7.83356,10.45544 -11.88088,15.50978 -3.52927,2.56494 -1.16936,5.3781 1.27689,7.56382 1.05772,1.26055 3.46561,4.30528 4.59546,1.50815 2.97555,-7.73 5.94767,-15.66865 7.39391,-23.81142 -0.11952,-0.59728 -0.82305,-0.96485 -1.38538,-0.77033 z"
       id="path26556"
       transform="scale(0.26458333)" />
    <path
       style="fill:#44891a;fill-opacity:1;stroke-width:4.65833;stroke-linecap:square;stroke-linejoin:round;paint-order:stroke markers fill"
       d="m 386.45683,456.57673 c -2.67697,0.43703 -7.39134,-0.85158 -8.5554,2.44938 0.92594,4.79607 0.97491,9.91965 2.29652,14.54467 4.081,-0.4156 8.35604,-1.55645 12.48305,-0.84631 1.3071,-3.78615 0.0989,-8.52386 0.95067,-12.67888 2.18207,-5.49347 -4.29758,-2.8976 -7.17484,-3.46886 z"
       id="path26595"
       transform="scale(0.26458333)" />
    <path
       style="fill:#44891a;fill-opacity:1;stroke-width:4.65833;stroke-linecap:square;stroke-linejoin:round;paint-order:stroke markers fill"
       d="m 279.79351,538.00593 c -14.73252,0.57232 -29.27531,3.33691 -43.8988,5.04803 -5.66295,6.98232 -10.71286,14.75663 -15.69896,22.33818 0.26824,2.99963 4.02465,0.1737 5.71243,-0.0325 25.43118,-8.69223 54.09406,-4.95675 77.93026,6.93291 1.20584,1.14822 3.97566,1.06667 3.17036,-1.13623 -2.949,-9.8059 -4.96734,-19.81305 -5.81594,-30.00169 -1.0679,-3.9245 -6.32579,-2.08589 -9.26289,-2.81383 -4.043,-0.17459 -8.08901,-0.34523 -12.13646,-0.33487 z"
       id="path26634"
       transform="scale(0.26458333)" />
    <path
       style="fill:#91121d;fill-opacity:1;stroke-width:4.65833;stroke-linecap:square;stroke-linejoin:round;paint-order:stroke markers fill"
       d="m 288.94953,462.94273 c -5.67479,11.81743 -12.55575,23.00246 -19.64686,34.03385 0.1722,2.71465 4.03032,0.92784 5.79307,1.17715 11.21817,-0.75368 22.60221,-0.4758 33.73495,0.21307 3.56431,-8.77557 6.37887,-18.28309 8.4848,-27.6739 0.89761,-2.56932 -1.59442,-4.57527 -4.04179,-4.35353 -8.05618,-1.19436 -16.25138,-3.38319 -24.32417,-3.39664 z"
       id="path28621"
       transform="scale(0.26458333)" />
    <path
       style="fill:#91121d;fill-opacity:1;stroke-width:4.65833;stroke-linecap:square;stroke-linejoin:round;paint-order:stroke markers fill"
       d="m 321.74605,449.32846 c -1.36212,2.34941 1.34902,5.10292 1.37816,7.58769 2.23607,8.32385 2.92721,16.94185 4.26687,25.41947 3.2782,2.08512 7.80684,1.81263 11.55134,2.92733 11.06684,2.56799 22.61731,2.44827 33.83154,1.11085 2.5106,-1.49143 1.07917,-5.46617 1.72166,-7.88935 -0.0581,-6.74134 0.89116,-13.75291 -0.58302,-20.34782 -2.63229,-2.9354 -7.36466,-0.8819 -10.75685,-1.75489 -13.77161,-1.05957 -27.3702,-3.59925 -40.69113,-7.18688 l -0.60588,0.11265 z"
       id="path28699"
       transform="scale(0.26458333)" />
    <path
       style="fill:#91121d;fill-opacity:1;stroke-width:4.65833;stroke-linecap:square;stroke-linejoin:round;paint-order:stroke markers fill"
       d="m 377.15277,536.08494 c -2.56025,1.09442 -1.2379,5.63411 1.75248,4.95294 10.22255,0.27915 19.96881,2.36802 29.51784,6.03019 2.06972,0.96994 2.83891,-2.14925 0.74384,-2.61309 -9.96367,-4.90543 -21.05853,-7.12611 -32.01416,-8.37004 z"
       id="path28738"
       transform="scale(0.26458333)" />
    <path
       style="fill:#91121d;fill-opacity:1;stroke-width:4.65833;stroke-linecap:square;stroke-linejoin:round;paint-order:stroke markers fill"
       d="m 437.43539,446.31939 c -4.95593,1.49348 -10.21531,2.7503 -14.77697,5.03358 0.4822,3.64921 0.4204,7.51639 0.99902,11.08062 3.53954,-0.18269 7.45835,-1.22635 10.75082,-2.784 2.18832,-2.95931 2.19611,-7.10988 3.79351,-10.43472 0.34956,-1.00819 1.06921,-2.91198 -0.76638,-2.89548 z"
       id="path28777"
       transform="scale(0.26458333)" />
    <path
       style="fill:#91121d;fill-opacity:1;stroke-width:4.65833;stroke-linecap:square;stroke-linejoin:round;paint-order:stroke markers fill"
       d="m 491.72514,476.04184 c -4.69995,4.492 -8.9796,9.67495 -12.7332,14.99362 0.85035,5.86513 4.12234,11.22929 6.76681,16.48853 1.25377,1.45831 2.35686,6.04132 4.89275,4.01893 5.62522,-4.83034 12.35615,-8.26391 18.33732,-12.43793 -1.20907,-3.29517 -4.6882,-5.99565 -6.51684,-9.26821 -3.46116,-4.49542 -6.09012,-9.77691 -10.07401,-13.79374 -0.11709,0.72639 -0.46501,-0.11238 -0.67283,-0.001 z"
       id="path28816"
       transform="scale(0.26458333)" />
    <path
       style="fill:#91121d;fill-opacity:1;stroke-width:4.65833;stroke-linecap:square;stroke-linejoin:round;paint-order:stroke markers fill"
       d="m 416.97247,452.56382 c -6.2781,1.28792 -12.67264,2.23103 -18.91118,3.5132 -0.86877,11.99083 0.29746,24.50275 1.80397,36.58598 0.85077,4.93169 1.27913,10.20788 2.9128,14.87664 2.94337,0.46016 5.88321,-1.83003 8.88277,-2.09731 3.88095,0.14127 4.92282,-2.75459 4.69938,-6.05778 0.86861,-15.3441 1.80245,-30.71685 2.02532,-46.07568 -0.30915,-0.5527 -0.78071,-0.8742 -1.41306,-0.74505 z"
       id="path28894"
       transform="scale(0.26458333)" />
    <path
       style="fill:#91121d;fill-opacity:1;stroke-width:4.65833;stroke-linecap:square;stroke-linejoin:round;paint-order:stroke markers fill"
       d="m 319.10769,482.31997 c -4.27026,13.92442 -8.53018,28.16309 -10.9747,42.62537 -0.67278,3.54553 4.44244,3.05151 6.51486,4.24788 1.90319,0.28539 6.33966,3.06602 6.169,-0.59968 0.32365,-15.2945 0.53871,-30.66807 -0.20703,-45.92692 -0.43742,-0.58824 -0.87669,-0.57825 -1.50213,-0.34665 z"
       id="path28933"
       transform="scale(0.26458333)" />
    <path
       style="fill:#91121d;fill-opacity:1;stroke-width:3.29394;stroke-linecap:square;stroke-linejoin:round;paint-order:stroke markers fill"
       d="m 442.41887,518.43358 c -7.98803,0.72223 -16.02502,1.8645 -23.83407,3.52269 -0.83252,1.41343 -1.16129,3.18651 -1.38814,4.79166 1.221,2.05906 3.91539,-0.33108 5.65022,-0.37345 7.07779,-2.10276 14.45597,-3.1116 21.78313,-2.30154 1.63464,-0.65849 1.28865,-3.49458 0.48257,-4.88784 -0.66683,-0.75805 -1.76346,-0.77524 -2.69371,-0.75152 z"
       id="path29011"
       transform="scale(0.26458333)" />
    <path
       style="fill:#91121d;fill-opacity:1;stroke-width:3.29394;stroke-linecap:square;stroke-linejoin:round;paint-order:stroke markers fill"
       d="m 468.20535,425.93485 c -5.37437,4.8744 -10.80693,9.82236 -17.21551,13.35832 -3.15327,1.97784 -7.54499,3.21374 -8.45608,7.35564 -2.7462,7.72039 -4.91572,15.8893 -5.19396,24.06096 1.48828,1.67446 3.70262,-1.15099 5.54029,-1.462 5.03901,-2.345 10.511,-3.11592 15.98363,-2.82081 2.51959,-0.41952 5.92498,0.83503 7.86017,-0.77399 -0.26902,-12.7981 0.14946,-25.63677 2.85683,-38.23466 0.40711,-0.84674 -0.50726,-1.9238 -1.37537,-1.48346 z"
       id="path29050"
       transform="scale(0.26458333)" />
    <path
       style="fill:#f7e26b;fill-opacity:1;stroke-width:3.29394;stroke-linecap:square;stroke-linejoin:round;paint-order:stroke markers fill"
       d="m 512.76188,487.37371 c -1.39814,0.25318 -4.71564,0.6008 -3.25458,2.73713 2.18318,2.63908 4.00278,5.79461 6.63684,7.9271 2.17576,-1.18607 4.93054,-2.13335 6.53215,-4.10654 -0.17329,-2.22426 -2.96201,-3.31209 -4.2138,-5.01249 -1.47124,-2.16698 -3.35766,-2.39372 -5.70061,-1.5452 z"
       id="path29089"
       transform="scale(0.26458333)" />
    <path
       style="fill:#f7e26b;fill-opacity:1;stroke-width:3.29394;stroke-linecap:square;stroke-linejoin:round;paint-order:stroke markers fill"
       d="m 306.54747,500.65676 c -13.45787,1.29708 -27.09569,1.3859 -40.59469,2.04177 -3.27576,1.99595 -4.83169,5.92731 -7.34903,8.71486 -6.37286,8.53627 -12.68196,17.129 -18.73363,25.89408 -0.41513,2.45206 2.64276,1.25585 3.87759,0.88088 12.7604,-2.8623 25.80422,-3.67746 38.81297,-2.48206 5.91625,0.47003 11.87524,0.84415 17.61975,2.23695 2.24351,-0.95891 0.86456,-4.07636 1.37281,-5.9415 0.80553,-10.24637 3.38906,-20.30192 6.41131,-30.10153 0.0852,-0.85966 -0.62656,-1.39445 -1.41708,-1.24345 z"
       id="path32168"
       transform="scale(0.26458333)" />
    <path
       style="fill:#f7e26b;fill-opacity:1;stroke-width:3.29394;stroke-linecap:square;stroke-linejoin:round;paint-order:stroke markers fill"
       d="m 368.49784,524.93595 c -7.09668,3.12032 -14.79837,4.40221 -22.48565,4.35174 -6.01086,0.17643 -12.00878,-0.0172 -17.87839,-1.39503 -2.08029,0.9496 -0.87141,4.09919 -1.497,5.93933 -0.86203,11.7072 -2.32209,23.53639 -0.23886,35.20856 0.44204,1.76784 -0.0727,6.35078 2.83392,4.66622 8.65442,-4.7982 18.2816,-8.0474 28.17188,-7.89853 6.48834,-0.34351 12.94959,0.42038 18.96333,2.88592 1.56974,0.18558 4.24565,2.21326 5.12955,0.0851 -0.94411,-3.26491 -3.37224,-5.99412 -4.58996,-9.20715 -5.07162,-9.52694 -6.46384,-20.38217 -6.93432,-31.0143 -0.29139,-1.16182 0.38485,-3.66203 -1.4745,-3.62187 z"
       id="path32207"
       transform="scale(0.26458333)" />
    <path
       style="fill:#f7e26b;fill-opacity:1;stroke-width:3.29394;stroke-linecap:square;stroke-linejoin:round;paint-order:stroke markers fill"
       d="m 388.14793,473.78938 c -2.58649,0.30169 -5.55888,0.31291 -7.78412,1.71496 -1.41982,3.51096 -0.67292,7.57836 -1.36692,11.28431 -0.58841,7.63681 -1.86718,15.29607 -2.2724,22.89822 1.18587,1.66596 3.63135,-0.27931 5.35938,-0.18894 4.88545,-0.7364 10.03937,0.0158 14.94609,-0.7413 1.23414,-1.76088 -0.59574,-4.10057 -0.45175,-6.11794 -1.76898,-8.85647 -2.1817,-17.88332 -3.29222,-26.80498 -0.31212,-2.52441 -3.35681,-1.92226 -5.13806,-2.04433 z"
       id="path32246"
       transform="scale(0.26458333)" />
    <path
       style="fill:#f7e26b;fill-opacity:1;stroke-width:3.29394;stroke-linecap:square;stroke-linejoin:round;paint-order:stroke markers fill"
       d="m 476.54608,509.75582 c -9.63287,0.24276 -19.27097,3.05254 -27.43654,8.08015 -0.32527,2.16779 0.62033,4.65825 0.33597,6.99615 0.17263,4.31283 -0.96377,8.51287 -1.69368,12.68812 1.61244,1.74723 4.65173,0.96106 6.806,1.6963 8.78273,1.42662 17.62986,2.47876 26.54499,2.22525 5.59221,-0.15515 11.36309,0.39281 16.82723,-0.75974 1.11263,-2.18727 -1.88177,-4.76986 -2.46383,-7.08483 -4.05209,-7.95918 -8.23922,-15.99337 -13.79655,-23.01244 -1.36726,-1.12173 -3.49626,-0.71214 -5.12359,-0.82896 z"
       id="path32285"
       transform="scale(0.26458333)" />
    <path
       style="fill:#f7e26b;fill-opacity:1;stroke-width:3.29394;stroke-linecap:square;stroke-linejoin:round;paint-order:stroke markers fill"
       d="m 431.19462,498.10858 c -2.98976,0.21382 -6.18649,0.0118 -8.99778,0.98472 -0.84353,6.34066 -1.88116,12.72018 -2.90053,19.06112 0.56321,2.38776 3.57796,0.59779 5.17977,0.49279 6.25055,-1.33595 12.7224,-1.71278 19.11134,-2.21966 1.82078,-1.25801 -0.19089,-3.8176 -0.3464,-5.5185 -1.47844,-4.02209 -2.4195,-8.40685 -4.71251,-12.04044 -2.22021,-1.07192 -4.93937,-0.64754 -7.33389,-0.76003 z"
       id="path32324"
       transform="scale(0.26458333)" />
    <path
       style="fill:#f7e26b;fill-opacity:1;stroke-width:3.29394;stroke-linecap:square;stroke-linejoin:round;paint-order:stroke markers fill"
       d="m 483.85614,458.5301 c -3.39438,1.98111 -5.69653,5.51328 -8.3468,8.38057 -2.66997,1.84518 -2.12697,4.74076 -1.35102,7.44603 1.05805,4.52813 1.59744,9.35303 3.37163,13.59916 2.17383,-0.0484 2.81948,-3.06312 4.36608,-4.39021 2.83328,-3.79392 6.31074,-7.13019 9.31702,-10.70547 -0.82862,-3.19345 -3.07146,-6.22483 -4.2893,-9.44534 -1.05638,-1.38408 -1.13083,-4.52582 -3.06761,-4.88474 z"
       id="path32363"
       transform="scale(0.26458333)" />
    <path
       style="fill:#f7e26b;fill-opacity:1;stroke-width:3.29394;stroke-linecap:square;stroke-linejoin:round;paint-order:stroke markers fill"
       d="m 488.2163,447.39607 c -2.12371,1.03508 0.14687,3.60455 0.41363,5.19679 4.59151,11.65504 10.62855,22.75773 17.73768,33.05483 1.65584,1.51924 4.39454,1.1904 6.36874,0.56002 1.87714,-1.84219 -1.1422,-4.08821 -2.07837,-5.61637 -8.29576,-10.15016 -15.01882,-21.40246 -21.52931,-32.7927 -0.22526,-0.28696 -0.55375,-0.39112 -0.91237,-0.40257 z"
       id="path32402"
       transform="scale(0.26458333)" />
    <path
       style="fill:#f7e26b;fill-opacity:1;stroke-width:3.29394;stroke-linecap:square;stroke-linejoin:round;paint-order:stroke markers fill"
       d="m 274.50884,453.11203 c -4.70234,6.89823 -9.91146,13.50521 -14.1852,20.66884 0.35704,2.1481 3.5196,1.86278 5.07838,2.85747 2.4023,0.49959 4.82586,2.39517 7.28463,1.92228 4.1016,-4.53258 6.38158,-10.43927 9.38015,-15.71788 2.55629,-2.63616 -0.98363,-4.54529 -2.62953,-6.37527 -1.58392,-0.91839 -2.87244,-4.38227 -4.92843,-3.35544 z"
       id="path32441"
       transform="scale(0.26458333)" />
    <path
       style="fill:#f7e26b;fill-opacity:1;stroke-width:3.29394;stroke-linecap:square;stroke-linejoin:round;paint-order:stroke markers fill"
       d="m 255.44176,501.31551 c -5.04494,0.40283 -10.17602,1.08033 -15.02014,2.41881 -3.1972,4.47909 -6.41329,9.12057 -9.13905,13.93838 0.45043,2.48742 3.41993,0.20051 4.91664,0.0106 4.22326,-1.59555 8.70084,-2.60982 12.89423,-4.14096 2.54587,-3.67702 5.66151,-7.04094 7.76029,-10.9919 0.12303,-0.75967 -0.70761,-1.35082 -1.41197,-1.23493 z"
       id="path32480"
       transform="scale(0.26458333)" />
    <path
       style="fill:#91121d;fill-opacity:1;stroke-width:6.58788;stroke-linecap:square;stroke-linejoin:round;paint-order:stroke markers fill"
       d="m 360.4984,568.95034 c -10.82827,0.38953 -21.71064,3.0648 -31.65904,7.12196 -1.90291,4.77928 1.35789,10.17543 1.77926,15.07985 0.0294,2.22797 1.49317,6.1492 4.21756,3.78213 11.442,-8.73476 26.33293,-7.42374 39.82955,-7.38751 7.58725,-0.0139 15.33879,0.26448 22.7668,1.01791 -0.0352,-3.42457 -4.9325,-5.56453 -6.74534,-8.57454 -5.75729,-8.25188 -16.62523,-9.76938 -25.88565,-10.92235 -1.43204,-0.098 -2.86792,-0.135 -4.30314,-0.11745 z"
       id="path34404"
       transform="scale(0.26458333)" />
  </g>
  <g
     inkscape:label="Layer 1"
     inkscape:groupmode="layer"
     id="layer1"
     style="display:inline"
     transform="translate(-56.373887,-34.470235)"
     sodipodi:insensitive="true">
    <path
       id="path1044"
       style="fill:#000000;fill-opacity:1;stroke-width:7.55906;stroke-linecap:square;stroke-linejoin:round;paint-order:stroke markers fill"
       d="m 382.61914,130.28125 c -3.5694,-0.003 -6.24887,0.14241 -9.87695,0.71289 -0.75971,0.11947 -1.50765,0.30151 -2.25781,0.47266 -4.80645,-0.73686 -7.55285,0.69081 -11.67383,3.12304 -5.54152,3.37716 -3.04745,1.76425 -9.08985,5.88868 -2.04183,1.39372 -4.1044,2.758 -6.11718,4.19336 -8.11493,5.78688 -15.86296,12.06147 -23.30079,18.69531 -2.73416,2.59623 -5.52144,5.13668 -8.20117,7.78906 -5.5679,5.51109 -9.70364,10.00287 -14.75,15.97461 -5.68748,6.73042 -11.03686,13.75861 -15.41601,21.42383 -0.97221,1.80744 -1.9994,3.63365 -2.92383,5.50586 -6.2478,5.11139 -9.36047,12.63336 -3.17774,20.56445 11.00357,38.64365 19.34331,78.63683 17.14649,119.03516 0.0925,22.80413 -1.2704,45.66501 -1.89649,68.38867 0.22376,1.15239 0.51136,2.26085 0.85743,3.33008 -1.81625,1.32609 -3.46772,2.91453 -5.08008,4.45898 -2.89107,2.7693 -4.87475,4.81598 -7.80664,7.76953 -1.77355,2.02364 -3.59589,4.00469 -5.32031,6.07031 -1.81135,2.16976 -3.51477,4.42954 -5.28516,6.63282 -2.01957,2.51338 -4.09883,4.97846 -6.08594,7.51757 -4.51803,5.77312 -8.68819,11.42931 -12.76953,17.52735 -1.94066,2.89961 -3.74743,5.88673 -5.62109,8.83008 -4.73246,7.31429 -9.01309,14.9096 -12.98828,22.6582 -1.12553,2.1939 -3.34566,6.66118 -4.35743,9.16406 -0.37674,0.93203 -0.64843,1.90394 -0.97265,2.85547 0.004,1.50894 -0.39215,3.27707 1.51172,4.16016 2.04517,0.94866 4.64073,0.0736 6.58984,-0.49024 0.61427,-0.17763 6.24331,-2.00543 6.71484,-2.1582 0.98294,-0.33247 1.9694,-0.6565 2.95508,-0.98047 -0.24111,0.31176 -0.48349,0.62229 -0.72266,0.93555 -3.8969,5.10402 -8.14898,10.86324 -11.77734,16.16992 -4.54854,6.65246 -5.14144,7.84423 -9.1543,14.50977 -2.64012,4.65766 -5.20776,9.37871 -7.32031,14.30468 -0.20549,0.47921 -1.53146,3.48291 -1.37109,4.4375 0.13814,0.82228 0.6888,1.518 1.0332,2.27735 1.62532,0.10167 3.25293,0.4257 4.87695,0.30468 1.45321,-0.10809 2.8417,-0.64882 4.25977,-0.98437 1.90998,-0.45192 3.79774,-1.0035 5.72461,-1.37695 6.22622,-1.20677 10.47756,-1.61384 16.90234,-2.04297 3.08417,-0.20599 6.17596,-0.28464 9.26367,-0.42774 7.81665,0.21241 15.64173,0.79096 23.33985,2.21875 6.1164,1.13443 12.07545,2.92144 18.01953,4.71875 3.31807,0.94647 6.4907,2.33864 9.76562,3.40821 0.93395,0.305 3.40363,1.05684 4.26563,0.35351 0.84495,-0.68942 0.87372,-1.99881 1.31055,-2.99805 -0.42487,-6.34336 -2.1135,-12.50512 -2.83399,-18.81054 -0.62044,-5.42986 -0.75351,-10.34318 -1.00781,-15.80664 0.01,-2.67375 -0.13228,-5.35257 0.0293,-8.02149 0.0348,-0.57538 0.0866,-1.14881 0.14062,-1.72265 1.01647,0.2735 2.04308,0.51626 3.06446,0.75976 2.04653,0.36737 4.03,0.96845 5.99804,1.62696 0.87051,0.32649 1.72969,0.68164 2.58789,1.03906 -0.58976,8.13074 -1.23943,16.27195 -0.91797,24.42578 0.29352,7.44495 0.57351,7.93072 1.68164,15.19531 0.48381,2.19957 0.91209,4.41101 1.45118,6.59766 1.14399,4.64024 2.57415,9.23815 4.35937,13.67187 0.36586,0.90864 0.71759,1.82535 1.15625,2.70118 0.32455,0.64798 0.75108,1.23975 1.12695,1.85937 1.80243,1.57255 1.79668,2.0907 4.92969,1.56055 0.83261,-0.14098 1.50051,-0.77979 2.2207,-1.22071 1.30394,-0.79831 2.89009,-2.13631 4.30274,-2.72656 1.22525,-0.51197 2.53703,-0.79205 3.80469,-1.1875 8.49421,-2.20403 17.29939,-1.75845 25.98242,-1.7168 4.26598,0.0189 8.5328,-0.0159 12.79883,-0.0234 4.7729,-0.0541 9.55336,0.0314 14.32422,-0.17383 0.43324,-0.0189 4.4565,-0.008 5.56054,-0.69922 0.56739,-0.3549 0.91381,-0.97807 1.3711,-1.4668 -0.076,-1.00906 0.086,-2.06496 -0.22657,-3.02734 -0.42463,-1.3067 -3.06134,-4.22481 -3.76171,-5.10938 -1.00011,-1.263 -1.96062,-2.55652 -2.94727,-3.83007 -1.17679,-1.519 -2.40129,-3.00128 -3.54297,-4.54688 -1.31267,-1.77713 -2.54572,-3.61192 -3.81836,-5.41797 -3.77,-5.61827 -7.40231,-11.42914 -9.81055,-17.78906 -0.76535,-2.02118 -1.38506,-4.09833 -1.91601,-6.19336 -0.0122,-0.0481 -0.0194,-0.0834 -0.0312,-0.13086 0.034,0.004 0.11124,0.0102 0.14258,0.0137 4.01336,0.44028 3.12071,0.35345 7.46093,1.00977 7.53846,1.40538 15.07295,2.85107 22.52735,4.65625 1.38996,0.30123 4.41874,1.23541 5.71289,0.19336 1.86334,-1.5007 0.76067,-4.26371 0.26562,-6.00781 -1.34105,-5.15177 -3.31723,-10.1084 -4.82031,-15.20899 -0.52879,-1.79437 -0.96272,-3.61487 -1.46094,-5.41797 -0.51239,-1.85427 -1.04865,-3.70156 -1.57226,-5.55273 -0.40893,-1.61328 -0.81778,-3.22653 -1.22656,-4.83985 0.12261,-0.0687 0.24458,-0.13832 0.36718,-0.20703 0.008,0.008 0.10761,-0.0768 0.10157,-0.084 0.0967,-0.33562 0.1923,-0.67039 0.28906,-1.00586 -0.0892,-0.28611 -0.0752,-0.62943 -0.26758,-0.85938 -0.17886,-0.21386 -0.47987,-0.27714 -0.73828,-0.39062 1.18306,-0.63199 2.42051,-1.16055 3.66601,-1.6582 1.35209,-0.53745 2.78096,-0.87596 4.19922,-1.19336 0.81374,-0.19411 1.62924,-0.39086 2.43946,-0.60157 -0.34188,4.42481 -0.72003,8.84661 -1.14453,13.26368 -0.21619,2.29965 -0.51988,4.59034 -0.74805,6.88867 -0.0113,0.10507 -0.18613,1.79203 -0.0762,1.98437 0.4106,0.71842 1.06204,1.26638 1.59375,1.90039 0.96362,-0.0665 1.93629,-0.0495 2.89062,-0.19922 0.65397,-0.10241 1.27117,-0.37106 1.9082,-0.55078 0.76173,-0.21505 1.52281,-0.43442 2.28907,-0.63281 2.93669,-0.76036 5.76955,-1.35433 8.75976,-1.86914 4.59171,-0.87847 9.23237,-1.39138 13.90039,-1.06445 0.28559,0.068 0.58785,0.10351 0.89453,0.13086 -0.0429,1.03325 -0.13809,2.06731 -0.30859,3.10547 -0.24718,0.95569 -0.44478,1.92593 -0.74219,2.86718 -0.88002,2.78491 -2.4336,6.14605 -3.9707,8.625 -1.18171,1.90575 -2.35601,3.20703 -3.77734,4.92774 -1.40837,1.6953 -2.43916,2.8725 -3.71875,4.65039 -1.07494,1.49348 -3.23458,4.14734 -0.72071,5.63867 0.49988,0.29669 1.16139,0.0434 1.74219,0.0644 3.36227,-0.39654 6.70722,-0.93628 10.08203,-1.22851 7.58464,-0.64728 15.20694,-1.11056 22.79102,-0.12305 1.45667,0.21657 2.92425,0.37573 4.37109,0.65039 1.43951,0.27364 2.85686,0.64874 4.28125,0.99219 6.20973,1.49737 12.39596,3.10178 18.52344,4.9082 3.03723,0.94965 3.43189,0.95884 6.10742,2.17188 0.41734,0.18935 3.00679,1.63144 3.58203,1.60351 2.98847,-0.14513 2.71136,-0.48216 3.61524,-2.37109 0.2691,-5.352 -0.39903,-10.70724 -1.44532,-15.94922 -0.3394,-1.4417 -0.63292,-2.89641 -1.01953,-4.32617 -1.5705,-5.80809 -3.78209,-11.4322 -6.47656,-16.81055 0.0175,-0.0414 0.0267,-0.0724 0.0469,-0.11719 0.1901,-0.39363 0.48769,-0.73504 0.81054,-1.02539 2.16529,-1.15937 4.71342,-1.29004 7.09766,-1.60351 2.96292,-0.25399 5.92712,-0.46406 8.9043,-0.37305 4.51701,0.13795 3.79806,0.21927 8.32031,0.54102 1.39049,0.099 2.78435,0.16924 4.17578,0.2539 1.18496,0.0529 2.3698,0.10378 3.55469,0.15821 0.88471,0.0404 1.80284,0.36878 2.65429,0.125 1.21833,-0.34885 2.44503,-0.92708 3.32617,-1.83789 0.78668,-0.81313 -1.55578,-3.14981 -1.80273,-3.53907 -4.49382,-5.57491 -9.4237,-10.77779 -14.00195,-16.2832 -0.69809,-0.83642 -1.39996,-1.68086 -2.10156,-2.52344 1.24392,-0.39366 2.34301,-1.34521 3.47851,-1.93164 1.14539,-0.72933 4.33889,-2.60319 4.87305,-3.89258 0.70159,-1.69357 0.26028,-2.678 -0.88477,-3.6914 -3.49625,-3.28003 -6.4599,-7.07776 -9.08984,-11.07813 -2.54892,-3.93194 -3.44087,-5.25497 -5.51758,-8.76172 6.38882,1.55741 13.02901,1.99501 19.51367,0.46289 2.19481,-0.51855 4.23851,-1.54612 6.35742,-2.31836 10.2593,-5.28423 18.88665,-13.20924 25.09766,-22.93945 1.17827,-1.84588 2.17566,-3.80064 3.26367,-5.70117 5.98311,-11.0027 8.38933,-23.15997 9.94922,-35.44336 0.99798,-10.40572 1.82741,-20.99025 0.0449,-31.36719 -0.42013,-2.44607 -1.06276,-4.84902 -1.59375,-7.27344 -3.67347,-13.32243 -10.95701,-25.32299 -21.63281,-34.20117 -1.98614,-1.6517 -4.171,-3.051 -6.25586,-4.57617 -9.72593,-6.54265 -20.81718,-9.85243 -32.31836,-11.36133 -2.00228,5.7e-4 -4.01105,-0.1468 -6.00781,0.002 -6.64093,0.49367 -13.83964,3.09162 -18.20117,8.35742 -1.13534,1.37066 -1.87885,3.02356 -2.81836,4.53515 -0.53745,1.64407 -1.28186,3.234 -1.61328,4.93164 -1.19596,6.12635 0.38083,12.75008 4.02539,17.76368 0.85292,1.17335 1.91726,2.18002 2.875,3.26953 1.17331,0.92155 2.25985,1.96424 3.51953,2.76367 5.19624,3.29769 11.90293,5.05915 18.03125,5.17773 1.87374,0.0363 3.74511,-0.17295 5.61719,-0.25976 6.96287,-1.02054 13.03624,-4.16871 17.78125,-9.3125 0.56677,-0.99753 3.19763,-4.36128 2.85546,-5.6875 -0.15269,-0.59159 -0.82495,-0.89965 -1.23828,-1.34961 0.002,-0.01 -0.13873,-0.039 -0.14062,-0.0293 -0.5497,0.0926 -1.17668,-0.0198 -1.64844,0.27735 -1.17007,0.7364 -1.58452,3.81643 -2.84375,4.56445 -4.30072,4.42696 -9.86012,6.8933 -15.98242,7.65039 -1.03072,0.0928 -2.05693,0.28464 -3.0918,0.27734 -5.48636,-0.0385 -11.59947,-1.47112 -16.39062,-4.20312 -1.11088,-0.63343 -2.07265,-1.49746 -3.10938,-2.24609 -1.88413,-2.03898 -3.37284,-3.349 -4.61328,-5.89063 -1.67331,-3.42863 -2.24837,-7.94162 -1.57227,-11.68164 0.25777,-1.42569 0.86181,-2.76528 1.29297,-4.14844 0.74642,-1.24209 1.31797,-2.60723 2.23829,-3.72656 4.66955,-5.67939 12.62039,-7.07398 19.53515,-7.02344 10.85016,1.33796 21.31416,4.65188 30.48828,10.74805 1.97246,1.39554 4.04364,2.66031 5.91602,4.1875 10.11692,8.25176 17.07722,19.64471 20.83203,32.04687 0.54841,2.29669 1.20796,4.57008 1.64453,6.89063 1.89528,10.0743 1.02879,20.31727 0.0371,30.43359 -1.49957,11.81133 -3.64541,23.53342 -9.57812,34.04492 -1.03537,1.79335 -1.98472,3.63885 -3.10743,5.37891 -5.8447,9.05873 -14.00286,16.41355 -23.55664,21.37305 -4.39767,1.59692 -5.70341,2.46219 -10.15429,2.78515 -5.55834,0.40337 -10.91248,-0.70639 -16.24805,-1.99804 -6.05343,-10.60211 -11.62886,-21.47313 -17.42188,-32.2168 -1.60905,-3.1189 -3.22017,-6.23498 -4.82617,-9.35547 -1.30787,-2.54124 -2.68307,-5.04953 -3.91406,-7.62891 -7.21965,-15.12743 1.67789,2.53593 -3.83984,-8.79101 -0.129,-0.2648 -0.22586,-0.45195 -0.32422,-0.64453 -0.002,-0.0455 -0.005,-0.0912 -0.006,-0.13672 0.51194,-2.92911 0.56404,-5.99385 0.0215,-9.19922 -9.1031,-52.27295 -12.11702,-105.74659 -7.85742,-158.63281 1.43475,-9.99269 9.19648,-20.32075 3.98438,-30.39649 -1.06039,-1.16862 -2.2454,-2.09987 -3.50586,-2.88476 l -0.004,-0.004 c -3.79085,-4.31248 -7.90537,-8.32701 -11.91211,-12.43945 -5.79071,-5.8037 -11.64093,-11.56857 -17.66797,-17.13477 2.40089,-2.56021 4.31664,-5.6813 4.74805,-9.16797 0.15987,-1.2914 -0.0914,-2.59994 -0.13672,-3.90039 -1.14093,-3.27864 -1.2233,-3.99664 -3.07031,-7.13671 -3.67363,-6.24535 -9.00116,-11.11981 -15.12305,-14.91993 -1.8644,-0.9978 -3.68267,-2.08699 -5.59375,-2.99218 -3.61844,-1.71394 -8.60833,-3.51561 -12.41016,-4.67969 -4.64832,-1.42326 -8.74864,-2.41387 -13.56054,-3.13867 -2.19081,-0.32999 -4.40479,-0.47822 -6.60743,-0.7168 -1.99803,-0.10322 -3.99352,-0.28811 -5.99414,-0.30859 -0.55161,-0.006 -1.07992,-0.009 -1.58984,-0.01 z m 0.17188,5.84766 c 1.85094,0.14963 3.7045,0.26797 5.55664,0.40234 8.58693,0.98576 17.0315,2.9878 25.1875,5.83789 1.94354,0.67917 3.88973,1.3636 5.77734,2.18555 1.78201,0.77596 3.47934,1.73626 5.21875,2.60351 5.59933,3.12412 10.55034,7.27199 14.12305,12.63477 1.62058,2.43256 1.93849,3.40444 3.08203,5.96094 -0.0113,0.79904 0.12741,1.61583 -0.0332,2.39843 -0.17006,0.8225 -0.55486,1.59133 -0.94335,2.33594 -0.68768,1.31812 -1.50729,2.44017 -2.42579,3.45703 -5.3074,-4.76256 -10.77208,-9.34723 -16.47851,-13.63867 -2.65614,-1.90466 -5.27581,-3.85778 -7.9668,-5.71289 -2.6036,-1.79487 -5.25626,-3.52079 -7.91406,-5.23437 -7.48051,-4.82295 -15.13458,-9.42009 -23.18359,-13.23047 z m -12.55274,0.10547 c 2.57745,1.23285 -0.30557,-0.25863 5.02734,2.58203 1.56773,0.97059 3.15428,1.91168 4.70313,2.91211 2.06343,1.33279 4.07971,2.73624 6.13086,4.08789 7.42764,4.89458 14.93773,9.64995 22.2168,14.76757 2.61445,1.83814 5.1865,3.73688 7.77929,5.60547 5.43672,4.08202 10.68631,8.39246 15.86524,12.78711 -1.11005,0.52241 -2.27266,0.91616 -3.47656,1.22266 -0.90928,0.23149 -2.37306,0.55267 -3.32618,0.58203 -0.6494,0.02 -1.29836,-0.0656 -1.94726,-0.0977 -5.33265,-0.57022 -10.71241,-0.54371 -16.06641,-0.40429 -4.33531,0.34374 -8.61053,1.12908 -12.78515,2.33398 -3.06456,0.83203 -5.80423,2.41674 -8.31641,4.32031 -1.80544,1.32101 -3.07715,3.13143 -4.30274,4.96485 -0.55963,0.82856 -1.04183,1.69856 -1.46875,2.5957 -0.71081,-0.005 -1.42191,-0.0147 -2.13281,-0.0156 -6.3495,0.0655 -12.72999,0.25823 -19.11133,0.60937 -0.0821,-3.11578 -0.0556,-6.23079 0.13672,-9.34375 0.35426,-6.01454 0.79449,-12.02661 1.47852,-18.01367 0.53724,-3.89068 1.1159,-7.77896 1.87109,-11.63477 0.43422,-2.21701 1.15759,-5.49826 1.82813,-7.6914 0.31166,-1.01933 0.71873,-2.00823 1.07812,-3.01172 0.39699,-0.83497 0.76755,-1.68225 1.19141,-2.50391 0.74393,-1.44212 1.59994,-2.82482 2.36133,-4.25781 0.28399,-0.53452 0.53214,-1.08811 0.82617,-1.61719 0.19889,-0.3579 0.33491,-0.59942 0.43945,-0.77929 z m -5.67187,0.61328 c -1.50956,2.07361 -2.72188,4.44673 -3.86719,6.58398 -3.68844,7.48141 -4.7596,15.5767 -5.51563,23.77344 -0.50183,6.11646 -0.79969,12.25071 -0.89843,18.38672 -0.0353,3.2583 0.21543,6.50963 0.63476,9.73828 -22.66877,1.51199 -45.26284,5.27858 -66.4082,13.5664 -0.33081,0.1105 -0.65563,0.24703 -0.98438,0.36914 1.07085,-1.33023 2.13945,-2.66146 3.25391,-3.95507 1.9525,-2.26639 3.98914,-4.4598 5.99219,-6.68164 6.99013,-7.75359 14.07847,-15.43801 21.61133,-22.67383 2.6565,-2.55176 5.41929,-4.98909 8.1289,-7.48438 7.15419,-6.59132 14.64614,-12.80012 22.09571,-19.05078 1.83808,-1.54228 3.65295,-3.11336 5.52734,-4.61133 2.72685,-2.17923 5.55711,-4.2253 8.3164,-6.36328 0.67845,-0.55802 1.37657,-1.11802 2.11329,-1.59765 z m 71.11132,45.30078 c 6.33734,5.45161 12.60433,10.98913 19.00196,16.36718 1.90399,1.54344 3.79104,3.10682 5.67383,4.67579 -4.04423,-0.66285 -8.19459,-1.06933 -11.94727,-2.13477 -21.00264,-3.71102 -42.27504,-6.0646 -63.60547,-6.5 0.1503,-0.25799 0.29894,-0.51689 0.45508,-0.77148 0.97062,-1.47327 2.13115,-2.89729 3.61719,-3.8711 2.31492,-1.44179 4.71317,-2.81115 7.41992,-3.35351 4.01371,-0.82569 8.07119,-1.54539 12.17969,-1.61524 2.21941,-0.10548 4.43435,0.0294 6.65429,0.0918 2.96799,0.0834 2.6379,0.0799 5.61719,0.0781 1.23133,-7.6e-4 2.46398,-0.006 3.69531,-0.01 1.82861,-0.15542 2.48902,-0.16261 4.23047,-0.48828 2.4609,-0.46024 4.82137,-1.27574 7.00781,-2.46875 z m -62.83593,19.51367 c 19.41806,-0.13368 38.81391,1.39739 58.07226,3.79883 -10.27434,14.02399 13.70808,21.76225 19.59961,23.03906 -10.52217,9.17272 -4.83779,30.49981 10.56836,28.6543 -1.81039,10.57657 -1.77809,28.34573 -2.91406,34.60351 -8.33567,-26.40889 -33.0463,-48.10345 -61.41211,-48.67187 -15.27594,-0.54837 -31.00872,0.14701 -45.65039,4.84961 -9.22539,-1.98392 -18.99982,6.82666 -25.98633,12.87695 -18.11452,16.71308 -24.30737,43.2667 -18.58984,66.81055 3.36571,17.8577 15.80972,32.78529 31.84765,40.86133 27.60898,15.79426 63.70893,15.77235 91.25,-0.0566 15.07242,-8.82003 26.15544,-23.88358 30.11328,-40.88867 0.19503,11.22543 4.53781,29.56047 3.94922,36.14649 -10.26946,-12.80219 -25.74292,4.36146 -24.375,12.33789 -10.79274,-4.72858 -25.26933,6.3854 -20.54492,18.17383 0.79291,11.92425 19.54037,3.99545 15.24414,14.83593 3.55612,15.41821 32.15531,10.79117 30.08008,-5.16211 3.91204,2.74076 11.13717,-0.68217 10.23437,3.17188 -0.0108,0.0141 -0.017,0.0261 -0.0137,0.0371 7e-5,0.006 -7e-5,0.0117 0,0.0176 -0.19511,0.78029 -0.70588,1.8454 -1.63867,3.3125 -8.66517,17.03436 -27.24475,26.76424 -45.08594,31.34961 -30.34242,6.47266 -62.12821,8.00819 -92.70507,2.375 -7.62801,-2.98942 -22.90797,-0.96483 -20.875,-12.35743 9.08836,7.90507 28.35432,11.64598 34.55468,-1.5039 3.55313,-14.18045 -12.87033,-26.87828 -26.18359,-23.01953 5.21745,-9.85467 8.49146,-28.72178 -5.75977,-32.05079 -6.92527,-1.81875 -15.72716,7.13395 -16.0664,7.36915 1.6793,-49.13789 0.56693,-99.95023 -18.21875,-146.16797 10.22062,15.40301 32.75336,-1.67415 19.79101,-14.97266 -6.54771,-2.82024 -8.33819,-7.17263 -0.77539,-9.99414 14.44805,-3.6023 28.86971,-7.38212 43.82032,-8.37695 9.19514,-0.89416 18.43239,-1.33469 27.66992,-1.39844 z m 63.26953,4.46289 c 7.59783,3.29425 29.97814,-1.56153 22.13672,10.43164 1.00263,12.0172 -21.84812,4.31877 -24.92578,-3.2168 -0.95347,-2.81867 0.51631,-5.53881 2.78906,-7.21484 z m 29.70508,4.58398 c 13.34453,2.46816 -1.25094,25.74211 -3.28516,8.39258 0.27628,-3.03977 1.69998,-5.83967 3.28516,-8.39258 z m -171.56836,2.46875 c -3.60721,6.22714 -11.15188,2.39363 -1.96094,0.58399 z m -10.43555,4.33204 c 11.04933,6.77109 -9.17307,20.9525 -5.31836,5.86914 0.0341,-0.008 0.0743,-0.0146 0.0762,-0.0293 0.0677,-0.21228 0.14228,-0.42208 0.2168,-0.63086 1.15505,-2.1598 2.98573,-3.8916 5.02539,-5.20898 z m 8.54688,2.31835 c 11.92236,0.38434 12.73971,23.05252 -0.88477,18.14844 -13.91552,-3.75703 2.21725,-8.22641 -1.18359,-17.05273 l -0.19336,-0.5918 1.07422,-0.4707 c 0.40758,-0.0357 0.8029,-0.0456 1.1875,-0.0332 z m 167.92187,6.66016 c 12.39519,3.42722 -1.16927,14.27902 1.73437,23.72852 -5.63526,9.51337 -18.07337,-10.19029 -8.99804,-16.67188 1.94192,-2.81908 4.39962,-5.18502 7.26367,-7.05664 z m -87.375,22.00391 c 1.45094,-0.0385 2.91252,0.0157 4.38672,0.18945 2.75859,-0.0844 5.51948,-0.12312 8.2793,-0.10547 15.95943,-0.1437 33.33961,2.35362 44.93554,14.4043 20.7727,18.26711 30.6403,50.29031 17.8418,75.85156 -10.45882,21.45644 -34.83762,33.55281 -58.12109,33.54688 -23.15964,1.64327 -45.98107,-8.044 -63.44922,-22.75391 -13.7799,-14.36155 -14.92933,-36.43117 -11.62891,-55.05078 3.5184,-16.5443 15.45529,-29.82042 28.20117,-40.2168 9.76519,-0.7463 19.39809,-5.59568 29.55469,-5.86523 z m 37.07422,24.36914 c -13.13239,2.21434 -2.92881,31.94596 6.2793,16.61523 2.62015,-5.62196 0.85063,-15.53131 -6.2793,-16.61523 z m -57.72461,3.88086 c -8.79316,0.55574 -10.26345,18.69839 0.0703,17.65625 8.59276,-2.18564 9.03324,-16.43265 -0.0703,-17.65625 z m 31.27148,26.78906 c -15.79297,0.12616 -23.63289,17.76229 -24.36328,31.41602 -1.16243,10.97042 3.34508,25.47477 16.09375,26.83007 14.23464,4.21355 28.38348,-7.17503 31.11914,-20.95898 4.60517,-15.48699 -4.80338,-37.1223 -22.84961,-37.28711 z m -0.53515,5.2832 c 16.00074,1.28487 22.53428,22.67604 15.87109,35.54297 -3.98759,12.2162 -24.28317,18.1206 -30.76367,5.33789 -4.16182,-10.65306 -1.90694,-23.12427 2.87109,-33.17773 2.26747,-4.68901 6.7092,-7.72998 12.02149,-7.70313 z m 71.83203,54.09961 c 11.53227,0.12394 14.4298,28.27694 2.50976,14.29297 -6.1316,-3.99357 -17.97383,2.88071 -11.62695,-8.49219 1.3889,-3.18563 4.44593,-5.55845 7.97461,-5.72265 0.38977,-0.0567 0.77057,-0.0821 1.14258,-0.0781 z m -19.50586,16.01172 c 10.23398,0.15421 -3.84553,12.32577 3.93164,17.96875 -13.29471,11.66506 -24.77935,-14.67435 -8.24414,-17.30078 1.41154,-0.35641 2.85137,-0.64253 4.3125,-0.66797 z m 15.11719,0.043 c 13.4359,0.1485 13.12538,22.61039 -1.46094,20.07617 -10.43429,-2.0674 -9.51664,-17.97397 0.11719,-20.01953 0.462,-0.0432 0.91033,-0.0614 1.34375,-0.0566 z m -134.8418,0.17969 c 11.46195,3.31967 5.98607,19.11593 2.79883,27.16406 -3.29854,-11.8512 -20.01422,2.01647 -15.62305,-11.06641 0.12476,-7.68642 4.14579,-15.86914 12.82422,-16.09765 z m 152.57031,2.49023 c 2.86175,4.55951 -4.28171,3.9837 0,0 z m -2.47851,5.51953 c 6.30565,-0.46683 10.75973,17.02527 2.33789,14.31641 -11.42718,-3.56973 -0.78341,-6.25017 -2.95313,-14.21484 0.2069,-0.0537 0.41183,-0.0865 0.61524,-0.10157 z m -24.36328,12.10938 c 5.33378,9.94968 23.32736,-5.07278 18.49414,9.50781 -4.85696,10.0444 -27.80502,6.31628 -20.74414,-6.51367 0.68832,-1.02739 1.34979,-2.12908 2.25,-2.99414 z m -143.28516,4.08203 c 2.85199,3.88569 -2.71458,17.38778 -0.60352,5.81445 0.16317,-1.94169 0.37124,-3.8799 0.60352,-5.81445 z m 10.76758,1.4082 c 11.53833,1.80303 9.30172,26.37989 -3.41602,21.48438 -5.72412,-4.77415 -3.66695,-18.86996 3.41602,-21.48438 z m 14.5625,6.23047 c 0.59965,0.008 1.32889,0.0999 2.21093,0.28906 9.6557,-0.72438 24.53296,11.54599 15.99219,20.73633 -7.17054,3.99666 -30.3245,1.18211 -21.31445,-9.07031 3.58089,-4.23834 -2.68527,-12.03262 3.11133,-11.95508 z m -26.17578,10.56055 c 1.53402,4.29468 0.0863,4.91531 0,0 z m 171.84375,4.60937 c -0.32101,1.38875 -0.61419,2.7839 -0.88086,4.17774 -1.3784,7.20457 -1.52857,10.7838 -2.1836,18.01562 -0.43362,5.77091 -0.36504,11.54102 0.17578,17.26758 -0.31437,-0.0345 -0.62897,-0.0652 -0.94531,-0.0859 -2.93556,-0.19351 -5.87983,-0.34517 -8.82226,-0.22461 -2.21069,0.0945 -4.41989,0.32101 -6.58203,0.80664 -2.81447,0.64347 -5.58962,1.46163 -8.20313,2.70899 -1.16765,0.57425 -2.33481,1.17089 -3.46094,1.83203 0.0399,-2.0338 0.19636,-4.06455 0.49219,-6.08398 0.32957,-2.24924 0.70689,-3.92909 1.16406,-6.15625 1.18995,-4.94336 2.63777,-9.86141 4.77539,-14.48438 0.0744,-0.14319 0.14884,-0.28621 0.22266,-0.42969 2.41647,-1.1505 4.80606,-2.37309 7.16016,-3.67773 5.84576,-3.67564 12.0589,-8.2483 17.08789,-13.66602 z m -169.09961,1.6211 c 2.98653,3.43574 15.85631,5.65191 9.37304,8.37695 -3.06482,-2.01196 -9.26033,-5.2037 -9.37304,-8.37695 z m 175.72656,3.59765 c 1.39793,8.54822 3.95366,16.83105 7.20703,24.84961 -0.60698,0.59072 -1.21844,1.17589 -1.83594,1.75586 -2.24541,2.14103 -4.38221,4.39659 -6.33203,6.8125 -0.31521,0.39156 -0.63128,0.78189 -0.94726,1.17383 -0.0175,-0.18366 -0.0411,-0.36693 -0.0566,-0.55078 -0.4822,-5.71642 -0.1661,-10.70038 0.002,-16.42969 0.99356,-9.35346 0.82441,-8.03633 1.95312,-17.5293 0.002,-0.0156 0.008,-0.0661 0.01,-0.082 z m -184.02734,0.0371 c -0.41577,1.95952 0.23633,0.24805 -1.36133,6.15625 -0.32493,1.20163 -3.98094,13.15899 -4.27735,13.97461 -0.7535,2.07334 -1.64334,4.0943 -2.51171,6.12305 -0.68805,-0.77131 -1.39815,-1.52214 -2.15626,-2.23047 -1.4066,-1.46758 -2.89811,-2.88161 -4.23828,-4.41602 0.8917,-1.16977 1.7881,-2.33659 2.66211,-3.51953 1.55667,-2.10689 3.07431,-4.24202 4.61133,-6.36328 1.20411,-1.71462 2.36589,-3.45969 3.61133,-5.14453 1.15295,-1.55969 2.39404,-3.07916 3.66016,-4.58008 z m 5.09765,2.8125 c 4.60049,5.77519 11.28672,9.87226 18.44727,12.88867 0.18361,0.73773 0.36696,1.47574 0.52929,2.21875 0.55305,2.52582 1.02606,5.05915 1.07032,7.65625 0.163,2.59448 0.36321,5.20072 0.35351,7.80079 -0.68448,-0.3641 -1.45373,-0.653 -1.99023,-0.9629 -4.53551,-1.91609 -9.33229,-3.05758 -14.20313,-3.74414 -2.93478,-0.30198 -5.85898,-0.66925 -8.81445,-0.66796 -0.33943,1.5e-4 -0.70589,-0.006 -1.08398,-0.008 0.74461,-2.04563 1.49773,-4.08843 2.13281,-6.16992 1.60598,-5.26352 2.4331,-9.44802 3.15234,-14.86133 0.15133,-1.13891 0.29664,-2.62612 0.40625,-4.15039 z m 189.3418,8.84571 c 0.8054,1.69554 1.6217,3.38489 2.48633,5.05078 3.23656,6.23599 6.92387,12.40498 10.75,18.30078 2.71759,4.1876 5.9595,8.78813 9.05664,12.75195 1.17055,1.49809 2.42424,2.93008 3.63672,4.39453 0.509,0.57571 1.02391,1.14713 1.54297,1.71485 -0.78284,0.17504 -1.57318,0.32136 -2.36915,0.42968 -1.20887,0.15119 -2.42131,0.22724 -3.63476,0.29493 -3.8534,-5.51636 -7.29376,-11.31393 -10.55859,-17.19336 -1.16962,-2.29406 -2.41141,-4.55285 -3.50782,-6.88282 -2.32093,-4.93217 -3.95514,-9.28519 -5.8164,-14.41015 -0.53733,-1.47954 -1.06731,-2.96274 -1.58594,-4.45117 z m -47.43945,3.16601 c -1.63182,3.64326 -2.98093,7.4024 -3.81641,11.33008 -0.15631,0.77177 -0.24713,1.23306 -0.36328,1.79883 -1.21927,0.18434 -2.42807,0.44061 -3.62696,0.72461 -2.23554,0.5644 -4.45644,1.21044 -6.5996,2.05859 -0.0474,-0.86515 -0.0987,-1.72909 -0.15235,-2.59375 -0.13266,-2.13607 -0.23353,-4.27936 -0.51953,-6.40039 -0.0825,-0.61228 -0.16078,-1.10992 -0.23633,-1.56836 5.19766,-1.48712 10.30989,-3.26884 15.31446,-5.34961 z m -117.11915,3.25195 c 3.19529,1.06835 6.38855,1.96538 9.44727,2.73829 13.82834,3.20338 28.18915,5.12728 42.57031,5.43945 0.31464,2.1476 0.46641,4.31928 0.5293,6.50195 0.0931,3.11894 0.17659,4.84511 0.13086,8.04883 -0.054,3.78274 -0.23711,6.71258 -0.45508,10.51758 -0.053,0.92511 -0.0948,1.85179 -0.14258,2.77734 -0.82633,0.23824 -1.65023,0.48357 -2.49804,0.64063 -0.99743,0.11225 -1.99976,0.23822 -3.00391,0.27148 -1.33901,0.0446 -2.68108,-0.0555 -4.01758,0.084 -1.59151,0.113 -3.1808,0.24464 -4.77734,0.25976 -2.57939,0.0265 -1.16693,-0.001 -3.22461,-0.0996 -0.86272,-0.0412 -1.72483,-0.0663 -2.58789,-0.0996 -0.93581,-0.0578 -1.87463,-0.0914 -2.8086,-0.17383 -4.90653,-0.43321 -9.71076,-1.54548 -14.55078,-2.4082 -1.41873,-0.288 -2.84886,-0.52646 -4.25586,-0.86719 -0.53404,-0.12926 -1.05249,-0.31565 -1.58398,-0.45507 -1.42633,-0.37418 -1.12094,-0.27363 -2.4043,-0.4668 -0.0235,-0.004 -0.0469,-0.008 -0.0703,-0.0117 -0.11859,-1.68454 -0.25243,-3.36828 -0.40234,-5.05078 -0.32024,-2.6787 -0.56028,-5.36895 -0.95899,-8.03711 -0.80196,-5.36678 -1.49893,-8.30388 -2.89844,-13.42578 -0.6771,-2.47805 -1.14064,-4.18745 -2.03711,-6.1836 z m 96.41993,3.51758 c -0.01,0.0947 -0.02,0.18177 -0.0293,0.2793 -0.20145,2.11041 -0.2189,4.23435 -0.32813,6.35156 -0.42087,8.15732 -0.69305,16.31769 -1.0371,24.47852 -0.35364,6.51452 -0.75474,13.02832 -1.22461,19.53711 -0.22831,0.0612 -0.45783,0.12178 -0.6875,0.17773 -1.27949,0.31521 -2.55986,0.62048 -3.84766,0.90039 -1.59413,0.39451 -3.19064,0.7845 -4.71484,1.41016 -0.93311,0.39283 -1.86616,0.81011 -2.73633,1.32812 -0.34688,-1.44166 -0.66042,-2.88934 -1.16992,-5.46093 -1.01961,-5.14621 -1.71906,-10.31569 -2.35743,-15.51954 -0.94265,-8.46145 -1.71298,-16.9574 -1.8125,-25.47461 -0.009,-1.48615 0.014,-2.97175 0.0527,-4.45703 6.70903,-0.77094 13.35685,-1.94308 19.89258,-3.55078 z m -142.63672,0.39844 c 1.13948,1.36434 2.47028,2.6007 3.69922,3.81445 1.10364,1.04184 2.19565,2.09569 3.27148,3.16602 -1.06792,2.23414 -2.10296,4.48481 -3.25976,6.67383 -1.91423,3.62232 -4.21328,7.46088 -6.49024,11.13476 -1.5405,-0.53678 -3.07623,-1.08441 -4.61914,-1.61523 -2.36783,-0.80441 -4.73574,-1.6136 -7.11719,-2.375 0.83249,-1.23198 1.66653,-2.46211 2.50586,-3.68946 1.95805,-2.8632 3.96944,-5.69175 5.95899,-8.5332 1.82157,-2.60152 3.60986,-5.22611 5.47461,-7.79687 0.18972,-0.26156 0.38408,-0.51949 0.57617,-0.7793 z m 117.81836,3.65234 c -0.1341,1.28989 -0.2398,2.58344 -0.32617,3.87696 -0.17613,3.73604 -0.23022,7.47381 -0.16211,11.20898 -2.15456,-0.48521 -4.35555,-0.62415 -6.58399,-0.31836 -1.93662,0.32222 -3.88082,0.71499 -5.74609,1.33789 -0.0723,-1.8387 -0.19034,-3.67541 -0.36133,-5.5039 -0.12019,-1.28334 -0.31,-2.55826 -0.46484,-3.83789 -0.32625,-2.04567 -0.70277,-4.09874 -1.20899,-6.11524 4.96233,-0.0158 9.9205,-0.22568 14.85352,-0.64844 z m 90.84961,1.79883 c 0.80333,1.88047 1.63658,3.74852 2.50586,5.59961 1.1427,2.43326 2.39848,4.81278 3.59765,7.21875 0.19456,0.37256 0.39379,0.74269 0.5918,1.11328 -2.24311,1.73394 -4.11883,3.91818 -6.00781,6.01953 -2.34182,2.80024 -4.71219,5.66102 -6.62305,8.78516 -0.006,-0.0196 -0.0118,-0.039 -0.0176,-0.0586 -1.15007,-3.91 -2.55574,-10.32358 -3.22461,-14.27149 -0.20195,-1.19209 -0.39822,-2.38544 -0.57617,-3.58203 0.9816,-1.09013 1.90648,-2.23697 2.83984,-3.36328 1.87843,-2.36621 4.01422,-4.49992 6.11719,-6.66211 0.27043,-0.26154 0.5361,-0.52853 0.79688,-0.79883 z m -50.06055,3.46485 c -0.0789,0.52848 -0.15638,1.11579 -0.24023,1.82421 -0.45975,3.884 -0.4061,7.80305 -0.18946,11.70118 0.12964,1.86081 0.23273,3.68791 0.46094,5.54101 0.47739,3.87553 1.34673,7.69397 2.38867,11.45313 0.30423,1.05319 0.61978,2.10091 0.94141,3.14648 -3.14152,-0.42838 -6.31683,-0.32697 -9.47656,-0.10547 -1.50698,0.1408 -3.03043,0.28212 -4.53125,0.52735 0.39904,-4.00868 0.69609,-8.02789 0.90039,-12.05274 0.21694,-6.59637 0.42954,-10.30621 0.2832,-16.90039 -0.0176,-0.79298 -0.0447,-1.58631 -0.0762,-2.37891 2.60941,-0.77491 5.21317,-1.57007 7.82422,-2.33984 0.56811,-0.15585 1.14015,-0.29127 1.71484,-0.41601 z m -144.32227,0.79296 c 0.45128,0.12005 0.90052,0.25502 1.35938,0.33789 2.77524,0.50121 2.36745,0.3128 5.24805,0.73047 1.0063,0.14589 2.00818,0.3285 3.01171,0.49219 4.74933,0.67846 9.46077,1.59916 14.1875,2.41992 0.9635,0.085 1.83523,0.5648 2.76563,0.76953 0.21849,0.048 0.44247,0.0636 0.66602,0.0723 0.0563,0.002 0.11521,-0.008 0.17382,-0.0215 -0.0668,0.76527 -0.15153,1.53053 -0.28125,2.29296 -1.81558,8.60489 -4.4872,16.98665 -7.4375,25.26563 -0.29226,0.87321 -0.55079,1.65105 -0.83007,2.48047 -4.22932,-0.80015 -8.54101,-0.9857 -12.83789,-1.24219 -1.69589,-0.0507 -3.39127,-0.14441 -5.0879,-0.15234 -3.96974,-0.0189 -7.70551,0.14115 -11.66406,0.46093 -3.06981,0.24786 -6.58685,0.61482 -9.70312,1.2168 7.73144,-11.14224 14.93157,-22.71048 20.42968,-35.12305 z m 167.61133,5.1211 c 2.36807,0.21732 4.75745,0.14082 7.13477,0.20508 0.71611,0.009 1.43051,0.0554 2.14062,0.13281 0.55768,4.52238 1.4063,9.01147 2.54492,13.44726 1.5814,6.16041 2.34034,7.74921 4.51954,13.61133 1.67017,3.97146 3.59421,7.83517 5.70117,11.59375 -0.005,-4.9e-4 -0.009,-9.5e-4 -0.0137,-0.002 -3.70613,-0.35187 -7.41957,-0.20046 -11.09766,0.37891 -4.67342,0.75099 -9.28233,1.86216 -13.53906,4.0039 -1.93929,0.93417 -3.90861,1.89387 -5.72852,3.06641 -0.0723,-0.29212 -0.13685,-0.58585 -0.21289,-0.87695 -0.29783,-1.14018 -0.65908,-2.26306 -0.98828,-3.39454 -2.10433,-6.29726 -4.41588,-12.52138 -6.55078,-18.80859 -1.71262,-5.20055 -2.37518,-10.63148 -2.84766,-16.06055 -0.0345,-0.48428 -0.0622,-0.96871 -0.084,-1.45312 1.72638,-0.94438 3.46149,-1.86428 5.26562,-2.65625 2.45998,-1.13817 5.0657,-1.86199 7.69727,-2.47461 1.99555,-0.45729 4.0144,-0.70212 6.05859,-0.71289 z m -68.53515,6.31445 c 1.35869,4e-4 2.71489,0.17272 4.04492,0.45508 0.14188,4.03706 0.42703,8.07062 0.86133,12.09375 0.48336,4.37881 0.63678,6.1682 1.29687,10.54883 0.55973,3.71459 1.23746,7.41372 2.0332,11.08594 -3.51624,-0.73457 -7.09877,-0.98264 -10.7246,-0.60352 -2.92886,0.33606 -5.95398,0.73971 -8.80079,1.62891 0.50499,-5.02467 1.11001,-10.04056 1.70313,-15.05274 0.19653,-1.85219 0.40918,-3.70282 0.58984,-5.55664 0.19503,-2.00039 0.41651,-3.99961 0.53711,-6.00586 0.14319,-2.38249 0.19572,-4.77447 0.16797,-7.16601 2.23256,-0.57217 4.48189,-1.06716 6.77148,-1.35352 0.50571,-0.0507 1.01313,-0.0744 1.51954,-0.0742 z m 103.69726,1.31055 c 4.33106,7.62666 9.37769,14.83089 14.9336,21.61914 0.43698,0.53391 0.84962,1.02978 1.25195,1.50781 -3.77262,1.93808 -7.40477,4.13568 -10.98633,6.4043 -2.90121,1.9563 -5.92603,3.90469 -8.31445,6.48633 -0.61759,-1.01937 -1.23182,-2.04144 -1.83399,-3.07032 -0.90595,-1.54786 -1.84298,-3.07857 -2.67773,-4.66601 -2.15172,-4.09179 -2.85247,-6.11299 -4.62695,-10.45117 -0.31516,-0.92814 -0.64627,-1.85082 -0.97266,-2.77539 0.32342,-0.22242 0.67007,-0.41684 0.96484,-0.67579 0.79363,-0.69721 2.0566,-2.21949 2.67383,-2.95703 1.7452,-2.08531 3.44877,-4.20706 5.18164,-6.30273 1.39249,-1.77705 2.87175,-3.47162 4.40625,-5.11914 z m -233.36523,1.00195 c 2.26132,1.20314 4.76543,1.94848 7.19922,2.7168 1.53819,0.46029 3.08479,0.92467 4.64843,1.30469 -0.39475,0.62722 -0.79659,1.27285 -1.18164,1.88085 -1.63295,2.57855 -3.27094,5.15512 -4.96875,7.69141 -2.11397,3.15795 -4.2148,6.12141 -6.33984,9.08594 -0.54009,-0.28397 -1.10941,-0.52436 -1.70117,-0.66211 -0.60574,-0.14098 -1.24146,-0.0586 -1.86328,-0.0703 -2.42205,-0.0461 -2.205,-0.0105 -4.70313,0.13086 -2.12807,0.26214 -4.30123,0.55675 -6.40039,1.08984 2.58851,-3.95681 5.16325,-7.92366 7.72852,-11.89453 2.54161,-3.74808 5.05571,-7.51503 7.58203,-11.27344 z m 61.14648,2.69727 c 0.20307,5.2222 0.3932,9.75106 0.4336,15.20507 0.0219,2.98844 -0.0492,5.97829 -0.0547,8.9668 -0.0106,5.72965 0.0806,11.07831 -0.0312,16.80078 -0.0272,1.3906 -0.0736,2.78193 -0.125,4.17188 -0.0968,0.0907 -0.15364,0.15799 -0.13672,0.18164 0.0428,0.0536 0.0827,0.11018 0.12305,0.16601 -0.0405,1.08136 -0.0833,2.16267 -0.11914,3.24415 -0.038,0.62048 -0.0818,1.24072 -0.12305,1.86132 -0.26542,-0.12013 -0.53241,-0.23752 -0.79883,-0.35547 -2.03368,-0.79668 -4.11636,-1.42749 -6.23437,-1.96093 -1.4606,-0.37483 -2.92856,-0.75726 -4.41797,-1.00391 0.1068,-0.77335 0.20926,-1.54784 0.31836,-2.32031 0.78169,-5.53504 1.51838,-9.23761 2.875,-14.6211 1.04887,-4.16224 2.44201,-8.65617 3.67578,-12.77343 1.7412,-5.7973 3.41491,-11.62651 4.61523,-17.5625 z m 7.85156,5.37109 c 0.71013,0.391 1.44574,0.65517 2.22657,0.97852 2.53498,1.04987 1.26441,0.56098 4.12304,1.54687 4.81305,1.62592 9.85975,2.53528 14.91993,2.93164 0.99522,0.0779 1.99349,0.11046 2.99023,0.16602 0.91614,0.004 1.83209,0.0326 2.74805,0.0137 1.11199,-0.0227 2.2244,-0.06 3.33398,-0.13672 1.22456,-0.0847 2.53155,-0.31844 3.75,-0.48633 1.47296,-0.20296 1.58149,-0.20151 3.0293,-0.35156 2.3538,-0.23093 4.72967,-0.49242 7.00781,-1.14844 0.43523,-0.13063 0.87207,-0.255 1.30859,-0.38086 -0.013,0.15614 -0.0225,0.31273 -0.0371,0.46875 -0.17192,1.84203 -0.47127,3.66895 -0.70703,5.50391 -0.51262,3.90966 -1.10498,7.8099 -1.59375,11.72266 -0.26645,2.13297 -0.47707,4.2729 -0.70703,6.41015 -0.35992,3.34512 -0.74806,6.69291 -0.96875,10.05274 -0.0437,0.01 -0.087,0.02 -0.13086,0.0293 -1.44547,0.54777 -2.89566,0.9759 -4.37695,1.41407 -1.65197,0.48861 -3.29423,1.01706 -4.99609,1.3164 -1.45349,0.29027 -2.13415,0.46876 -3.61719,0.59375 -0.66472,0.0559 -1.33342,0.0602 -2,0.0859 -2.70512,0.10431 -5.41099,0.18398 -8.11719,0.25391 -1.07393,0.034 -2.1495,0.045 -3.22266,0.0977 -0.68841,0.034 -1.37139,0.14769 -2.06054,0.16016 -3.44884,0.0624 -6.91471,-0.33754 -10.31055,-0.89453 -1.58901,-0.30367 -2.03049,-0.38724 -2.61719,-0.49219 0.0784,-1.37432 0.15353,-2.74976 0.21289,-4.125 0.51386,-11.90332 0.5336,-23.8365 -0.1875,-35.73047 z m 187.66993,2.59375 c 2.13407,2.19195 4.38374,4.26672 6.83398,6.09961 -0.97182,0.48316 -2.44572,1.36018 -2.98633,1.67188 -0.9229,0.71942 -2.34764,1.19085 -3.23047,2.08398 -2.31691,-2.82847 -4.59831,-5.6921 -6.74804,-8.60742 0.91071,-0.0658 1.81867,-0.17821 2.72461,-0.33399 1.15742,-0.21345 2.30087,-0.51233 3.40625,-0.91406 z m -82.98047,11.23633 c 1.28505,0.008 2.5691,0.0888 3.84765,0.24414 0.618,0.0626 1.22097,0.19783 1.81836,0.35742 0.30378,0.91309 0.61335,1.82405 0.9375,2.73242 0.51719,1.44938 1.82912,4.90472 2.33985,6.38868 0.35452,1.03055 0.67354,2.0746 1.00976,3.11132 0.37865,1.36217 0.74769,2.7344 1.0918,4.11328 -4.33303,-0.0494 -8.65494,0.37575 -12.94336,0.98633 -3.66567,0.55013 -7.39626,1.11946 -10.93359,2.27149 1.32509,-6.41501 2.33546,-12.88934 3.07226,-19.39649 1.96666,-0.22583 3.93198,-0.45296 5.90625,-0.61719 1.28219,-0.13435 2.56847,-0.19967 3.85352,-0.1914 z m -125.35157,2.54101 c -0.76568,2.32138 -1.50649,4.64784 -2.23242,7.21289 -1.36534,4.82442 -2.74436,10.3787 -3.46875,15.33204 -0.91714,6.27121 -0.93197,8.68358 -0.9375,13.42578 -1.5264,-0.42684 -3.06947,-0.7831 -4.64062,-1.00782 -2.39406,-0.40674 -4.81033,-0.68441 -7.22071,-0.9746 -4.36817,-0.37822 -8.73032,-0.85198 -13.12109,-0.86329 -3.3662,-0.0476 -6.73167,-0.14603 -10.09765,-0.0156 -4.84491,0.18784 -9.66842,0.7039 -14.45508,1.47266 -4.20869,0.76225 -5.53066,0.90882 -9.62305,2.00976 -0.53884,0.14496 -1.07409,0.29873 -1.60937,0.45703 3.33332,-4.56782 6.69564,-9.11441 10.01367,-13.69336 1.9321,-2.66634 3.80279,-5.37789 5.75,-8.0332 0.38656,-0.52714 0.78258,-1.04665 1.17383,-1.57031 1.00157,-0.36707 0.82568,-0.17372 0.96093,-1.28516 1.11281,-1.47478 2.23094,-2.94566 3.3418,-4.42187 1.53404,-2.10265 3.08506,-4.19227 4.60547,-6.30469 0.084,0.12732 0.15431,0.20342 0.19336,0.1875 1.38521,0.002 2.7692,0.0227 4.15429,0.004 3.65228,-0.0465 6.95724,-0.20208 10.61915,-0.29883 4.80203,-0.127 6.71534,-0.0972 11.48242,-0.31641 1.63631,-0.0752 3.26919,-0.19703 4.90429,-0.29492 8.75458,-0.6782 0.64081,0.0346 5.93946,-0.58594 1.41649,-0.16646 2.84227,-0.31155 4.26757,-0.43555 z m 203.53516,0.36524 c 1.55252,1.74586 3.07176,3.3701 5.00586,5.47656 4.24916,4.48945 8.79381,8.68126 13.375,12.82813 -5.97181,-0.90074 -12.04954,-1.42893 -18.09375,-1.11133 -2.64922,0.13908 -4.21275,0.53309 -6.74609,1.0332 -2.82255,0.7657 -5.76045,1.62946 -7.87891,3.74414 -0.0371,0.0386 -0.0702,0.0796 -0.10547,0.11914 -0.37589,-0.68548 -0.7518,-1.37036 -1.14258,-2.04687 -1.41633,-2.34175 -2.86325,-4.66468 -4.29882,-6.99414 3.02498,-2.21917 6.11847,-4.32566 9.29882,-6.31836 3.51281,-2.26337 7.04877,-4.48925 10.57813,-6.72656 0.002,-10e-4 0.005,-0.002 0.008,-0.004 z m -254.68945,0.37695 c 0.12515,5.7e-4 0.25196,0.002 0.37695,0.002 -0.78145,1.08452 -1.53876,2.14237 -2.3418,3.25976 -1.7982,2.39603 -3.57293,4.8092 -5.39453,7.1875 -0.17732,0.23152 -0.3607,0.45874 -0.53906,0.68945 -3.47565,0.80864 -6.9146,1.773 -10.28906,2.94727 -3.7442,1.36399 -2.9704,1.04049 -6.46094,2.46484 -0.10634,0.0434 -0.21553,0.0825 -0.32617,0.11914 -0.1913,0.30134 -0.30562,0.50822 2.77539,-4.05273 2.28495,-3.3825 4.54193,-6.78311 6.78906,-10.19141 3.46892,-1.03148 7.04871,-1.54542 10.63086,-2.00586 1.95963,-0.19578 2.42273,-0.25083 4.3418,-0.40625 0.14487,-0.0117 0.29018,-0.0143 0.4375,-0.0137 z m 219.81055,8.45703 c 0.7163,-8e-4 1.43387,0.0192 2.15234,0.0586 1.1207,0.0821 2.22957,0.25027 3.32422,0.48633 0.0871,0.14417 0.17214,0.28972 0.25976,0.43359 0.90543,1.48664 1.88749,2.92477 2.82618,4.39062 3.17921,4.96456 2.26514,3.52431 5.3125,8.51563 2.67611,5.23239 5.6785,10.38098 7.69921,15.92383 -4.85141,0.22748 -9.70077,0.50035 -14.55664,0.60937 -7.18533,0.008 -14.35613,-0.51278 -21.48047,-1.45312 -4.4321,-0.67615 -8.84383,-1.56538 -13.30664,-2.00586 0.28627,-0.7701 0.55316,-1.54918 0.78907,-2.3418 0.3205,-1.07675 0.53847,-2.18101 0.80859,-3.27148 0.312,-1.61521 0.48042,-3.23612 0.53516,-4.85547 0.33821,-0.39652 0.43283,-0.66176 0.0195,-1.10547 0.004,-2.51309 -0.258,-5.02122 -0.70508,-7.50586 2.3383,-1.32646 4.77251,-2.46509 7.20508,-3.61328 4.03358,-1.87877 8.34238,-2.89344 12.70312,-3.64844 2.12567,-0.42293 4.26513,-0.61478 6.41407,-0.61719 z m -85.68555,1.20899 c 2.5022,-0.003 4.9984,0.29462 7.45703,0.77344 0.62588,2.60299 1.30929,5.19044 2.06055,7.75976 0.56201,1.88247 1.07449,3.78196 1.6875,5.64844 0.60223,1.83379 1.29383,3.63659 1.95703,5.44922 1.13472,3.10129 2.28497,6.21048 3.63476,9.22656 -1.11509,-0.57626 -2.24979,-1.11684 -3.41211,-1.59766 -4.80986,-2.02065 -9.78473,-3.63753 -14.92968,-4.5625 -4.09651,-0.65775 -8.30812,-1.2657 -12.4668,-0.98828 -0.0268,-0.38022 -0.0417,-0.63354 -0.0742,-1.06054 -0.10111,-6.30179 0.24425,-12.58269 0.79883,-18.84766 3.45728,-0.73722 6.9219,-1.3509 10.46094,-1.66406 0.94177,-0.0921 1.88421,-0.13564 2.82617,-0.13672 z m 54.17187,7.39453 c 0.008,-3.7e-4 0.0156,3.7e-4 0.0234,0 0.29185,1.47645 0.52567,2.96009 0.66406,4.45117 -1.0534,-0.23983 -1.9427,-0.43732 -3.16015,-0.51758 -4.55611,-0.30047 -9.11428,0.10327 -13.58399,1.00586 -3.04388,0.71932 -6.05772,1.43647 -8.99804,2.51953 -0.54936,0.20248 -1.08917,0.42721 -1.62891,0.6543 0.47141,-1.50899 0.86474,-3.04233 1.24609,-4.57617 4.37975,-0.8561 8.76714,-1.64505 13.1875,-2.26758 4.06931,-0.58457 8.1451,-1.07339 12.25,-1.26953 z m -75.20117,6.13476 c -0.003,0.0841 -0.007,0.16786 -0.01,0.25196 -0.0668,2.45057 0.0417,4.90406 0.0625,7.35547 0.55026,5.97815 0.52301,8.17932 1.95507,14.00195 2.01341,8.18633 5.66005,15.78255 10.31641,22.75781 -0.1024,-0.0372 -0.20368,-0.0774 -0.30664,-0.11328 -1.3801,-0.49247 -2.77965,-0.92115 -4.16016,-1.41211 -1.75253,-0.62321 -3.48083,-1.32397 -5.28515,-1.79297 -2.37836,-0.57116 -4.77917,-1.10097 -7.22461,-1.29883 -3.5146,-0.28422 -7.05196,-0.27927 -10.56836,-0.0449 -1.23266,0.14892 -2.47083,0.25174 -3.69727,0.44531 -6.32382,0.99761 -12.5314,2.88104 -18.20508,5.86524 -2.03811,1.06057 -2.13186,1.06141 -3.96289,2.17773 -0.0952,0.0581 -0.19128,0.11702 -0.28711,0.17579 -0.0316,-0.20139 -0.0666,-0.40204 -0.0976,-0.60352 -0.60158,-4.32559 -1.48372,-9.94206 -1.67578,-14.30469 -0.10334,-2.34678 -0.0144,-4.69922 0.0664,-7.04687 0.26593,-7.71232 1.27924,-15.36856 1.56055,-23.08008 0.002,-0.0286 0.002,-0.0573 0.004,-0.0859 0.40814,0.1008 0.81847,0.1984 1.23437,0.29492 4.94846,1.23428 10.03727,1.69372 15.12891,1.70899 1.11182,0.003 2.22279,-0.0755 3.33398,-0.11328 4.71076,-0.28422 9.38092,-1.01641 13.98438,-2.03711 1.74525,-0.50238 3.49493,-1.06822 5.16406,-1.79102 0.90633,-0.39251 1.78859,-0.85311 2.66992,-1.31055 z m 7.25977,11.64454 c 3.586,0.24231 7.15271,0.72403 10.70508,1.28515 4.93764,0.91514 9.79755,2.24438 14.55273,3.85352 2.17111,0.80201 4.28631,1.74648 6.3457,2.80078 0.28293,0.067 0.92696,0.47647 1.55469,0.8789 0.0811,0.14134 0.15956,0.28325 0.24219,0.42383 0.22828,0.48511 0.4429,0.97889 0.68554,1.45703 0.0111,0.0219 0.0176,0.0501 0.0274,0.0742 -0.44351,-0.0259 -0.70779,-0.20323 -0.46485,-0.78711 -7.34615,-2.85286 -14.92433,-5.21074 -22.79296,-6.05664 -3.46008,-0.23815 -6.97537,-0.53192 -10.45899,-0.39453 -0.1945,-1.19997 -0.30411,-2.28612 -0.39648,-3.53515 z M 281.41211,538.5 c 2.09908,-0.005 4.18957,0.14148 6.29492,0.26562 2.44245,0.0522 4.88073,0.16025 7.31836,0.31446 1.6678,0.10507 3.30153,0.46803 4.94531,0.74609 0.15189,0.0158 0.42892,0.0527 0.71094,0.0742 -0.002,0.38664 -3.4e-4,0.6339 -0.004,1.05469 0.20735,2.83328 0.28737,5.67881 0.6211,8.5 0.6721,5.68169 1.51109,9.04713 2.92187,14.42578 0.82022,3.12709 1.70281,6.25143 2.85157,9.27734 -2.45326,-1.36332 -4.91621,-2.70997 -7.52539,-3.76953 -4.47217,-1.88821 -6.28723,-2.75871 -11.08008,-4.30469 -11.549,-3.72529 -23.54864,-5.64147 -35.70508,-5.27539 -3.23406,0.223 -6.4829,0.28056 -9.70117,0.66993 -7.03677,0.85122 -10.61605,1.77649 -17.13867,3.99609 -1.82279,0.6203 -3.59745,1.37496 -5.37891,2.10547 -0.19883,0.0815 -0.40659,0.14859 -0.61328,0.21875 2.80641,-4.1067 5.58676,-8.22961 8.43359,-12.3086 3.84177,-5.44239 5.046,-7.1431 7.66797,-10.77539 0.17028,-0.008 0.28982,-0.0117 0.50195,-0.0234 1.63399,-0.0911 5.89106,-0.69814 7.26368,-0.88477 5.62142,-0.7643 3.9234,-0.53119 9.62695,-1.37305 1.62755,-0.21959 3.25354,-0.45165 4.88281,-0.6582 0.16237,-0.0189 8.66601,-1.02501 9.08008,-1.07422 0.51286,-0.0609 6.00052,-0.72351 6.8125,-0.80273 0.90426,-0.0881 1.81289,-0.13907 2.71875,-0.20899 0.79727,-0.0427 1.5936,-0.0801 2.39062,-0.12695 0.70283,-0.0415 1.40383,-0.0608 2.10352,-0.0625 z m 165.47461,2.08984 c 4.2535,1.26316 8.64518,2.03904 13.00586,2.83204 7.98244,1.4401 16.09308,1.65054 24.17969,1.52929 4.86854,-0.2131 9.72142,-0.66329 14.55859,-1.24023 0.5348,1.9318 1.04888,4.06565 1.45117,5.67383 0.85661,4.08415 1.74729,8.16719 2.51367,12.27148 -3.21923,-2.15507 -1.70007,-1.22339 -5.89258,-3.30469 -8.9027,-3.80148 -18.40993,-5.77247 -27.90624,-7.40625 -6.51311,-0.97183 -13.13268,-1.05636 -19.67969,-0.38281 -2.92751,0.30123 -4.21503,0.56118 -7.04102,1.03906 -1.22284,0.22176 -2.44022,0.47452 -3.65039,0.75782 0.62434,-0.67674 1.22036,-1.36458 2.10547,-2.35547 2.57384,-2.83742 4.7168,-5.99432 6.35547,-9.41407 z m -86.17969,28.6836 c 0.27619,0.002 0.58061,0.006 0.92383,0.0137 0.5412,0.0113 1.07748,0.0928 1.61719,0.13477 0.86261,0.0673 1.72838,0.11285 2.58984,0.19335 1.76575,0.16479 2.58658,0.30534 4.30469,0.55665 3.19304,0.61646 6.2338,1.78377 9.38476,2.5664 1.81142,0.57952 3.60808,1.20646 5.39844,1.84766 0.14972,0.0511 0.29692,0.10788 0.44336,0.16601 0.89548,1.14039 1.79445,2.27773 2.73047,3.38477 2.638,3.12 4.68479,5.20835 7.60156,7.97851 0.75126,0.71351 1.52225,1.40738 2.3086,2.08204 -4.462,-0.57928 -8.93251,-1.12203 -13.42188,-1.43946 -2.33182,-0.13266 -4.66174,-0.32229 -6.99609,-0.39843 -6.59214,-0.21506 -11.31189,-0.2617 -17.79297,0.21679 -4.57425,0.33751 -9.29838,0.88602 -13.75,2.07227 -1.8057,0.48117 -3.5334,1.2152 -5.30078,1.82226 -1.32056,0.73886 -2.67861,1.41457 -3.96289,2.21485 -0.93575,0.5831 -2.99964,2.22662 -3.95704,3.01367 -0.0826,0.0679 -0.19266,0.12686 -0.30859,0.18555 -0.68087,-2.18905 -1.16405,-4.42034 -1.66601,-6.66602 -0.93085,-4.16444 -1.74823,-8.35073 -2.46094,-12.55664 0.57295,-0.25555 1.15087,-0.50203 1.73828,-0.71484 0.93024,-0.33714 3.40008,-1.0557 4.21484,-1.29883 4.79387,-1.29392 9.51605,-2.87713 14.37891,-3.91211 2.73142,-0.58133 4.33294,-0.73573 7.07227,-1.0918 2.44809,-0.25663 2.97682,-0.38332 4.91015,-0.37109 z m -27.82226,27.72851 c 0.31376,0.13407 0.4934,0.19641 0.008,0.0215 -0.003,-0.007 -0.005,-0.0143 -0.008,-0.0215 z"
       transform="scale(0.26458333)" />
  </g>
  <g
     inkscape:groupmode="layer"
     id="layer4"
     inkscape:label="Layer 4"
     style="display:inline" />
</svg>
