<?xml version="1.0" encoding="UTF-8"?>
<!-- Created with Inkscape (http://www.inkscape.org/) -->
<svg width="28.431mm" height="18.137mm" version="1.1" viewBox="0 0 28.431 18.137" xmlns="http://www.w3.org/2000/svg">
 <g transform="translate(-131.98 -72.56)" stroke-linecap="square" stroke-linejoin="round">
  <rect x="138.22" y="72.56" width="16.486" height="18.137" fill="#f7e26b" stroke-width="2" style="paint-order:stroke markers fill"/>
  <path d="m159.81 75.711c-7.147 0.23331-14.356 0.13163-21.482 0.82622-1.8388 0.16696-3.7061 0.19805-5.5411 0.32368-0.39675 0.20551 0.046 0.63194 0.0272 0.94212 0.27296 1.377 0.60196 2.7707 1.4466 4.0066 1.5452 2.472 3.6086 4.9333 6.7469 6.2306 2.9746 1.241 6.5124 1.2001 9.6962 0.57002 3.1222-0.73734 5.4942-2.8274 6.8043-5.1643 1.3624-2.2384 1.9993-4.7062 2.5684-7.1399 0.0261-0.21553 0.10833-0.56523-0.26629-0.59509z" fill="#eb8931" stroke-width=".57518" style="paint-order:stroke markers fill"/>
  <path d="m131.98 77.145c0.0891 0.5966 0.34937 1.1519 0.59052 1.6994 0.37299 0.88936 0.81237 1.7488 1.2472 2.609 0.42783 0.8878 0.94099 1.7275 1.5037 2.535 0.45586 0.66324 0.97906 1.2758 1.5208 1.8696 0.51981 0.57831 1.1471 1.0431 1.7757 1.4948 0.53703 0.37477 1.1046 0.70236 1.6567 1.0539 0.60235 0.41908 1.2743 0.70561 1.9569 0.96424 0.91044 0.34506 1.8716 0.51847 2.8277 0.68138 0.79375 0.12384 1.5894 0.24501 2.3919 0.2911 0.94775 0.05773 1.856-0.16964 2.752-0.4469 0.71908-0.20088 1.419-0.45863 2.1061-0.74929 0.53599-0.2331 1.0377-0.53651 1.5275-0.85349 0.45505-0.29546 0.87496-0.63455 1.2696-1.0058 0.39751-0.34912 0.75008-0.74061 1.0879-1.1465 0.34332-0.42167 0.63931-0.8784 0.91529-1.3461 0.30776-0.54192 0.57956-1.1027 0.85876-1.6595 0.30384-0.57639 0.58291-1.1648 0.86169-1.7536 0.29832-0.63912 0.5596-1.2939 0.76785-1.9677 0.12185-0.41665 0.2387-0.83504 0.33894-1.2575 0.0773-0.36816 0.17003-0.73279 0.2512-1.1001 0.0469-0.26644 0.0989-0.53199 0.14314-0.79892 7e-3 -0.18133 0.0826-0.36408 0.0786-0.54616-2e-3 -0.08173-0.0137-0.16292-0.0206-0.24438-0.0503-0.10513-0.0803-0.22269-0.15088-0.31539-0.3635-0.47717-1.1243-0.37448-1.6352-0.36827-0.59091 0.0154-1.1821 0.02585-1.7732 0.01953-0.74487-0.02244-1.4866 0.04671-2.2292 0.08897-0.89559 0.06527-1.7934 0.07164-2.6907 0.09031-0.50125 0.03281-1.0154 0.03919-1.5438 0.03982-0.74584-0.02703-1.487 0.04822-2.2252 0.14222-0.69697 0.11329-1.3963 0.20778-2.0974 0.2915-0.57977 0.06436-1.1579 0.14869-1.7414 0.16756-0.60707-5.29e-4 -1.2129 0.04789-1.8186 0.0842-0.74732 0.06967-1.4954 0.12966-2.2427 0.19915-0.68723 0.07241-1.3789 0.07136-2.069 0.08809-0.72378 0.01519-1.4426 0.11082-2.1591 0.20775-0.44471 0.06909-0.89289 0.1092-1.3396 0.16194-0.46155 0.04889-0.9254 0.06776-1.3875 0.11034-0.31115 0.03451-0.62329 0.06066-0.93427 0.09672-0.36028 0.09638-0.65366 0.14709 0.13187 1.0163 0.11802 0.13058 0.31115-0.16463 0.46672-0.24695 0.0148 0.0056 0.0935-0.2031 0.0787-0.20866-0.10004-0.11581-0.22502-0.48076-0.30013-0.34743-0.52486 0.93173-0.35312 0.93742 1e-3 0.9897 0.32618-0.0021 0.65266-0.0021 0.9783-0.02344 0.4616-0.03271 0.91907-0.09567 1.3783-0.15068 0.46394-0.02418 0.92716-0.05859 1.3902-0.0961 0.68803-0.05677 1.3743-0.14009 2.0649-0.16029 0.71784-0.01003 1.4348-0.03844 2.1506-0.09455 0.7465-0.06048 1.4917-0.13673 2.2368-0.21225 0.58138-0.06585 1.1649-0.10072 1.7494-0.12417 0.62117-0.02759 1.2439-0.0436 1.8604-0.13259 0.7015-0.09462 1.3999-0.2097 2.0995-0.31713 0.48409-0.07131 0.96221-0.08908 1.4491-0.12194 0.0212-0.0013-0.0424-0.0038-0.0636-0.0057 0.75222 0.0076 1.5042 0.03646 2.2562 0.05211 0.92579 0.0056 1.8514-0.02938 2.7719-0.13372 0.70987-0.07631 1.4216-0.10369 2.1355-0.10928 0.59438-0.01905 1.189-0.03065 1.7829-0.06289 0.71833-0.034 0.10289 0.01214 0.11921-0.03225 0.0162-0.04414 0.0971 0.0029 0.14018-0.01601 0.12283-0.05396-0.12978-0.29238-0.0712-0.37874 2e-3 -0.03036 0.015-0.06159 7e-3 -0.09107-6e-3 -0.02294-8e-3 0.04664-0.0128 0.06992-0.0208 0.1094-0.041 0.21851-0.0595 0.32832-6e-3 0.03787-0.0132 0.07566-0.0198 0.11349-0.0435 0.24102-0.0843 0.48226-0.15368 0.7177-0.10233 0.36846-0.2021 0.7375-0.27078 1.1141-0.0863 0.38346-0.20968 0.75613-0.36049 1.1193-0.25456 0.62204-0.50155 1.2472-0.76606 1.8651-0.25462 0.58452-0.54464 1.1523-0.83186 1.7214-0.26585 0.53767-0.52305 1.0801-0.82727 1.5977-0.23015 0.41196-0.44476 0.83896-0.7801 1.1783-0.31643 0.35825-0.64165 0.70996-0.99331 1.034-0.3658 0.31198-0.75073 0.59943-1.1561 0.85861-0.43818 0.27559-0.88237 0.534-1.3802 0.68995-0.6613 0.24982-1.3263 0.48742-2.0103 0.66919-0.3587 0.09261-0.71626 0.19474-1.0806 0.26345-0.82892 0.15633 0.12064-0.03416-0.66496 0.0872-0.0152 0.0024 0.0299 7e-3 0.0448 0.01053-0.75234-0.01273-1.4782-0.17527-2.2136-0.32301-0.89169-0.15275-1.7935-0.26695-2.6609-0.53448-0.61062-0.20664-1.2381-0.40563-1.7885-0.74762-0.53281-0.34547-1.0411-0.72782-1.5761-1.0703-0.5667-0.38798-1.1345-0.78255-1.6199-1.2722-0.49273-0.56276-0.95164-1.155-1.3942-1.7578-0.51239-0.78424-0.98202-1.5916-1.3937-2.4339-0.45206-0.83659-0.87385-1.6868-1.297-2.5382-0.25314-0.49402-0.49679-0.99115-0.72144-1.4987-0.0225-0.08466-1.2198 0.23391-1.1972 0.31857z" stroke-width="2" style="paint-order:stroke markers fill"/>
 </g>
</svg>
